{"glyphs":{"0":{"ha":833,"x_min":165,"x_max":668,"o":"m 486 783 q 656 426 710 783 q 650 392 653 410 q 396 3 588 40 q 347 -1 372 -1 q 178 356 124 -1 q 183 390 181 372 q 439 779 246 744 q 486 783 461 783 m 476 732 q 265 522 331 732 q 235 392 249 465 q 297 61 185 108 q 357 50 322 50 q 557 240 483 50 q 599 390 585 310 q 476 732 658 732 z "},"1":{"ha":833,"x_min":107,"x_max":603,"o":"m 115 43 l 336 43 l 456 719 l 229 575 l 208 608 l 481 781 l 513 781 l 382 43 l 603 43 l 594 0 l 374 0 l 328 0 l 107 0 l 115 43 z "},"2":{"ha":833,"x_min":125,"x_max":697,"o":"m 196 503 l 208 568 q 390 763 278 722 q 501 781 440 781 q 669 711 618 781 q 693 596 706 664 q 547 393 672 478 q 415 315 526 379 l 297 249 q 197 111 211 192 l 185 47 l 549 47 l 571 171 l 618 171 l 588 0 l 125 0 l 146 111 q 299 304 164 219 l 508 424 q 560 461 538 443 q 642 596 628 519 q 578 713 656 676 q 485 731 539 731 q 268 576 329 731 q 247 503 254 542 l 196 503 z "},"3":{"ha":833,"x_min":121,"x_max":710,"o":"m 579 432 q 644 246 661 372 q 643 231 644 239 q 503 46 622 114 q 333 0 424 0 q 164 78 231 0 q 121 133 158 85 l 165 169 q 238 83 215 101 q 343 51 279 51 q 531 124 453 51 q 592 231 581 169 q 557 381 608 325 q 492 410 529 410 l 400 410 l 410 461 l 501 461 q 628 524 578 461 q 654 582 649 551 q 572 715 672 681 q 475 731 532 731 q 240 607 353 731 l 204 636 q 485 782 329 781 q 689 694 635 782 q 706 582 717 647 q 606 446 690 496 q 579 432 593 438 z "},"4":{"ha":833,"x_min":90,"x_max":681,"o":"m 589 683 l 175 271 l 517 271 l 589 683 m 568 271 l 681 271 l 671 219 l 558 219 l 528 47 l 651 47 l 643 0 l 343 0 l 351 47 l 476 47 l 507 219 l 90 219 l 97 260 l 619 781 l 658 781 l 568 271 z "},"5":{"ha":833,"x_min":69,"x_max":782,"o":"m 108 146 q 317 51 204 63 q 357 50 336 50 q 574 132 489 50 q 636 249 625 182 q 543 418 660 382 q 460 429 507 429 l 247 429 l 310 781 l 782 781 l 772 729 l 351 729 l 308 481 l 469 481 q 675 379 626 481 q 688 249 701 325 q 524 40 663 110 q 347 -1 440 -1 q 83 94 199 -1 q 71 104 76 99 l 108 146 z "},"6":{"ha":833,"x_min":156,"x_max":718,"o":"m 214 251 q 276 65 189 111 q 356 49 310 49 q 535 146 474 49 q 568 233 560 186 q 521 382 585 328 q 425 415 482 415 q 271 349 342 415 q 214 251 222 304 m 236 383 q 435 467 338 460 q 596 381 543 467 q 619 233 635 315 q 497 42 597 108 q 346 -3 429 -3 q 168 111 207 -3 q 163 251 147 171 l 210 525 q 343 719 231 643 q 529 781 431 781 l 718 781 l 708 729 l 519 729 q 329 647 411 729 q 261 525 274 593 q 236 383 236 383 z "},"7":{"ha":833,"x_min":210,"x_max":729,"o":"m 301 0 l 660 729 l 281 729 l 258 600 l 211 600 l 243 781 l 729 781 l 722 749 l 354 0 l 301 0 z "},"8":{"ha":833,"x_min":149,"x_max":682,"o":"m 575 247 q 528 408 594 358 q 464 431 500 431 l 383 431 q 249 353 301 431 q 208 247 219 308 q 235 82 186 124 q 357 50 272 50 q 575 247 540 50 m 393 482 l 474 482 q 596 543 546 482 q 626 607 621 572 q 558 718 640 686 q 476 732 524 732 q 310 664 364 732 q 282 606 288 639 q 326 501 271 539 q 393 482 356 482 m 626 247 q 443 14 593 60 q 347 0 400 0 q 149 163 153 0 q 157 247 149 199 q 288 453 182 389 q 294 457 292 454 q 228 579 228 499 q 231 606 229 592 q 369 760 250 713 q 486 782 426 782 q 651 719 597 782 q 678 607 690 674 q 579 467 663 519 q 558 456 569 461 q 631 289 635 403 q 626 247 629 268 z "},"9":{"ha":833,"x_min":39,"x_max":600,"o":"m 543 535 q 478 722 568 678 q 403 738 446 738 q 222 640 285 738 q 189 553 197 600 q 238 404 172 460 q 332 371 276 371 q 486 438 417 371 q 543 535 533 482 m 519 403 q 340 321 436 328 q 322 319 331 319 q 164 406 215 319 q 139 553 125 471 q 263 746 161 679 q 411 789 329 789 q 589 672 551 789 q 594 535 608 614 l 546 260 q 414 63 525 142 q 229 0 326 0 l 40 0 l 49 51 l 238 51 q 426 135 344 51 q 494 260 482 192 l 519 403 z "},"\r":{"ha":463,"x_min":0,"x_max":0,"o":""}," ":{"ha":833,"x_min":0,"x_max":0,"o":""},"!":{"ha":833,"x_min":217,"x_max":490,"o":"m 489 847 l 364 217 l 313 217 l 410 847 l 489 847 m 219 53 q 281 122 228 100 q 322 131 301 131 q 394 89 376 131 q 399 53 401 72 q 338 -17 389 6 q 296 -25 317 -25 q 222 17 240 -25 q 219 53 215 33 z "},"\"":{"ha":833,"x_min":208,"x_max":533,"o":"m 306 821 l 261 568 l 210 568 l 254 821 l 306 821 m 532 821 l 488 568 l 436 568 l 481 821 l 532 821 z "},"#":{"ha":833,"x_min":-33,"x_max":803,"o":"m 353 560 l 236 292 l 392 292 l 508 560 l 353 560 m 482 856 l 375 611 l 529 611 l 636 856 l 689 856 l 582 611 l 801 611 l 793 560 l 560 560 l 443 292 l 617 292 l 607 240 l 419 240 l 315 0 l 264 0 l 368 240 l 213 240 l 108 0 l 57 0 l 161 240 l -33 240 l -24 292 l 185 292 l 301 560 l 150 560 l 158 611 l 322 611 l 429 856 l 482 856 z "},"$":{"ha":833,"x_min":100,"x_max":726,"o":"m 725 806 l 683 733 q 675 711 676 721 q 690 596 663 642 l 642 596 q 563 700 625 661 q 479 725 524 725 q 293 658 357 725 q 258 590 265 628 q 339 451 242 497 q 471 406 356 443 q 617 311 586 367 q 628 211 638 271 q 475 39 607 92 q 374 15 428 21 l 353 -103 l 301 -103 l 322 14 q 188 82 242 22 q 149 0 169 32 l 101 0 l 131 58 q 154 119 150 96 q 142 207 160 154 q 139 214 140 211 l 186 214 q 197 174 186 214 q 311 69 231 90 q 354 64 332 64 q 536 133 469 64 q 576 211 568 167 q 497 339 590 296 q 367 385 485 344 q 217 485 247 424 q 207 589 196 528 q 364 754 226 706 q 456 775 407 769 l 479 908 l 531 908 l 507 775 q 633 715 581 768 q 678 806 640 750 l 725 806 z "},"%":{"ha":833,"x_min":60,"x_max":776,"o":"m 490 288 q 639 229 590 288 q 661 146 669 193 q 553 28 649 68 q 440 4 499 4 q 294 61 343 4 q 271 146 263 99 q 379 264 285 222 q 490 288 433 288 m 482 236 q 354 190 413 236 q 322 146 326 167 q 365 75 315 103 q 450 56 400 56 q 592 111 543 56 q 610 146 607 128 q 564 217 624 188 q 482 236 526 236 m 383 786 q 529 729 481 786 q 553 646 561 693 q 444 528 539 569 q 333 504 390 504 q 185 561 233 504 q 163 644 154 597 q 271 763 175 722 q 383 786 325 786 m 374 735 q 232 681 281 735 q 214 646 217 663 q 257 575 206 603 q 342 556 292 556 q 482 610 435 556 q 501 644 497 628 q 458 715 508 688 q 374 735 424 735 m 60 224 l 756 619 l 775 576 l 79 181 l 60 224 z "},"&":{"ha":833,"x_min":31,"x_max":764,"o":"m 317 406 q 86 208 103 307 q 144 85 71 128 q 243 60 186 60 q 368 111 310 60 q 439 181 367 110 q 469 211 450 192 l 317 406 m 763 464 l 567 244 q 540 215 554 231 l 707 18 l 664 -18 l 500 175 l 472 147 q 374 56 392 69 q 233 8 311 8 q 68 76 128 8 q 35 208 21 132 q 274 438 57 336 q 288 444 279 442 l 276 458 l 222 528 q 207 615 199 565 q 336 761 228 729 q 403 771 368 771 l 492 771 l 483 719 l 394 719 q 263 632 289 719 q 258 615 260 624 q 303 515 253 581 q 326 485 322 490 q 510 251 429 347 q 667 426 539 282 q 726 494 694 460 l 763 464 z "},"'":{"ha":833,"x_min":322,"x_max":421,"o":"m 419 821 l 375 568 l 324 568 l 368 821 l 419 821 z "},"(":{"ha":833,"x_min":336,"x_max":711,"o":"m 711 854 l 658 800 q 407 361 463 599 q 399 322 403 342 q 438 -37 369 151 q 535 -214 476 -144 l 468 -214 q 449 -187 468 -214 q 340 271 314 17 q 347 322 343 296 q 521 713 383 524 q 649 854 581 796 l 711 854 z "},")":{"ha":833,"x_min":6,"x_max":393,"o":"m 207 854 l 269 854 q 390 507 375 722 q 381 322 397 411 q 136 -151 336 67 q 101 -187 119 -169 q 72 -214 72 -214 l 6 -214 q 253 108 151 -93 q 329 322 313 224 q 256 772 372 563 q 239 800 247 786 l 207 854 z "},"*":{"ha":833,"x_min":65,"x_max":693,"o":"m 113 214 l 321 446 l 65 532 l 90 581 l 344 494 l 396 782 l 447 782 l 396 494 l 683 581 l 692 532 l 404 446 l 531 214 l 483 185 l 357 415 l 149 185 l 113 214 z "},"+":{"ha":833,"x_min":101,"x_max":646,"o":"m 443 640 l 400 401 l 644 401 l 636 350 l 392 350 l 349 108 l 297 108 l 340 350 l 103 350 l 111 401 l 349 401 l 392 640 l 443 640 z "},",":{"ha":833,"x_min":56,"x_max":347,"o":"m 347 156 l 119 -186 l 56 -186 l 231 156 l 347 156 z "},"-":{"ha":833,"x_min":101,"x_max":647,"o":"m 111 403 l 646 403 l 638 351 l 103 351 l 111 403 z "},".":{"ha":833,"x_min":164,"x_max":364,"o":"m 165 64 q 229 139 174 114 q 279 150 254 150 q 358 104 338 150 q 363 64 367 85 q 299 -11 354 14 q 249 -22 274 -22 q 169 24 190 -22 q 165 64 161 43 z "},"/":{"ha":833,"x_min":25,"x_max":769,"o":"m 26 -117 l 713 878 l 768 878 l 83 -117 l 26 -117 z "},":":{"ha":833,"x_min":231,"x_max":506,"o":"m 307 488 q 374 564 317 540 q 421 574 396 574 q 500 528 481 574 q 504 488 508 510 q 440 413 494 438 q 390 401 415 401 q 311 447 331 401 q 307 488 303 467 m 232 64 q 296 139 242 114 q 346 150 321 150 q 425 104 406 150 q 429 64 433 85 q 364 -12 421 13 q 315 -22 340 -22 q 236 24 257 -22 q 232 64 228 43 z "},";":{"ha":833,"x_min":143,"x_max":521,"o":"m 321 488 q 388 564 331 540 q 435 574 411 574 q 514 528 494 574 q 518 488 522 510 q 454 413 510 438 q 404 401 431 401 q 325 447 346 401 q 321 488 318 467 m 435 156 l 208 -186 l 144 -186 l 318 156 l 435 156 z "},"<":{"ha":833,"x_min":85,"x_max":815,"o":"m 804 611 l 206 350 l 710 74 l 700 21 l 86 350 l 814 668 l 804 611 z "},"=":{"ha":833,"x_min":144,"x_max":615,"o":"m 183 511 l 615 511 l 606 460 l 174 460 l 183 511 m 154 344 l 586 344 l 576 293 l 144 293 l 154 344 z "},">":{"ha":833,"x_min":14,"x_max":746,"o":"m 119 611 l 129 668 l 746 350 l 15 21 l 25 74 l 626 350 l 119 611 z "},"?":{"ha":833,"x_min":126,"x_max":622,"o":"m 285 204 l 299 285 q 397 413 310 347 q 492 482 492 482 q 568 599 557 538 q 488 719 582 683 q 390 735 444 735 q 214 678 274 735 q 183 624 189 654 l 179 599 l 128 599 l 132 624 q 271 763 149 721 q 397 783 329 783 q 593 711 535 783 q 619 599 631 665 q 496 431 604 511 l 399 357 q 350 285 356 319 l 336 204 l 285 204 m 190 64 q 254 139 199 114 q 304 150 278 150 q 383 104 363 150 q 388 64 392 85 q 322 -11 378 14 q 274 -22 299 -22 q 194 24 214 -22 q 190 64 186 43 z "},"@":{"ha":833,"x_min":106,"x_max":656,"o":"m 603 578 q 528 718 599 690 q 442 731 494 731 q 235 594 300 731 q 175 386 199 519 q 194 97 136 165 q 321 51 233 51 l 471 51 l 461 0 l 313 0 q 110 168 131 0 q 124 386 100 249 q 283 731 169 647 q 451 782 353 782 q 653 606 633 782 q 636 386 661 524 l 611 242 q 551 192 590 196 l 456 192 q 353 300 368 192 q 354 392 346 344 q 439 547 372 496 q 524 578 476 578 l 603 578 m 560 243 l 585 386 q 601 526 599 463 l 514 526 q 422 449 457 526 q 406 392 411 422 q 429 257 389 294 q 464 243 444 243 l 560 243 z "},"A":{"ha":833,"x_min":-29,"x_max":733,"o":"m 314 393 l 525 393 l 478 724 l 314 393 m 440 47 l 574 47 l 531 342 l 292 342 l 143 47 l 275 47 l 267 0 l -29 0 l -21 47 l 89 47 l 431 733 l 231 733 l 239 781 l 526 781 l 628 47 l 732 47 l 724 0 l 432 0 l 440 47 z "},"B":{"ha":833,"x_min":43,"x_max":756,"o":"m 307 501 l 551 501 q 681 563 633 501 q 706 617 700 588 q 660 717 717 683 q 594 733 631 733 l 349 733 l 307 501 m 226 47 l 471 47 q 597 125 543 47 q 649 256 635 178 q 607 424 667 361 q 544 454 578 454 l 299 454 l 226 47 m 631 472 q 700 304 700 414 q 696 256 700 279 q 571 36 669 107 q 464 0 519 0 l 43 0 l 51 47 l 175 47 l 297 733 l 174 733 l 182 781 l 601 781 q 732 719 688 781 q 753 617 763 676 q 636 475 735 518 q 631 472 633 474 z "},"C":{"ha":833,"x_min":113,"x_max":774,"o":"m 521 783 q 683 722 633 783 q 699 722 696 713 q 726 781 708 756 l 774 781 q 738 683 746 731 q 749 592 733 658 l 700 592 q 603 713 690 674 q 511 732 560 732 q 285 619 389 732 q 172 390 196 522 q 228 126 144 229 q 392 49 292 49 q 568 110 483 49 q 601 139 586 124 l 639 110 q 443 4 561 29 q 382 -3 411 -3 q 165 117 242 -3 q 121 390 93 231 q 278 679 151 563 q 521 783 390 783 z "},"D":{"ha":833,"x_min":3,"x_max":769,"o":"m 196 47 l 421 47 q 606 164 513 47 q 714 394 692 271 q 694 600 731 496 q 543 733 649 733 l 318 733 l 196 47 m 11 47 l 144 47 l 267 733 l 133 733 l 142 781 l 551 781 q 746 622 692 781 q 763 397 782 511 q 660 154 740 269 q 413 0 553 0 l 3 0 l 11 47 z "},"E":{"ha":833,"x_min":33,"x_max":783,"o":"m 633 558 l 599 360 l 551 360 l 567 446 l 297 446 l 226 47 l 606 47 l 644 168 l 692 168 l 644 0 l 33 0 l 42 47 l 176 47 l 299 733 l 164 733 l 172 781 l 783 781 l 767 621 l 719 621 l 728 733 l 349 733 l 306 493 l 575 493 l 586 558 l 633 558 z "},"F":{"ha":833,"x_min":32,"x_max":782,"o":"m 349 733 l 306 493 l 472 493 l 483 558 l 532 558 l 497 360 l 450 360 l 465 446 l 297 446 l 226 47 l 461 47 l 453 0 l 32 0 l 40 47 l 175 47 l 297 733 l 163 733 l 171 781 l 782 781 l 763 560 l 715 560 l 728 733 l 349 733 z "},"G":{"ha":833,"x_min":103,"x_max":769,"o":"m 511 783 q 671 731 622 783 q 678 722 675 726 q 694 722 690 711 q 722 781 706 761 l 769 781 q 733 683 742 731 q 744 592 729 658 l 696 592 q 597 711 685 672 q 501 732 551 732 q 275 619 379 732 q 163 390 186 522 q 213 122 133 222 q 367 49 271 49 q 593 178 501 49 q 665 344 644 250 l 513 344 l 521 392 l 722 392 l 714 344 q 549 63 675 160 q 357 -3 463 -3 q 144 122 214 -3 q 111 390 83 235 q 268 678 142 561 q 511 783 381 783 z "},"H":{"ha":833,"x_min":-26,"x_max":860,"o":"m 249 510 l 628 510 l 668 733 l 532 733 l 540 781 l 860 781 l 851 733 l 719 733 l 597 47 l 728 47 l 719 0 l 400 0 l 408 47 l 546 47 l 619 458 l 240 458 l 167 47 l 301 47 l 293 0 l -26 0 l -18 47 l 115 47 l 238 733 l 104 733 l 113 781 l 432 781 l 424 733 l 289 733 l 249 510 z "},"I":{"ha":833,"x_min":54,"x_max":779,"o":"m 457 733 l 186 733 l 194 781 l 779 781 l 771 733 l 507 733 l 385 47 l 647 47 l 639 0 l 54 0 l 63 47 l 335 47 l 457 733 z "},"J":{"ha":833,"x_min":124,"x_max":742,"o":"m 200 315 q 181 158 178 194 q 290 50 185 50 q 435 146 388 50 q 453 199 447 172 l 547 733 l 307 733 l 315 781 l 742 781 l 733 733 l 599 733 l 504 199 q 422 51 489 111 q 281 -1 363 -1 q 135 100 169 -1 q 128 199 118 149 l 149 315 l 200 315 z "},"K":{"ha":833,"x_min":-25,"x_max":796,"o":"m 506 781 l 796 781 l 788 733 l 619 733 q 283 401 460 544 q 479 238 404 367 q 564 47 518 171 l 728 47 l 719 0 l 526 0 q 378 282 449 208 q 231 360 319 343 q 199 338 211 346 l 147 47 l 274 47 l 265 0 l -25 0 l -17 47 l 97 47 l 219 733 l 106 733 l 114 781 l 404 781 l 396 733 l 269 733 l 211 404 q 556 733 382 533 l 497 733 l 506 781 z "},"L":{"ha":833,"x_min":67,"x_max":711,"o":"m 315 733 l 199 733 l 207 781 l 496 781 l 488 733 l 367 733 l 244 47 l 588 47 l 664 310 l 711 310 l 628 0 l 67 0 l 75 47 l 193 47 l 315 733 z "},"M":{"ha":833,"x_min":-58,"x_max":892,"o":"m 814 733 l 692 47 l 756 47 l 747 0 l 486 0 l 494 47 l 640 47 l 763 733 l 756 733 l 394 168 l 365 168 l 199 733 l 188 733 l 65 47 l 210 47 l 201 0 l -58 0 l -50 47 l 15 47 l 138 733 l 72 733 l 81 781 l 247 781 l 244 765 l 393 260 l 721 769 l 724 781 l 892 781 l 883 733 l 814 733 z "},"N":{"ha":833,"x_min":-56,"x_max":892,"o":"m 651 75 l 767 733 l 621 733 l 629 781 l 890 781 l 882 733 l 818 733 l 688 -10 l 636 -10 l 192 733 l 189 733 l 68 47 l 213 47 l 204 0 l -56 0 l -47 47 l 18 47 l 139 733 l 74 733 l 82 781 l 231 781 l 651 75 z "},"O":{"ha":833,"x_min":78,"x_max":756,"o":"m 486 783 q 701 665 625 783 q 747 390 775 550 q 590 103 717 219 q 347 -3 478 -3 q 132 115 208 -3 q 86 390 58 231 q 243 678 117 561 q 486 783 356 783 m 476 732 q 250 619 354 732 q 138 390 161 522 q 193 126 110 229 q 357 49 257 49 q 583 161 479 49 q 696 390 672 258 q 640 654 724 551 q 476 732 576 732 z "},"P":{"ha":833,"x_min":4,"x_max":804,"o":"m 250 340 l 528 340 q 664 396 593 340 q 753 536 738 453 q 682 710 774 656 q 597 733 642 733 l 319 733 l 250 340 m 13 47 l 146 47 l 268 733 l 135 733 l 143 781 l 606 781 q 754 717 694 781 q 800 536 819 647 q 650 333 776 407 q 519 293 579 293 l 242 293 l 197 47 l 386 47 l 378 0 l 4 0 l 13 47 z "},"Q":{"ha":833,"x_min":44,"x_max":771,"o":"m 492 732 q 265 619 369 732 q 153 390 176 522 q 208 126 125 229 q 372 49 272 49 q 599 161 494 49 q 711 390 688 258 q 656 654 740 551 q 492 732 592 732 m 271 14 l 208 -50 q 261 -46 232 -46 q 343 -92 299 -46 q 400 -131 379 -129 q 493 -87 436 -131 q 510 -75 504 -79 l 533 -111 l 467 -158 q 393 -178 433 -178 q 308 -131 354 -178 q 254 -93 274 -93 q 61 -167 182 -93 l 46 -154 l 231 33 q 99 251 119 101 q 101 390 89 318 q 258 678 132 561 q 501 783 371 783 q 717 665 640 783 q 763 390 790 550 q 607 103 732 219 q 363 -3 493 -3 q 271 14 318 -3 z "},"R":{"ha":833,"x_min":-57,"x_max":771,"o":"m 199 390 l 499 390 q 650 444 583 390 q 719 561 707 490 q 625 724 742 690 q 560 733 594 733 l 260 733 l 199 390 m 453 343 q 558 138 526 263 q 578 47 567 107 l 675 47 l 667 0 l 536 0 q 482 206 506 153 q 379 343 450 279 l 189 343 l 136 47 l 317 47 l 308 0 l -57 0 l -49 47 l 86 47 l 208 733 l 74 733 l 82 781 l 568 781 q 735 714 679 781 q 767 561 783 656 q 606 369 743 428 q 490 343 546 343 l 453 343 z "},"S":{"ha":833,"x_min":101,"x_max":710,"o":"m 708 792 q 678 713 683 746 q 693 608 667 644 l 649 608 q 644 611 646 610 q 567 715 628 676 q 483 740 528 740 q 301 675 368 740 q 261 600 268 642 q 342 461 244 507 q 474 415 358 453 q 619 321 589 376 q 631 221 640 281 q 492 47 610 107 q 346 13 422 13 q 199 72 260 13 q 182 63 190 83 q 150 0 168 32 l 103 0 l 132 58 q 156 119 151 96 q 143 207 161 154 q 140 214 142 211 l 188 214 q 199 174 188 214 q 313 69 231 90 q 356 64 333 64 q 532 133 463 64 q 579 221 571 172 q 501 349 594 306 q 371 394 486 356 q 221 493 253 435 q 210 600 199 538 q 356 764 229 711 q 492 792 422 792 q 624 742 564 792 q 640 743 636 731 q 661 792 650 774 l 708 792 z "},"T":{"ha":833,"x_min":79,"x_max":826,"o":"m 744 497 l 772 733 l 503 733 l 381 47 l 588 47 l 579 0 l 117 0 l 125 47 l 331 47 l 453 733 l 185 733 l 129 497 l 81 497 l 144 781 l 826 781 l 792 497 l 744 497 z "},"U":{"ha":833,"x_min":100,"x_max":865,"o":"m 856 733 l 757 733 l 672 249 q 571 86 657 165 q 347 -10 468 -10 q 154 94 225 -10 q 114 249 100 174 l 199 733 l 100 733 l 108 781 l 392 781 l 383 733 l 244 733 l 160 249 q 199 125 150 194 q 354 38 261 38 q 558 138 465 38 q 625 249 615 197 l 710 733 l 572 733 l 581 781 l 864 781 l 856 733 z "},"V":{"ha":833,"x_min":79,"x_max":886,"o":"m 878 733 l 808 733 l 369 -22 l 324 -22 l 150 733 l 81 733 l 89 781 l 361 781 l 353 733 l 206 733 l 360 54 l 753 733 l 606 733 l 614 781 l 886 781 l 878 733 z "},"W":{"ha":833,"x_min":61,"x_max":904,"o":"m 629 781 l 904 781 l 896 733 l 863 733 l 532 -21 l 501 -21 l 440 514 l 190 -21 l 160 -21 l 96 733 l 63 733 l 71 781 l 346 781 l 338 733 l 149 733 l 201 117 l 443 635 l 479 635 l 540 117 l 810 733 l 621 733 l 629 781 z "},"X":{"ha":833,"x_min":3,"x_max":821,"o":"m 764 733 l 449 390 l 642 47 l 700 47 l 692 0 l 496 0 l 504 47 l 578 47 l 410 347 l 133 47 l 207 47 l 199 0 l 3 0 l 11 47 l 69 47 l 385 390 l 192 733 l 143 733 l 151 781 l 347 781 l 339 733 l 256 733 l 424 433 l 700 733 l 617 733 l 625 781 l 821 781 l 813 733 l 764 733 z "},"Y":{"ha":833,"x_min":142,"x_max":821,"o":"m 379 47 l 460 47 l 451 0 l 240 0 l 249 47 l 328 47 l 388 379 l 192 733 l 143 733 l 151 781 l 347 781 l 339 733 l 256 733 l 424 433 l 700 733 l 617 733 l 625 781 l 821 781 l 813 733 l 764 733 l 439 379 l 379 47 z "},"Z":{"ha":833,"x_min":104,"x_max":711,"o":"m 539 47 l 593 264 l 642 264 l 575 0 l 104 0 l 110 28 l 633 733 l 289 733 l 242 521 l 193 521 l 251 781 l 711 781 l 704 749 l 183 47 l 539 47 z "},"[":{"ha":833,"x_min":226,"x_max":572,"o":"m 400 781 l 572 781 l 564 733 l 443 733 l 288 -144 l 407 -144 l 399 -192 l 226 -192 l 400 781 z "},"\\":{"ha":833,"x_min":257,"x_max":649,"o":"m 649 -117 l 590 -117 l 257 878 l 313 878 l 649 -117 z "},"]":{"ha":833,"x_min":113,"x_max":456,"o":"m 456 781 l 285 -192 l 113 -192 l 121 -144 l 240 -144 l 396 733 l 275 733 l 283 781 l 456 781 z "},"^":{"ha":833,"x_min":108,"x_max":679,"o":"m 679 496 l 643 465 l 431 668 l 135 465 l 110 496 l 446 781 l 679 496 z "},"_":{"ha":833,"x_min":44,"x_max":790,"o":"m 53 -100 l 790 -100 l 782 -147 l 44 -147 l 53 -100 z "},"`":{"ha":833,"x_min":286,"x_max":543,"o":"m 286 913 l 415 913 l 543 669 l 478 669 l 286 913 z "},"a":{"ha":833,"x_min":36,"x_max":706,"o":"m 575 332 q 324 369 436 369 q 143 296 215 369 q 92 199 101 253 q 163 61 76 110 q 286 32 215 32 q 485 100 397 32 q 543 153 511 121 l 575 332 m 576 47 l 706 47 l 697 0 l 517 0 l 529 75 q 301 -19 426 -12 q 276 -19 289 -19 q 85 50 156 -19 q 40 199 25 110 q 176 379 61 314 q 332 421 251 421 q 585 385 449 421 l 589 408 q 529 514 599 467 q 375 556 465 556 q 143 496 289 556 l 132 543 q 219 575 132 543 q 385 607 324 607 q 594 536 518 607 q 640 408 653 481 l 576 47 z "},"b":{"ha":833,"x_min":-24,"x_max":769,"o":"m 496 542 q 279 453 374 542 q 192 296 207 385 q 256 104 171 178 q 408 50 318 50 q 631 146 536 50 q 713 296 697 211 q 653 485 732 411 q 496 542 590 542 m 233 821 l 121 800 l 121 847 l 294 878 l 221 460 q 460 590 319 571 q 504 593 482 593 q 718 496 643 593 q 764 296 785 411 q 618 72 740 161 q 400 -1 518 -1 q 188 96 263 -1 q 164 132 174 113 l 140 0 l -24 0 l -15 47 l 96 47 l 233 821 z "},"c":{"ha":833,"x_min":90,"x_max":728,"o":"m 671 524 l 683 554 l 726 544 q 697 467 726 544 q 714 417 707 449 l 663 400 q 538 528 633 493 q 451 542 497 542 q 228 446 324 542 q 147 296 163 381 q 210 110 128 183 q 378 51 276 51 q 558 103 458 51 q 593 122 578 113 l 613 76 q 411 3 531 18 q 368 0 389 0 q 140 100 218 0 q 96 296 76 183 q 242 518 119 431 q 461 593 343 593 q 650 521 571 593 q 671 524 665 510 z "},"d":{"ha":833,"x_min":43,"x_max":774,"o":"m 731 0 l 568 0 l 592 132 q 353 1 493 21 q 308 -1 331 -1 q 94 96 169 -1 q 49 296 28 181 q 194 519 72 431 q 413 593 294 593 q 625 496 550 593 q 649 460 639 479 l 711 818 l 482 776 l 490 824 l 774 878 l 626 47 l 739 47 l 731 0 m 621 296 q 557 488 642 414 q 404 542 494 542 q 181 446 276 542 q 100 296 115 381 q 160 107 79 181 q 317 50 222 50 q 533 139 439 50 q 621 296 606 207 z "},"e":{"ha":833,"x_min":90,"x_max":726,"o":"m 672 343 q 579 507 668 450 q 451 542 524 542 q 229 446 324 542 q 161 343 183 400 l 672 343 m 721 296 l 147 296 q 210 110 128 183 q 372 51 275 51 q 600 119 485 51 q 614 128 607 124 l 640 89 q 403 1 539 15 q 363 0 382 0 q 147 94 226 0 q 96 296 75 179 q 242 518 119 431 q 461 593 343 593 q 676 496 601 593 q 721 296 742 413 z "},"f":{"ha":833,"x_min":78,"x_max":736,"o":"m 188 47 l 275 544 l 174 544 l 182 592 l 282 592 l 301 701 q 415 842 317 786 q 542 878 481 878 q 735 810 653 878 l 697 768 q 532 826 628 826 q 394 768 457 826 q 353 701 360 736 l 333 592 l 681 592 l 672 544 l 325 544 l 238 47 l 469 47 l 461 0 l 78 0 l 86 47 l 188 47 z "},"g":{"ha":833,"x_min":39,"x_max":875,"o":"m 440 542 q 218 446 313 542 q 136 296 151 381 q 196 107 117 181 q 353 50 258 50 q 576 146 481 50 q 657 296 643 211 q 597 485 678 411 q 440 542 535 542 m 875 592 l 867 544 l 753 544 l 649 -43 q 517 -204 633 -131 q 293 -274 404 -274 q 39 -193 163 -274 l 69 -147 q 228 -214 125 -190 q 301 -222 268 -222 q 501 -154 397 -222 q 597 -43 588 -99 l 629 133 q 399 3 535 25 q 346 -1 372 -1 q 131 96 207 -1 q 85 296 65 181 q 231 519 108 431 q 449 593 332 593 q 663 494 588 593 q 686 458 676 478 l 710 592 l 875 592 z "},"h":{"ha":833,"x_min":-47,"x_max":732,"o":"m 218 522 q 376 594 338 582 q 476 611 431 611 q 640 535 576 611 q 676 411 689 475 l 613 49 l 731 49 l 722 0 l 433 0 l 442 49 l 563 49 l 626 411 q 582 511 636 460 q 467 560 532 560 q 206 461 375 560 l 132 49 l 250 49 l 242 0 l -47 0 l -39 49 l 82 49 l 218 819 l 92 789 l 100 836 l 281 878 l 218 522 z "},"i":{"ha":833,"x_min":90,"x_max":650,"o":"m 494 811 l 469 676 l 367 676 l 392 811 l 494 811 m 446 544 l 188 544 l 196 592 l 506 592 l 408 47 l 649 47 l 640 0 l 90 0 l 99 47 l 357 47 l 446 544 z "},"j":{"ha":833,"x_min":14,"x_max":531,"o":"m 496 810 l 471 675 l 368 675 l 393 810 l 496 810 m 44 -186 q 172 -222 85 -217 q 190 -222 181 -222 q 321 -140 260 -222 q 367 -43 358 -92 l 471 544 l 289 544 l 297 592 l 531 592 l 418 -43 q 331 -201 404 -128 q 181 -274 260 -274 q 14 -232 69 -274 l 44 -186 z "},"k":{"ha":833,"x_min":-1,"x_max":714,"o":"m 417 47 l 465 47 l 290 322 l 239 285 l 189 0 l -1 0 l 7 47 l 146 47 l 281 813 l 133 763 l 142 810 l 344 878 l 251 353 l 514 544 l 468 544 l 476 592 l 713 592 l 704 544 l 593 544 l 335 356 l 532 47 l 663 47 l 654 0 l 408 0 l 417 47 z "},"l":{"ha":833,"x_min":50,"x_max":638,"o":"m 421 818 l 185 763 l 193 810 l 483 878 l 336 47 l 636 47 l 628 0 l 50 0 l 58 47 l 285 47 l 421 818 z "},"m":{"ha":833,"x_min":-54,"x_max":789,"o":"m 472 518 q 613 607 535 581 q 636 611 628 611 q 744 493 747 611 q 733 411 743 464 l 669 49 l 788 49 l 779 0 l 608 0 l 681 411 q 686 525 696 497 q 628 560 674 560 q 471 463 575 560 l 397 49 l 515 49 l 507 0 l 338 0 l 410 411 q 356 560 436 560 q 203 465 301 560 q 199 461 201 464 l 125 49 l 243 49 l 235 0 l -54 0 l -46 49 l 75 49 l 163 544 l 42 544 l 50 592 l 221 592 l 210 522 q 324 600 239 565 q 365 611 351 611 q 472 518 464 611 z "},"n":{"ha":833,"x_min":-24,"x_max":756,"o":"m 240 522 q 299 551 290 547 q 500 611 421 611 q 657 538 593 611 q 700 411 713 476 l 636 47 l 754 47 l 746 0 l 457 0 l 465 47 l 586 47 l 650 411 q 606 511 660 460 q 490 560 554 560 q 229 461 397 560 l 156 47 l 274 47 l 265 0 l -24 0 l -15 47 l 106 47 l 193 544 l 72 544 l 81 592 l 253 592 q 240 522 246 574 z "},"o":{"ha":833,"x_min":99,"x_max":735,"o":"m 469 593 q 683 496 607 593 q 729 296 750 411 q 583 74 706 161 q 364 -1 482 -1 q 150 96 226 -1 q 104 296 83 181 q 250 518 128 431 q 469 593 351 593 m 460 542 q 239 447 335 542 q 156 296 171 381 q 215 107 135 181 q 374 50 278 50 q 600 146 507 50 q 678 296 663 210 q 613 492 700 419 q 460 542 551 542 z "},"p":{"ha":833,"x_min":-19,"x_max":815,"o":"m 456 50 q 676 144 581 50 q 760 296 744 211 q 700 485 779 411 q 543 542 638 542 q 326 453 421 542 q 239 296 254 386 q 303 100 217 172 q 456 50 364 50 m 99 -203 l 232 544 l 119 544 l 128 592 l 290 592 l 268 460 q 507 590 367 571 q 551 593 529 593 q 765 496 689 593 q 811 296 831 411 q 665 72 788 161 q 447 -1 564 -1 q 231 99 308 -1 q 210 132 219 114 l 150 -203 l 321 -203 l 313 -250 l -19 -250 l -11 -203 l 99 -203 z "},"q":{"ha":833,"x_min":61,"x_max":854,"o":"m 336 50 q 558 144 465 50 q 639 296 624 208 q 572 490 660 417 q 421 542 510 542 q 200 447 294 542 q 118 296 133 381 q 178 108 97 183 q 336 50 240 50 m 601 -203 l 711 -203 l 703 -250 l 371 -250 l 379 -203 l 550 -203 l 610 132 q 367 1 510 18 q 325 -1 346 -1 q 113 96 188 -1 q 67 296 46 181 q 211 518 90 431 q 432 593 313 593 q 644 494 568 593 q 668 460 658 478 l 690 592 l 853 592 l 844 544 l 732 544 l 601 -203 z "},"r":{"ha":833,"x_min":22,"x_max":726,"o":"m 676 504 q 603 547 664 525 q 547 560 571 560 q 303 476 457 560 q 276 461 289 468 l 203 49 l 321 49 l 313 0 l 22 0 l 31 49 l 151 49 l 239 544 l 118 544 l 126 592 l 299 592 l 288 522 q 346 551 340 549 q 556 611 464 611 q 710 554 643 611 q 725 538 718 546 l 676 504 z "},"s":{"ha":833,"x_min":117,"x_max":694,"o":"m 693 600 q 665 532 671 567 q 683 446 654 476 l 636 446 q 554 528 617 496 q 468 549 513 549 q 269 486 318 549 q 253 451 257 471 q 336 347 240 381 q 476 311 347 343 q 631 224 604 279 q 638 156 644 194 q 504 19 621 67 q 361 -7 436 -7 q 211 39 274 -7 q 194 32 201 47 l 165 -17 l 118 -17 l 146 29 q 168 83 163 57 q 154 153 172 110 q 149 161 151 158 l 196 161 q 210 131 196 161 q 343 46 249 57 q 371 44 357 44 q 561 107 504 44 q 586 156 581 129 q 506 251 597 221 l 315 300 q 199 424 199 339 q 201 451 199 438 q 346 581 218 540 q 476 600 410 600 q 610 563 547 600 q 626 563 624 553 q 646 600 635 588 l 693 600 z "},"t":{"ha":833,"x_min":103,"x_max":699,"o":"m 113 592 l 221 592 l 253 775 l 304 775 l 272 592 l 622 592 l 614 544 l 264 544 l 201 196 q 256 68 189 122 q 378 25 307 25 q 665 185 478 25 l 699 151 q 446 -11 567 31 q 368 -26 403 -26 q 196 49 263 -26 q 151 196 138 114 l 214 544 l 104 544 l 113 592 z "},"u":{"ha":833,"x_min":75,"x_max":758,"o":"m 592 71 q 532 42 540 46 q 331 -18 410 -18 q 174 56 239 -18 q 131 182 118 117 l 194 544 l 76 544 l 85 592 l 254 592 l 181 182 q 225 82 172 133 q 340 33 276 33 q 601 132 433 33 l 675 544 l 557 544 l 565 592 l 735 592 l 639 49 l 758 49 l 750 0 l 579 0 l 592 71 z "},"v":{"ha":833,"x_min":58,"x_max":874,"o":"m 865 544 l 760 544 l 382 -18 l 343 -18 l 165 544 l 60 544 l 68 592 l 333 592 l 325 544 l 222 544 l 376 58 l 703 544 l 600 544 l 608 592 l 874 592 l 865 544 z "},"w":{"ha":833,"x_min":46,"x_max":889,"o":"m 153 544 l 217 78 l 428 451 l 467 451 l 544 78 l 775 544 l 601 544 l 610 592 l 889 592 l 881 544 l 829 544 l 546 -33 l 513 -33 l 431 358 l 210 -33 l 176 -33 l 99 544 l 47 544 l 56 592 l 335 592 l 326 544 l 153 544 z "},"x":{"ha":833,"x_min":-35,"x_max":868,"o":"m 186 0 l -35 0 l -26 47 l 53 47 l 378 294 l 138 544 l 63 544 l 71 592 l 292 592 l 283 544 l 215 544 l 422 329 l 707 544 l 639 544 l 647 592 l 868 592 l 860 544 l 785 544 l 456 294 l 692 47 l 771 47 l 763 0 l 542 0 l 550 47 l 614 47 l 410 260 l 131 47 l 194 47 l 186 0 z "},"y":{"ha":833,"x_min":-74,"x_max":893,"o":"m 322 -233 l -72 -233 l -64 -186 l 232 -186 l 356 0 l 183 544 l 78 544 l 86 592 l 351 592 l 343 544 l 240 544 l 396 58 l 721 544 l 618 544 l 626 592 l 892 592 l 883 544 l 778 544 l 289 -186 l 331 -186 l 322 -233 z "},"z":{"ha":833,"x_min":85,"x_max":746,"o":"m 738 544 l 165 47 l 626 47 l 636 97 l 683 97 l 665 0 l 85 0 l 93 47 l 665 544 l 207 544 l 197 494 l 150 494 l 168 592 l 746 592 l 738 544 z "},"{":{"ha":833,"x_min":197,"x_max":613,"o":"m 288 340 q 332 228 338 301 q 331 215 332 221 l 297 26 q 358 -106 279 -76 q 414 -114 383 -114 l 442 -114 l 433 -167 l 406 -167 q 256 -79 290 -167 q 247 26 238 -33 l 281 215 q 251 297 290 267 q 199 314 231 314 l 207 365 q 311 431 275 365 q 324 465 321 449 l 357 654 q 475 821 378 769 q 583 847 525 847 l 611 847 l 603 796 l 575 796 q 425 704 468 796 q 410 654 414 681 l 376 465 q 307 354 365 401 q 288 340 297 346 z "},"|":{"ha":833,"x_min":303,"x_max":531,"o":"m 529 781 l 357 -199 l 304 -199 l 476 781 l 529 781 z "},"}":{"ha":833,"x_min":119,"x_max":535,"o":"m 444 340 q 400 453 394 379 q 401 465 400 460 l 435 654 q 375 786 453 756 q 318 796 350 796 l 290 796 l 299 847 l 326 847 q 478 760 443 847 q 486 654 496 714 l 453 465 q 482 382 443 413 q 533 365 503 365 l 525 314 q 421 250 457 314 q 408 215 411 232 l 375 26 q 256 -142 354 -90 q 149 -167 207 -167 l 121 -167 l 129 -114 l 157 -114 q 307 -25 264 -114 q 324 26 319 -1 l 357 215 q 429 329 369 283 q 444 340 436 335 z "},"~":{"ha":833,"x_min":54,"x_max":779,"o":"m 56 350 q 200 436 146 421 q 261 444 229 444 q 415 381 342 444 q 492 317 478 326 q 581 292 533 292 q 736 361 646 292 q 754 375 742 365 l 778 339 q 626 251 682 267 q 572 244 600 244 q 417 308 492 244 q 340 371 354 363 q 253 397 300 397 q 106 335 188 397 q 79 314 100 331 l 56 350 z "}," ":{"ha":833,"x_min":0,"x_max":0,"o":""},"¡":{"ha":833,"x_min":253,"x_max":526,"o":"m 254 -25 l 379 606 l 431 606 l 333 -25 l 254 -25 m 524 769 q 464 700 515 722 q 422 692 443 692 q 349 733 367 692 q 344 769 342 750 q 407 839 354 817 q 449 847 428 847 q 521 806 503 847 q 524 769 528 789 z "},"¢":{"ha":833,"x_min":21,"x_max":657,"o":"m 600 600 l 613 632 l 657 622 q 626 544 657 622 q 644 494 636 526 l 593 478 q 468 603 563 568 q 381 618 428 618 q 158 524 253 618 q 76 374 92 457 q 140 186 57 260 q 307 128 207 128 q 489 179 386 128 q 522 199 508 189 l 542 153 q 340 81 461 94 q 310 78 324 78 l 281 -86 l 233 -86 l 263 79 q 58 194 124 92 q 25 372 8 274 q 172 596 49 507 q 367 668 261 661 l 400 858 l 447 858 l 414 668 q 581 599 510 663 q 600 600 596 585 z "},"£":{"ha":833,"x_min":83,"x_max":775,"o":"m 122 458 l 218 458 q 208 581 199 522 q 369 792 233 718 q 553 839 457 839 q 724 772 653 839 q 775 718 744 753 l 735 685 q 621 779 669 761 q 544 792 589 792 q 329 711 417 792 q 256 581 269 656 q 271 458 246 525 l 579 458 l 571 411 l 288 411 q 297 285 307 342 q 199 76 279 183 q 278 86 236 86 q 378 44 325 86 q 458 6 425 7 q 585 54 531 6 q 601 69 593 61 l 632 39 q 468 -42 558 -36 q 450 -42 460 -42 q 350 0 403 -42 q 269 39 304 38 q 119 -10 176 39 l 111 -17 l 111 -17 l 85 17 l 85 17 l 92 24 q 224 203 176 97 q 250 285 243 246 q 235 411 258 339 l 114 411 l 122 458 z "},"¤":{"ha":833,"x_min":64,"x_max":776,"o":"m 468 621 q 646 550 576 621 l 749 638 l 776 603 l 674 517 q 710 329 729 436 q 604 138 690 221 l 672 56 l 633 21 l 564 104 q 365 36 474 36 q 189 106 258 36 l 92 22 l 64 54 l 161 139 q 124 328 104 221 q 226 517 142 433 l 154 603 l 193 638 l 265 550 q 468 621 357 621 m 460 569 q 253 476 342 569 q 175 329 189 411 q 232 142 154 214 q 374 88 289 88 q 581 181 492 88 q 658 328 643 246 q 601 515 678 443 q 460 569 544 569 z "},"¥":{"ha":833,"x_min":115,"x_max":821,"o":"m 379 47 l 460 47 l 451 0 l 240 0 l 249 47 l 328 47 l 363 239 l 117 239 l 125 286 l 371 286 l 388 379 l 364 421 l 149 421 l 157 468 l 338 468 l 192 733 l 143 733 l 151 781 l 347 781 l 339 733 l 256 733 l 406 468 l 456 468 l 700 733 l 617 733 l 625 781 l 821 781 l 813 733 l 764 733 l 519 468 l 703 468 l 694 421 l 476 421 l 439 379 l 422 286 l 671 286 l 663 239 l 414 239 l 379 47 z "},"¦":{"ha":833,"x_min":303,"x_max":531,"o":"m 433 232 l 357 -199 l 304 -199 l 381 232 l 433 232 m 418 446 l 476 781 l 529 781 l 471 446 l 418 446 z "},"§":{"ha":833,"x_min":106,"x_max":697,"o":"m 338 515 l 333 513 q 231 399 239 449 q 351 232 218 326 q 381 211 314 258 q 450 158 425 179 l 454 161 q 557 275 549 225 q 443 439 569 344 l 407 464 q 338 515 340 513 m 179 14 l 163 -81 l 421 -81 q 492 -40 478 -81 q 496 -22 494 -33 q 411 124 508 46 l 269 231 q 183 399 168 315 q 304 546 194 468 q 244 697 231 618 q 375 803 263 803 l 696 803 l 671 661 l 624 661 l 640 756 l 367 756 q 296 715 310 756 q 292 697 293 708 q 378 550 279 629 l 517 444 q 604 275 619 358 q 490 133 592 207 q 485 129 488 131 q 543 -22 557 53 q 413 -128 525 -128 l 107 -128 l 132 14 l 179 14 z "},"¨":{"ha":833,"x_min":178,"x_max":504,"o":"m 179 722 q 222 772 186 758 q 242 775 232 775 q 285 742 276 775 q 285 722 286 732 q 242 672 278 686 q 222 669 232 669 q 179 703 188 669 q 179 722 178 713 m 397 722 q 440 772 404 758 q 460 775 450 775 q 503 742 494 775 q 503 722 504 732 q 460 672 496 686 q 440 669 450 669 q 397 703 406 669 q 397 722 396 713 z "},"©":{"ha":833,"x_min":15,"x_max":818,"o":"m 486 769 q 746 653 650 769 q 811 376 840 539 q 640 92 782 208 q 347 -18 507 -18 q 88 99 183 -18 q 22 375 -7 213 q 193 660 51 543 q 486 769 326 769 m 478 722 q 199 607 322 722 q 69 376 93 508 q 138 121 43 224 q 356 29 221 29 q 635 144 511 29 q 764 375 740 243 q 696 631 790 528 q 478 722 613 722 m 542 215 q 379 147 468 147 q 229 231 278 147 q 207 369 193 292 q 319 544 226 478 q 456 592 383 592 q 601 515 554 592 l 560 486 q 449 544 521 544 q 301 469 363 544 q 254 369 264 424 q 300 225 238 276 q 386 194 336 194 q 513 247 457 194 l 542 215 z "},"ª":{"ha":833,"x_min":175,"x_max":617,"o":"m 576 225 l 176 225 l 185 272 l 585 272 l 576 225 m 538 600 q 386 622 457 622 q 269 567 313 622 q 249 519 253 544 q 301 433 239 461 q 365 421 329 421 q 497 472 439 421 q 519 492 507 481 l 538 600 m 539 429 l 617 429 l 611 400 l 503 400 l 511 446 q 360 389 446 389 q 235 442 275 389 q 217 519 210 475 q 313 635 231 597 q 392 653 351 653 q 543 632 457 653 l 546 646 q 500 714 553 686 q 418 733 464 733 q 279 699 367 733 l 271 726 q 325 746 271 726 q 424 764 389 764 q 558 713 515 764 q 576 646 583 682 l 539 429 z "},"«":{"ha":833,"x_min":18,"x_max":769,"o":"m 503 586 l 161 333 l 414 82 l 365 38 l 18 333 l 471 629 l 503 586 m 768 586 l 426 333 l 679 82 l 631 38 l 283 333 l 736 629 l 768 586 z "},"¬":{"ha":833,"x_min":110,"x_max":632,"o":"m 119 482 l 631 482 l 589 244 l 538 244 l 569 429 l 110 429 l 119 482 z "},"­":{"ha":833,"x_min":158,"x_max":601,"o":"m 168 403 l 600 403 l 592 351 l 160 351 l 168 403 z "},"®":{"ha":833,"x_min":15,"x_max":818,"o":"m 364 417 l 472 417 q 526 467 513 417 q 529 478 528 472 q 508 546 539 531 q 492 550 501 550 l 388 550 l 364 417 m 460 369 l 522 200 l 471 200 l 406 369 l 356 369 l 325 196 l 278 196 l 349 597 l 500 597 q 576 535 561 597 q 576 481 582 510 q 506 378 564 403 q 464 369 486 369 l 460 369 m 486 769 q 746 653 650 769 q 811 376 840 539 q 640 92 782 208 q 347 -18 507 -18 q 88 99 183 -18 q 22 375 -7 213 q 193 660 51 543 q 486 769 326 769 m 478 722 q 199 607 322 722 q 69 376 93 508 q 138 121 43 224 q 356 29 221 29 q 635 144 511 29 q 764 375 740 243 q 696 631 790 528 q 478 722 613 722 z "},"¯":{"ha":833,"x_min":94,"x_max":585,"o":"m 103 781 l 585 781 l 576 733 l 94 733 l 103 781 z "},"°":{"ha":833,"x_min":390,"x_max":754,"o":"m 603 851 q 733 781 692 851 q 750 675 761 733 q 650 531 733 583 q 542 497 597 497 q 411 568 453 497 q 394 674 383 615 q 494 818 411 765 q 603 851 547 851 m 594 804 q 471 740 521 804 q 442 675 449 710 q 483 564 429 603 q 550 544 513 544 q 674 608 624 544 q 703 674 696 639 q 661 785 715 746 q 594 804 632 804 z "},"±":{"ha":833,"x_min":65,"x_max":657,"o":"m 435 579 l 411 442 l 657 442 l 647 390 l 403 390 l 382 268 l 331 268 l 351 390 l 114 390 l 124 442 l 360 442 l 383 579 l 435 579 m 75 172 l 610 172 l 601 121 l 67 121 l 75 172 z "},"²":{"ha":833,"x_min":242,"x_max":585,"o":"m 285 704 l 290 743 q 468 871 350 871 q 575 819 547 871 q 583 760 589 794 q 482 629 569 685 q 415 592 481 629 l 338 546 q 285 469 292 514 l 278 431 l 496 431 l 508 504 l 538 504 l 519 403 l 242 403 l 254 469 q 360 594 265 538 l 476 660 q 501 679 490 669 q 553 760 544 713 q 503 833 563 814 q 458 840 483 840 q 322 735 356 840 q 315 704 318 719 l 285 704 z "},"³":{"ha":833,"x_min":239,"x_max":592,"o":"m 514 663 q 553 542 567 626 q 454 424 539 464 q 367 404 411 404 q 257 461 300 404 q 239 485 254 465 l 265 506 q 318 449 300 458 q 372 435 340 435 q 496 489 450 435 q 522 542 517 513 q 494 638 533 607 q 461 650 479 650 l 407 650 l 413 681 l 467 681 q 549 726 521 681 q 558 753 557 739 q 496 838 571 819 q 451 842 476 842 q 311 768 375 842 l 290 786 q 457 874 365 874 q 585 810 558 874 q 589 753 594 785 q 514 663 579 693 z "},"´":{"ha":833,"x_min":239,"x_max":582,"o":"m 581 913 l 304 669 l 240 669 l 451 913 l 581 913 z "},"µ":{"ha":833,"x_min":79,"x_max":751,"o":"m 114 592 l 282 592 l 206 158 q 282 42 200 71 q 353 31 313 31 q 590 151 461 31 q 601 161 596 156 l 668 544 l 550 544 l 558 592 l 728 592 l 632 47 l 750 47 l 742 0 l 572 0 l 589 92 q 358 -21 472 -12 q 343 -21 350 -21 q 186 40 233 -21 l 133 -267 l 81 -267 l 222 544 l 106 544 l 114 592 z "},"¶":{"ha":833,"x_min":114,"x_max":836,"o":"m 474 364 l 539 733 l 446 733 q 242 669 326 733 q 165 549 178 621 q 276 378 143 418 q 372 364 321 364 l 474 364 m 590 733 l 446 -82 l 217 -82 l 225 -35 l 403 -35 l 465 317 l 364 317 q 164 382 233 317 q 118 549 100 443 q 304 753 143 692 q 454 781 379 781 l 836 781 l 828 733 l 775 733 l 639 -35 l 729 -35 l 721 -82 l 581 -82 l 725 733 l 590 733 z "},"·":{"ha":833,"x_min":321,"x_max":521,"o":"m 322 344 q 386 419 331 394 q 436 431 411 431 q 515 385 494 431 q 519 344 524 365 q 456 269 511 294 q 406 258 431 258 q 326 304 347 258 q 322 344 318 324 z "},"¸":{"ha":833,"x_min":344,"x_max":607,"o":"m 490 36 l 464 -39 q 592 -79 553 -22 q 606 -147 611 -110 q 506 -251 592 -219 q 346 -267 440 -276 l 361 -219 q 539 -181 486 -236 q 553 -156 551 -168 q 489 -82 565 -86 q 436 -87 465 -82 l 400 -96 l 439 35 l 490 36 z "},"¹":{"ha":833,"x_min":231,"x_max":529,"o":"m 236 432 l 368 432 l 439 836 l 304 751 l 292 771 l 456 874 l 475 874 l 397 432 l 529 432 l 524 407 l 392 407 l 363 407 l 231 407 l 236 432 z "},"º":{"ha":833,"x_min":175,"x_max":619,"o":"m 576 225 l 176 225 l 185 272 l 585 272 l 576 225 m 461 761 q 597 690 554 761 q 615 583 626 643 q 513 439 600 493 q 399 406 458 406 q 261 476 306 406 q 242 583 232 524 q 344 726 258 674 q 461 761 400 761 m 456 731 q 310 660 368 731 q 272 583 281 625 q 319 461 260 506 q 404 436 356 436 q 549 506 490 436 q 585 583 578 542 q 539 706 599 661 q 456 731 504 731 z "},"»":{"ha":833,"x_min":57,"x_max":808,"o":"m 413 586 l 461 629 l 808 333 l 356 38 l 324 82 l 665 333 l 413 586 m 146 586 l 194 629 l 542 333 l 89 38 l 57 82 l 399 333 l 146 586 z "},"¼":{"ha":833,"x_min":35,"x_max":761,"o":"m 199 7 l 639 878 l 681 864 l 240 -7 l 199 7 m 700 460 l 424 183 l 651 183 l 700 460 m 685 183 l 761 183 l 756 149 l 679 149 l 658 32 l 742 32 l 736 0 l 536 0 l 542 32 l 625 32 l 646 149 l 368 149 l 372 176 l 719 524 l 744 524 l 685 183 m 40 429 l 172 429 l 243 832 l 110 747 l 96 768 l 258 869 l 278 869 l 200 429 l 332 429 l 328 403 l 196 403 l 168 403 l 36 403 l 40 429 z "},"½":{"ha":833,"x_min":35,"x_max":797,"o":"m 199 7 l 639 878 l 682 865 l 240 -7 l 199 7 m 40 429 l 172 429 l 243 832 l 110 747 l 96 768 l 258 869 l 278 869 l 200 429 l 332 429 l 328 403 l 196 403 l 168 403 l 36 403 l 40 429 m 496 300 l 503 339 q 678 467 561 467 q 788 413 761 467 q 794 356 800 388 q 693 225 781 281 q 628 188 692 225 l 549 143 q 496 67 504 111 l 489 28 l 707 28 l 721 101 l 750 101 l 732 0 l 454 0 l 465 67 q 572 190 478 135 l 688 256 q 714 275 701 265 q 764 356 756 308 q 713 429 774 411 q 668 436 693 436 q 535 332 568 436 q 526 300 529 317 l 496 300 z "},"¾":{"ha":833,"x_min":53,"x_max":761,"o":"m 194 7 l 635 878 l 678 865 l 236 -7 l 194 7 m 700 460 l 424 183 l 651 183 l 700 460 m 685 183 l 761 183 l 756 149 l 679 149 l 658 32 l 742 32 l 736 0 l 536 0 l 542 32 l 625 32 l 646 149 l 368 149 l 372 176 l 719 524 l 744 524 l 685 183 m 328 663 q 365 542 381 626 q 268 424 353 464 q 181 404 225 404 q 71 461 114 404 q 53 485 67 465 l 79 506 q 132 449 114 458 q 186 435 154 435 q 310 490 264 435 q 333 542 329 514 q 308 638 346 607 q 275 650 293 650 l 219 650 l 225 681 l 281 681 q 363 726 335 681 q 372 753 371 739 q 311 836 385 818 q 265 842 290 842 q 125 768 189 842 l 103 786 q 271 874 181 874 q 399 810 372 874 q 403 753 408 785 q 328 663 393 692 z "},"¿":{"ha":833,"x_min":47,"x_max":543,"o":"m 386 560 l 371 479 q 272 351 360 417 q 178 282 178 282 q 101 165 113 226 q 183 44 88 79 q 278 29 225 29 q 456 86 396 29 q 486 140 481 110 l 490 165 l 542 165 l 538 140 q 403 1 521 44 q 271 -22 340 -22 q 79 49 140 -22 q 50 165 39 96 q 174 333 67 253 l 271 407 q 319 479 314 444 l 335 560 l 386 560 m 479 700 q 415 625 471 650 q 365 614 392 614 q 288 660 307 614 q 282 700 279 679 q 347 775 292 750 q 396 786 371 786 q 475 740 456 786 q 479 700 483 721 z "},"À":{"ha":833,"x_min":-29,"x_max":733,"o":"m 208 1110 l 338 1110 l 465 867 l 400 867 l 208 1110 m 314 393 l 525 393 l 478 724 l 314 393 m 440 47 l 574 47 l 531 342 l 292 342 l 143 47 l 275 47 l 267 0 l -29 0 l -21 47 l 89 47 l 431 733 l 231 733 l 239 781 l 526 781 l 628 47 l 732 47 l 724 0 l 432 0 l 440 47 z "},"Á":{"ha":833,"x_min":-29,"x_max":749,"o":"m 747 1110 l 471 867 l 407 867 l 618 1110 l 747 1110 m 314 393 l 525 393 l 478 724 l 314 393 m 440 47 l 574 47 l 531 342 l 292 342 l 143 47 l 275 47 l 267 0 l -29 0 l -21 47 l 89 47 l 431 733 l 231 733 l 239 781 l 526 781 l 628 47 l 732 47 l 724 0 l 432 0 l 440 47 z "},"Â":{"ha":833,"x_min":-29,"x_max":733,"o":"m 644 886 l 621 867 l 483 996 l 296 867 l 281 886 l 478 1054 l 507 1054 l 644 886 m 314 393 l 525 393 l 478 724 l 314 393 m 440 47 l 574 47 l 531 342 l 292 342 l 143 47 l 275 47 l 267 0 l -29 0 l -21 47 l 89 47 l 431 733 l 231 733 l 239 781 l 526 781 l 628 47 l 732 47 l 724 0 l 432 0 l 440 47 z "},"Ã":{"ha":833,"x_min":-29,"x_max":733,"o":"m 256 868 q 328 961 268 928 q 379 976 354 976 q 435 946 400 978 q 467 929 454 928 q 549 971 514 933 l 556 971 q 506 883 550 915 q 458 868 483 868 q 399 899 426 869 q 364 917 381 917 q 269 868 308 915 l 256 868 m 314 393 l 525 393 l 478 724 l 314 393 m 440 47 l 574 47 l 531 342 l 292 342 l 143 47 l 275 47 l 267 0 l -29 0 l -21 47 l 89 47 l 431 733 l 231 733 l 239 781 l 526 781 l 628 47 l 732 47 l 724 0 l 432 0 l 440 47 z "},"Ä":{"ha":833,"x_min":-29,"x_max":733,"o":"m 290 919 q 333 969 297 956 q 353 972 343 972 q 396 939 388 972 q 396 919 397 929 q 353 869 389 883 q 333 867 343 867 q 290 900 299 867 q 290 919 289 910 m 508 919 q 551 969 515 956 q 571 972 561 972 q 614 939 606 972 q 614 919 615 929 q 571 869 607 883 q 551 867 561 867 q 508 900 517 867 q 508 919 507 910 m 314 393 l 525 393 l 478 724 l 314 393 m 440 47 l 574 47 l 531 342 l 292 342 l 143 47 l 275 47 l 267 0 l -29 0 l -21 47 l 89 47 l 431 733 l 231 733 l 239 781 l 526 781 l 628 47 l 732 47 l 724 0 l 432 0 l 440 47 z "},"Å":{"ha":833,"x_min":-29,"x_max":733,"o":"m 476 1090 q 572 1032 544 1090 q 581 964 588 1001 q 501 856 568 893 q 432 838 467 838 q 336 896 364 838 q 328 964 321 926 q 407 1072 340 1035 q 476 1090 442 1090 m 468 1043 q 388 996 418 1043 q 375 964 378 981 q 406 893 367 917 q 440 885 421 885 q 521 932 490 885 q 533 964 531 947 q 503 1035 542 1011 q 468 1043 488 1043 m 314 393 l 525 393 l 478 724 l 314 393 m 440 47 l 574 47 l 531 342 l 292 342 l 143 47 l 275 47 l 267 0 l -29 0 l -21 47 l 89 47 l 431 733 l 231 733 l 239 781 l 526 781 l 628 47 l 732 47 l 724 0 l 432 0 l 440 47 z "},"Æ":{"ha":833,"x_min":-36,"x_max":854,"o":"m 433 393 l 492 724 l 318 393 l 433 393 m 704 558 l 669 360 l 622 360 l 638 446 l 494 446 l 424 47 l 676 47 l 715 168 l 763 168 l 715 0 l 364 0 l 425 342 l 292 342 l 136 47 l 268 47 l 260 0 l -36 0 l -28 47 l 82 47 l 444 733 l 224 733 l 232 781 l 854 781 l 838 621 l 790 621 l 799 733 l 546 733 l 503 493 l 646 493 l 657 558 l 704 558 z "},"Ç":{"ha":833,"x_min":113,"x_max":774,"o":"m 497 8 l 471 -67 q 599 -107 560 -50 q 613 -175 618 -137 q 513 -279 599 -247 q 353 -294 447 -304 l 368 -247 q 546 -208 493 -264 q 560 -183 558 -196 q 496 -110 572 -114 q 443 -115 472 -110 l 407 -124 l 446 7 l 497 8 m 521 783 q 683 722 633 783 q 699 722 696 713 q 726 781 708 756 l 774 781 q 738 683 746 731 q 749 592 733 658 l 700 592 q 603 713 690 674 q 511 732 560 732 q 285 619 389 732 q 172 390 196 522 q 228 126 144 229 q 392 49 292 49 q 568 110 483 49 q 601 139 586 124 l 639 110 q 443 4 561 29 q 382 -3 411 -3 q 165 117 242 -3 q 121 390 93 231 q 278 679 151 563 q 521 783 390 783 z "},"È":{"ha":833,"x_min":33,"x_max":783,"o":"m 199 1110 l 328 1110 l 456 867 l 390 867 l 199 1110 m 633 558 l 599 360 l 551 360 l 567 446 l 297 446 l 226 47 l 606 47 l 644 168 l 692 168 l 644 0 l 33 0 l 42 47 l 176 47 l 299 733 l 164 733 l 172 781 l 783 781 l 767 621 l 719 621 l 728 733 l 349 733 l 306 493 l 575 493 l 586 558 l 633 558 z "},"É":{"ha":833,"x_min":33,"x_max":783,"o":"m 731 1110 l 454 867 l 390 867 l 601 1110 l 731 1110 m 633 558 l 599 360 l 551 360 l 567 446 l 297 446 l 226 47 l 606 47 l 644 168 l 692 168 l 644 0 l 33 0 l 42 47 l 176 47 l 299 733 l 164 733 l 172 781 l 783 781 l 767 621 l 719 621 l 728 733 l 349 733 l 306 493 l 575 493 l 586 558 l 633 558 z "},"Ê":{"ha":833,"x_min":33,"x_max":783,"o":"m 635 886 l 611 867 l 474 996 l 286 867 l 271 886 l 468 1054 l 497 1054 l 635 886 m 633 558 l 599 360 l 551 360 l 567 446 l 297 446 l 226 47 l 606 47 l 644 168 l 692 168 l 644 0 l 33 0 l 42 47 l 176 47 l 299 733 l 164 733 l 172 781 l 783 781 l 767 621 l 719 621 l 728 733 l 349 733 l 306 493 l 575 493 l 586 558 l 633 558 z "},"Ë":{"ha":833,"x_min":33,"x_max":783,"o":"m 281 919 q 324 969 288 956 q 343 972 333 972 q 386 939 378 972 q 386 919 388 929 q 343 869 379 883 q 324 867 333 867 q 281 900 289 867 q 281 919 279 910 m 499 919 q 542 969 506 956 q 561 972 551 972 q 604 939 596 972 q 604 919 606 929 q 561 869 597 883 q 542 867 551 867 q 499 900 507 867 q 499 919 497 910 m 633 558 l 599 360 l 551 360 l 567 446 l 297 446 l 226 47 l 606 47 l 644 168 l 692 168 l 644 0 l 33 0 l 42 47 l 176 47 l 299 733 l 164 733 l 172 781 l 783 781 l 767 621 l 719 621 l 728 733 l 349 733 l 306 493 l 575 493 l 586 558 l 633 558 z "},"Ì":{"ha":833,"x_min":54,"x_max":779,"o":"m 208 1110 l 338 1110 l 465 867 l 400 867 l 208 1110 m 457 733 l 186 733 l 194 781 l 779 781 l 771 733 l 507 733 l 385 47 l 647 47 l 639 0 l 54 0 l 63 47 l 335 47 l 457 733 z "},"Í":{"ha":833,"x_min":54,"x_max":779,"o":"m 739 1110 l 463 867 l 399 867 l 610 1110 l 739 1110 m 457 733 l 186 733 l 194 781 l 779 781 l 771 733 l 507 733 l 385 47 l 647 47 l 639 0 l 54 0 l 63 47 l 335 47 l 457 733 z "},"Î":{"ha":833,"x_min":54,"x_max":779,"o":"m 644 886 l 621 867 l 483 996 l 296 867 l 281 886 l 478 1054 l 507 1054 l 644 886 m 457 733 l 186 733 l 194 781 l 779 781 l 771 733 l 507 733 l 385 47 l 647 47 l 639 0 l 54 0 l 63 47 l 335 47 l 457 733 z "},"Ï":{"ha":833,"x_min":54,"x_max":779,"o":"m 290 919 q 333 969 297 956 q 353 972 343 972 q 396 939 388 972 q 396 919 397 929 q 353 869 389 883 q 333 867 343 867 q 290 900 299 867 q 290 919 289 910 m 508 919 q 551 969 515 956 q 571 972 561 972 q 614 939 606 972 q 614 919 615 929 q 571 869 607 883 q 551 867 561 867 q 508 900 517 867 q 508 919 507 910 m 457 733 l 186 733 l 194 781 l 779 781 l 771 733 l 507 733 l 385 47 l 647 47 l 639 0 l 54 0 l 63 47 l 335 47 l 457 733 z "},"Ð":{"ha":833,"x_min":3,"x_max":769,"o":"m 196 47 l 421 47 q 606 164 513 47 q 714 394 692 271 q 694 600 731 496 q 543 733 649 733 l 318 733 l 265 439 l 361 439 l 353 392 l 257 392 l 196 47 m 11 47 l 144 47 l 206 392 l 114 392 l 122 439 l 214 439 l 267 733 l 133 733 l 142 781 l 551 781 q 746 622 692 781 q 763 397 782 511 q 660 154 740 269 q 413 0 553 0 l 3 0 l 11 47 z "},"Ñ":{"ha":833,"x_min":-56,"x_max":892,"o":"m 246 868 q 318 961 258 928 q 369 976 344 976 q 425 946 390 978 q 457 929 444 928 q 539 971 504 933 l 546 971 q 496 883 540 915 q 449 868 474 868 q 389 899 417 869 q 354 917 371 917 q 260 868 299 915 l 246 868 m 651 75 l 767 733 l 621 733 l 629 781 l 890 781 l 882 733 l 818 733 l 688 -10 l 636 -10 l 192 733 l 189 733 l 68 47 l 213 47 l 204 0 l -56 0 l -47 47 l 18 47 l 139 733 l 74 733 l 82 781 l 231 781 l 651 75 z "},"Ò":{"ha":833,"x_min":78,"x_max":756,"o":"m 207 1110 l 336 1110 l 464 867 l 399 867 l 207 1110 m 486 783 q 701 665 625 783 q 747 390 775 550 q 590 103 717 219 q 347 -3 478 -3 q 132 115 208 -3 q 86 390 58 231 q 243 678 117 561 q 486 783 356 783 m 476 732 q 250 619 354 732 q 138 390 161 522 q 193 126 110 229 q 357 49 257 49 q 583 161 479 49 q 696 390 672 258 q 640 654 724 551 q 476 732 576 732 z "},"Ó":{"ha":833,"x_min":78,"x_max":756,"o":"m 739 1110 l 463 867 l 399 867 l 610 1110 l 739 1110 m 486 783 q 701 665 625 783 q 747 390 775 550 q 590 103 717 219 q 347 -3 478 -3 q 132 115 208 -3 q 86 390 58 231 q 243 678 117 561 q 486 783 356 783 m 476 732 q 250 619 354 732 q 138 390 161 522 q 193 126 110 229 q 357 49 257 49 q 583 161 479 49 q 696 390 672 258 q 640 654 724 551 q 476 732 576 732 z "},"Ô":{"ha":833,"x_min":78,"x_max":756,"o":"m 643 886 l 619 867 l 482 996 l 294 867 l 279 886 l 476 1054 l 506 1054 l 643 886 m 486 783 q 701 665 625 783 q 747 390 775 550 q 590 103 717 219 q 347 -3 478 -3 q 132 115 208 -3 q 86 390 58 231 q 243 678 117 561 q 486 783 356 783 m 476 732 q 250 619 354 732 q 138 390 161 522 q 193 126 110 229 q 357 49 257 49 q 583 161 479 49 q 696 390 672 258 q 640 654 724 551 q 476 732 576 732 z "},"Õ":{"ha":833,"x_min":78,"x_max":756,"o":"m 246 868 q 318 961 258 928 q 369 976 344 976 q 425 946 390 978 q 457 929 444 928 q 539 971 504 933 l 546 971 q 496 883 540 915 q 449 868 474 868 q 389 899 417 869 q 354 917 371 917 q 260 868 299 915 l 246 868 m 486 783 q 701 665 625 783 q 747 390 775 550 q 590 103 717 219 q 347 -3 478 -3 q 132 115 208 -3 q 86 390 58 231 q 243 678 117 561 q 486 783 356 783 m 476 732 q 250 619 354 732 q 138 390 161 522 q 193 126 110 229 q 357 49 257 49 q 583 161 479 49 q 696 390 672 258 q 640 654 724 551 q 476 732 576 732 z "},"Ö":{"ha":833,"x_min":78,"x_max":756,"o":"m 289 919 q 332 969 296 956 q 351 972 342 972 q 394 939 386 972 q 394 919 396 929 q 351 869 388 883 q 332 867 342 867 q 289 900 297 867 q 289 919 288 910 m 507 919 q 550 969 514 956 q 569 972 560 972 q 613 939 604 972 q 613 919 614 929 q 569 869 606 883 q 550 867 560 867 q 507 900 515 867 q 507 919 506 910 m 486 783 q 701 665 625 783 q 747 390 775 550 q 590 103 717 219 q 347 -3 478 -3 q 132 115 208 -3 q 86 390 58 231 q 243 678 117 561 q 486 783 356 783 m 476 732 q 250 619 354 732 q 138 390 161 522 q 193 126 110 229 q 357 49 257 49 q 583 161 479 49 q 696 390 672 258 q 640 654 724 551 q 476 732 576 732 z "},"×":{"ha":833,"x_min":239,"x_max":594,"o":"m 594 496 l 450 374 l 550 251 l 511 218 l 411 340 l 267 218 l 239 251 l 383 374 l 283 496 l 322 529 l 422 407 l 567 529 l 594 496 z "},"Ø":{"ha":833,"x_min":32,"x_max":796,"o":"m 486 783 q 663 711 590 783 l 761 825 l 794 797 l 692 679 q 747 390 776 560 q 589 101 717 218 q 347 -3 476 -3 q 164 74 239 -3 l 67 -39 l 33 -11 l 138 108 q 86 390 57 225 q 243 679 117 563 q 486 783 356 783 m 201 117 q 356 49 264 49 q 582 161 479 49 q 696 390 672 258 q 654 635 721 533 l 201 117 m 476 732 q 250 619 353 732 q 138 390 160 522 q 175 151 113 250 l 625 669 q 476 732 563 732 z "},"Ù":{"ha":833,"x_min":100,"x_max":865,"o":"m 207 1110 l 336 1110 l 464 867 l 399 867 l 207 1110 m 856 733 l 757 733 l 672 249 q 571 86 657 165 q 347 -10 468 -10 q 154 94 225 -10 q 114 249 100 174 l 199 733 l 100 733 l 108 781 l 392 781 l 383 733 l 244 733 l 160 249 q 199 125 150 194 q 354 38 261 38 q 558 138 465 38 q 625 249 615 197 l 710 733 l 572 733 l 581 781 l 864 781 l 856 733 z "},"Ú":{"ha":833,"x_min":100,"x_max":865,"o":"m 739 1110 l 463 867 l 399 867 l 610 1110 l 739 1110 m 856 733 l 757 733 l 672 249 q 571 86 657 165 q 347 -10 468 -10 q 154 94 225 -10 q 114 249 100 174 l 199 733 l 100 733 l 108 781 l 392 781 l 383 733 l 244 733 l 160 249 q 199 125 150 194 q 354 38 261 38 q 558 138 465 38 q 625 249 615 197 l 710 733 l 572 733 l 581 781 l 864 781 l 856 733 z "},"Û":{"ha":833,"x_min":100,"x_max":865,"o":"m 643 886 l 619 867 l 482 996 l 294 867 l 279 886 l 476 1054 l 506 1054 l 643 886 m 856 733 l 757 733 l 672 249 q 571 86 657 165 q 347 -10 468 -10 q 154 94 225 -10 q 114 249 100 174 l 199 733 l 100 733 l 108 781 l 392 781 l 383 733 l 244 733 l 160 249 q 199 125 150 194 q 354 38 261 38 q 558 138 465 38 q 625 249 615 197 l 710 733 l 572 733 l 581 781 l 864 781 l 856 733 z "},"Ü":{"ha":833,"x_min":100,"x_max":865,"o":"m 289 919 q 332 969 296 956 q 351 972 342 972 q 394 939 386 972 q 394 919 396 929 q 351 869 388 883 q 332 867 342 867 q 289 900 297 867 q 289 919 288 910 m 507 919 q 550 969 514 956 q 569 972 560 972 q 613 939 604 972 q 613 919 614 929 q 569 869 606 883 q 550 867 560 867 q 507 900 515 867 q 507 919 506 910 m 856 733 l 757 733 l 672 249 q 571 86 657 165 q 347 -10 468 -10 q 154 94 225 -10 q 114 249 100 174 l 199 733 l 100 733 l 108 781 l 392 781 l 383 733 l 244 733 l 160 249 q 199 125 150 194 q 354 38 261 38 q 558 138 465 38 q 625 249 615 197 l 710 733 l 572 733 l 581 781 l 864 781 l 856 733 z "},"Ý":{"ha":833,"x_min":142,"x_max":821,"o":"m 739 1110 l 463 867 l 399 867 l 610 1110 l 739 1110 m 379 47 l 460 47 l 451 0 l 240 0 l 249 47 l 328 47 l 388 379 l 192 733 l 143 733 l 151 781 l 347 781 l 339 733 l 256 733 l 424 433 l 700 733 l 617 733 l 625 781 l 821 781 l 813 733 l 764 733 l 439 379 l 379 47 z "},"Þ":{"ha":833,"x_min":4,"x_max":792,"o":"m 247 326 l 525 326 q 740 467 715 326 q 632 606 763 592 q 575 608 610 608 l 297 608 l 247 326 m 13 47 l 146 47 l 268 733 l 135 733 l 143 781 l 463 781 l 453 731 l 319 731 l 307 656 l 583 656 q 792 511 790 656 q 788 467 792 490 q 581 285 760 311 q 517 279 550 279 l 239 279 l 197 47 l 331 47 l 322 0 l 4 0 l 13 47 z "},"ß":{"ha":833,"x_min":-31,"x_max":749,"o":"m 521 875 q 707 801 638 875 q 747 693 757 749 q 668 597 736 635 q 575 568 628 575 q 386 493 446 551 q 363 451 367 472 q 444 347 350 381 q 586 311 456 343 q 739 224 713 279 q 746 156 753 194 q 614 21 731 67 q 469 -7 546 -7 q 319 39 383 -7 q 304 32 311 47 q 272 -17 286 0 l 225 -17 l 254 29 q 276 83 272 57 q 261 153 281 108 q 257 161 258 158 l 306 161 q 318 131 306 161 q 453 46 357 57 q 479 44 465 44 q 669 107 613 44 q 694 156 690 129 q 614 251 707 221 l 424 300 q 308 424 308 339 q 311 451 308 438 q 551 614 332 571 q 585 619 567 617 q 683 693 672 635 q 632 788 692 746 q 510 824 582 824 q 307 774 392 824 q 246 701 253 743 l 124 0 l -29 0 l -21 47 l 81 47 l 168 544 l 67 544 l 75 592 l 176 592 l 196 701 q 381 857 215 814 q 521 875 447 875 z "},"à":{"ha":833,"x_min":36,"x_max":706,"o":"m 89 933 l 218 933 l 346 690 l 281 690 l 89 933 m 575 332 q 324 369 436 369 q 143 296 215 369 q 92 199 101 253 q 163 61 76 110 q 286 32 215 32 q 485 100 397 32 q 543 153 511 121 l 575 332 m 576 47 l 706 47 l 697 0 l 517 0 l 529 75 q 301 -19 426 -12 q 276 -19 289 -19 q 85 50 156 -19 q 40 199 25 110 q 176 379 61 314 q 332 421 251 421 q 585 385 449 421 l 589 408 q 529 514 599 467 q 375 556 465 556 q 143 496 289 556 l 132 543 q 219 575 132 543 q 385 607 324 607 q 594 536 518 607 q 640 408 653 481 l 576 47 z "},"á":{"ha":833,"x_min":36,"x_max":706,"o":"m 619 933 l 343 690 l 279 690 l 490 933 l 619 933 m 575 332 q 324 369 436 369 q 143 296 215 369 q 92 199 101 253 q 163 61 76 110 q 286 32 215 32 q 485 100 397 32 q 543 153 511 121 l 575 332 m 576 47 l 706 47 l 697 0 l 517 0 l 529 75 q 301 -19 426 -12 q 276 -19 289 -19 q 85 50 156 -19 q 40 199 25 110 q 176 379 61 314 q 332 421 251 421 q 585 385 449 421 l 589 408 q 529 514 599 467 q 375 556 465 556 q 143 496 289 556 l 132 543 q 219 575 132 543 q 385 607 324 607 q 594 536 518 607 q 640 408 653 481 l 576 47 z "},"â":{"ha":833,"x_min":36,"x_max":706,"o":"m 526 710 l 503 690 l 365 819 l 178 690 l 163 710 l 360 878 l 389 878 l 526 710 m 575 332 q 324 369 436 369 q 143 296 215 369 q 92 199 101 253 q 163 61 76 110 q 286 32 215 32 q 485 100 397 32 q 543 153 511 121 l 575 332 m 576 47 l 706 47 l 697 0 l 517 0 l 529 75 q 301 -19 426 -12 q 276 -19 289 -19 q 85 50 156 -19 q 40 199 25 110 q 176 379 61 314 q 332 421 251 421 q 585 385 449 421 l 589 408 q 529 514 599 467 q 375 556 465 556 q 143 496 289 556 l 132 543 q 219 575 132 543 q 385 607 324 607 q 594 536 518 607 q 640 408 653 481 l 576 47 z "},"ã":{"ha":833,"x_min":36,"x_max":706,"o":"m 128 692 q 200 785 140 751 q 251 800 226 800 q 307 769 272 801 q 339 753 326 751 q 421 794 386 757 l 428 794 q 378 707 422 739 q 331 692 356 692 q 271 722 299 693 q 236 740 253 740 q 142 692 181 739 l 128 692 m 575 332 q 324 369 436 369 q 143 296 215 369 q 92 199 101 253 q 163 61 76 110 q 286 32 215 32 q 485 100 397 32 q 543 153 511 121 l 575 332 m 576 47 l 706 47 l 697 0 l 517 0 l 529 75 q 301 -19 426 -12 q 276 -19 289 -19 q 85 50 156 -19 q 40 199 25 110 q 176 379 61 314 q 332 421 251 421 q 585 385 449 421 l 589 408 q 529 514 599 467 q 375 556 465 556 q 143 496 289 556 l 132 543 q 219 575 132 543 q 385 607 324 607 q 594 536 518 607 q 640 408 653 481 l 576 47 z "},"ä":{"ha":833,"x_min":36,"x_max":706,"o":"m 172 743 q 215 793 179 779 q 235 796 225 796 q 278 763 269 796 q 278 743 279 753 q 235 693 271 707 q 215 690 225 690 q 172 724 181 690 q 172 743 171 733 m 390 743 q 433 793 397 779 q 453 796 443 796 q 496 763 488 796 q 496 743 497 753 q 453 693 489 707 q 433 690 443 690 q 390 724 399 690 q 390 743 389 733 m 575 332 q 324 369 436 369 q 143 296 215 369 q 92 199 101 253 q 163 61 76 110 q 286 32 215 32 q 485 100 397 32 q 543 153 511 121 l 575 332 m 576 47 l 706 47 l 697 0 l 517 0 l 529 75 q 301 -19 426 -12 q 276 -19 289 -19 q 85 50 156 -19 q 40 199 25 110 q 176 379 61 314 q 332 421 251 421 q 585 385 449 421 l 589 408 q 529 514 599 467 q 375 556 465 556 q 143 496 289 556 l 132 543 q 219 575 132 543 q 385 607 324 607 q 594 536 518 607 q 640 408 653 481 l 576 47 z "},"å":{"ha":833,"x_min":36,"x_max":706,"o":"m 363 943 q 458 885 431 943 q 467 817 474 854 q 388 708 454 746 q 318 690 353 690 q 222 749 250 690 q 214 817 207 779 q 293 925 226 888 q 363 943 328 943 m 354 896 q 274 849 304 896 q 261 817 264 833 q 292 746 253 769 q 326 738 307 738 q 407 785 376 738 q 419 817 417 800 q 389 888 428 864 q 354 896 374 896 m 575 332 q 324 369 436 369 q 143 296 215 369 q 92 199 101 253 q 163 61 76 110 q 286 32 215 32 q 485 100 397 32 q 543 153 511 121 l 575 332 m 576 47 l 706 47 l 697 0 l 517 0 l 529 75 q 301 -19 426 -12 q 276 -19 289 -19 q 85 50 156 -19 q 40 199 25 110 q 176 379 61 314 q 332 421 251 421 q 585 385 449 421 l 589 408 q 529 514 599 467 q 375 556 465 556 q 143 496 289 556 l 132 543 q 219 575 132 543 q 385 607 324 607 q 594 536 518 607 q 640 408 653 481 l 576 47 z "},"æ":{"ha":833,"x_min":4,"x_max":819,"o":"m 761 343 q 738 508 774 468 q 644 542 708 542 q 463 371 513 542 q 454 343 458 357 l 761 343 m 401 332 l 317 360 q 236 369 279 369 q 92 267 140 369 q 71 199 76 235 q 110 64 56 113 q 197 32 143 32 q 319 96 258 32 q 369 153 333 111 l 401 332 m 399 110 q 306 18 331 35 q 188 -19 256 -19 q 19 74 60 -19 q 10 199 -3 125 q 149 401 36 350 q 244 421 193 421 q 379 394 304 421 q 411 385 397 389 l 415 408 q 286 556 440 556 q 131 507 217 556 q 113 497 122 503 l 101 544 q 236 599 144 576 q 296 607 272 607 q 467 492 446 607 q 654 593 536 593 q 819 436 810 593 q 807 296 822 379 l 446 296 q 521 60 411 97 q 572 51 543 51 q 703 108 643 51 q 729 135 661 68 l 754 96 q 564 0 660 1 q 399 110 432 0 z "},"ç":{"ha":833,"x_min":90,"x_max":728,"o":"m 469 11 l 443 -64 q 571 -104 532 -47 q 585 -172 590 -135 q 485 -276 571 -244 q 325 -292 419 -301 l 340 -244 q 518 -206 465 -261 q 532 -181 531 -193 q 468 -107 544 -111 q 415 -112 444 -107 l 379 -121 l 418 10 l 469 11 m 671 524 l 683 554 l 726 544 q 697 467 726 544 q 714 417 707 449 l 663 400 q 538 528 633 493 q 451 542 497 542 q 228 446 324 542 q 147 296 163 381 q 210 110 128 183 q 378 51 276 51 q 558 103 458 51 q 593 122 578 113 l 613 76 q 411 3 531 18 q 368 0 389 0 q 140 100 218 0 q 96 296 76 183 q 242 518 119 431 q 461 593 343 593 q 650 521 571 593 q 671 524 665 510 z "},"è":{"ha":833,"x_min":90,"x_max":726,"o":"m 165 919 l 294 919 l 422 676 l 357 676 l 165 919 m 672 343 q 579 507 668 450 q 451 542 524 542 q 229 446 324 542 q 161 343 183 400 l 672 343 m 721 296 l 147 296 q 210 110 128 183 q 372 51 275 51 q 600 119 485 51 q 614 128 607 124 l 640 89 q 403 1 539 15 q 363 0 382 0 q 147 94 226 0 q 96 296 75 179 q 242 518 119 431 q 461 593 343 593 q 676 496 601 593 q 721 296 742 413 z "},"é":{"ha":833,"x_min":90,"x_max":726,"o":"m 696 919 l 419 676 l 356 676 l 567 919 l 696 919 m 672 343 q 579 507 668 450 q 451 542 524 542 q 229 446 324 542 q 161 343 183 400 l 672 343 m 721 296 l 147 296 q 210 110 128 183 q 372 51 275 51 q 600 119 485 51 q 614 128 607 124 l 640 89 q 403 1 539 15 q 363 0 382 0 q 147 94 226 0 q 96 296 75 179 q 242 518 119 431 q 461 593 343 593 q 676 496 601 593 q 721 296 742 413 z "},"ê":{"ha":833,"x_min":90,"x_max":726,"o":"m 601 696 l 578 676 l 440 806 l 253 676 l 238 696 l 435 864 l 464 864 l 601 696 m 672 343 q 579 507 668 450 q 451 542 524 542 q 229 446 324 542 q 161 343 183 400 l 672 343 m 721 296 l 147 296 q 210 110 128 183 q 372 51 275 51 q 600 119 485 51 q 614 128 607 124 l 640 89 q 403 1 539 15 q 363 0 382 0 q 147 94 226 0 q 96 296 75 179 q 242 518 119 431 q 461 593 343 593 q 676 496 601 593 q 721 296 742 413 z "},"ë":{"ha":833,"x_min":90,"x_max":726,"o":"m 247 729 q 290 779 254 765 q 310 782 300 782 q 353 749 344 782 q 353 729 354 739 q 310 679 346 693 q 290 676 300 676 q 247 710 256 676 q 247 729 246 719 m 465 729 q 508 779 472 765 q 528 782 518 782 q 571 749 563 782 q 571 729 572 739 q 528 679 564 693 q 508 676 518 676 q 465 710 474 676 q 465 729 464 719 m 672 343 q 579 507 668 450 q 451 542 524 542 q 229 446 324 542 q 161 343 183 400 l 672 343 m 721 296 l 147 296 q 210 110 128 183 q 372 51 275 51 q 600 119 485 51 q 614 128 607 124 l 640 89 q 403 1 539 15 q 363 0 382 0 q 147 94 226 0 q 96 296 75 179 q 242 518 119 431 q 461 593 343 593 q 676 496 601 593 q 721 296 742 413 z "},"ì":{"ha":833,"x_min":90,"x_max":650,"o":"m 183 919 l 313 919 l 440 676 l 375 676 l 183 919 m 446 544 l 188 544 l 196 592 l 506 592 l 408 47 l 649 47 l 640 0 l 90 0 l 99 47 l 357 47 l 446 544 z "},"í":{"ha":833,"x_min":90,"x_max":717,"o":"m 714 919 l 438 676 l 374 676 l 585 919 l 714 919 m 446 544 l 188 544 l 196 592 l 506 592 l 408 47 l 649 47 l 640 0 l 90 0 l 99 47 l 357 47 l 446 544 z "},"î":{"ha":833,"x_min":90,"x_max":650,"o":"m 619 696 l 596 676 l 458 806 l 271 676 l 256 696 l 453 864 l 482 864 l 619 696 m 446 544 l 188 544 l 196 592 l 506 592 l 408 47 l 649 47 l 640 0 l 90 0 l 99 47 l 357 47 l 446 544 z "},"ï":{"ha":833,"x_min":90,"x_max":650,"o":"m 265 729 q 308 779 272 765 q 328 782 318 782 q 371 749 363 782 q 371 729 372 739 q 328 679 364 693 q 308 676 318 676 q 265 710 274 676 q 265 729 264 719 m 483 729 q 526 779 490 765 q 546 782 536 782 q 589 749 581 782 q 589 729 590 739 q 546 679 582 693 q 526 676 536 676 q 483 710 492 676 q 483 729 482 719 m 446 544 l 188 544 l 196 592 l 506 592 l 408 47 l 649 47 l 640 0 l 90 0 l 99 47 l 357 47 l 446 544 z "},"ð":{"ha":833,"x_min":67,"x_max":704,"o":"m 428 542 q 204 446 299 542 q 122 296 138 381 q 183 107 103 181 q 340 50 246 50 q 564 146 469 50 q 644 296 631 211 q 585 485 665 411 q 428 542 522 542 m 625 522 q 497 736 585 646 l 371 663 l 353 701 l 464 768 q 375 819 418 806 l 400 869 q 515 797 457 849 l 635 868 l 653 829 l 547 767 q 697 460 668 636 q 697 299 711 376 l 696 296 q 551 74 672 161 q 332 -1 450 -1 q 118 96 193 -1 q 71 296 51 181 q 217 518 94 431 q 436 593 318 593 q 625 522 549 593 z "},"ñ":{"ha":833,"x_min":-24,"x_max":756,"o":"m 214 696 q 286 789 226 756 q 338 804 313 804 q 393 774 358 806 q 425 757 413 756 q 507 799 472 761 l 514 799 q 464 711 508 743 q 417 696 442 696 q 357 726 385 697 q 322 744 339 744 q 228 696 267 743 l 214 696 m 240 522 q 299 551 290 547 q 500 611 421 611 q 657 538 593 611 q 700 411 713 476 l 636 47 l 754 47 l 746 0 l 457 0 l 465 47 l 586 47 l 650 411 q 606 511 660 460 q 490 560 554 560 q 229 461 397 560 l 156 47 l 274 47 l 265 0 l -24 0 l -15 47 l 106 47 l 193 544 l 72 544 l 81 592 l 253 592 q 240 522 246 574 z "},"ò":{"ha":833,"x_min":99,"x_max":735,"o":"m 174 919 l 303 919 l 431 676 l 365 676 l 174 919 m 469 593 q 683 496 607 593 q 729 296 750 411 q 583 74 706 161 q 364 -1 482 -1 q 150 96 226 -1 q 104 296 83 181 q 250 518 128 431 q 469 593 351 593 m 460 542 q 239 447 335 542 q 156 296 171 381 q 215 107 135 181 q 374 50 278 50 q 600 146 507 50 q 678 296 663 210 q 613 492 700 419 q 460 542 551 542 z "},"ó":{"ha":833,"x_min":99,"x_max":735,"o":"m 704 919 l 428 676 l 364 676 l 575 919 l 704 919 m 469 593 q 683 496 607 593 q 729 296 750 411 q 583 74 706 161 q 364 -1 482 -1 q 150 96 226 -1 q 104 296 83 181 q 250 518 128 431 q 469 593 351 593 m 460 542 q 239 447 335 542 q 156 296 171 381 q 215 107 135 181 q 374 50 278 50 q 600 146 507 50 q 678 296 663 210 q 613 492 700 419 q 460 542 551 542 z "},"ô":{"ha":833,"x_min":99,"x_max":735,"o":"m 610 696 l 586 676 l 449 806 l 261 676 l 246 696 l 443 864 l 472 864 l 610 696 m 469 593 q 683 496 607 593 q 729 296 750 411 q 583 74 706 161 q 364 -1 482 -1 q 150 96 226 -1 q 104 296 83 181 q 250 518 128 431 q 469 593 351 593 m 460 542 q 239 447 335 542 q 156 296 171 381 q 215 107 135 181 q 374 50 278 50 q 600 146 507 50 q 678 296 663 210 q 613 492 700 419 q 460 542 551 542 z "},"õ":{"ha":833,"x_min":99,"x_max":735,"o":"m 213 678 q 285 771 225 738 q 336 786 311 786 q 392 756 357 788 q 424 739 411 738 q 506 781 471 743 l 513 781 q 463 693 507 725 q 415 678 440 678 q 356 708 383 679 q 321 726 338 726 q 226 678 265 725 l 213 678 m 469 593 q 683 496 607 593 q 729 296 750 411 q 583 74 706 161 q 364 -1 482 -1 q 150 96 226 -1 q 104 296 83 181 q 250 518 128 431 q 469 593 351 593 m 460 542 q 239 447 335 542 q 156 296 171 381 q 215 107 135 181 q 374 50 278 50 q 600 146 507 50 q 678 296 663 210 q 613 492 700 419 q 460 542 551 542 z "},"ö":{"ha":833,"x_min":99,"x_max":735,"o":"m 256 729 q 299 779 263 765 q 318 782 308 782 q 361 749 353 782 q 361 729 363 739 q 318 679 354 693 q 299 676 308 676 q 256 710 264 676 q 256 729 254 719 m 474 729 q 517 779 481 765 q 536 782 526 782 q 579 749 571 782 q 579 729 581 739 q 536 679 572 693 q 517 676 526 676 q 474 710 482 676 q 474 729 472 719 m 469 593 q 683 496 607 593 q 729 296 750 411 q 583 74 706 161 q 364 -1 482 -1 q 150 96 226 -1 q 104 296 83 181 q 250 518 128 431 q 469 593 351 593 m 460 542 q 239 447 335 542 q 156 296 171 381 q 215 107 135 181 q 374 50 278 50 q 600 146 507 50 q 678 296 663 210 q 613 492 700 419 q 460 542 551 542 z "},"÷":{"ha":833,"x_min":101,"x_max":647,"o":"m 360 514 q 394 551 365 542 q 406 553 400 553 q 438 526 433 553 q 438 514 439 521 q 404 476 433 486 q 393 475 399 475 q 361 501 365 475 q 360 514 360 507 m 313 239 q 346 276 317 267 q 357 278 351 278 q 389 251 385 278 q 390 239 390 246 q 356 201 385 211 q 344 200 350 200 q 313 226 317 200 q 313 239 311 232 m 111 403 l 646 403 l 638 351 l 103 351 l 111 403 z "},"ø":{"ha":833,"x_min":60,"x_max":767,"o":"m 469 593 q 638 539 565 593 l 736 632 l 767 601 l 669 510 q 729 296 751 422 q 583 74 706 161 q 364 -1 482 -1 q 190 56 264 -1 l 90 -40 l 60 -10 l 160 85 q 104 296 82 174 q 250 518 128 431 q 469 593 351 593 m 232 94 q 374 50 292 50 q 597 146 501 50 q 678 296 663 211 q 629 471 696 399 l 232 94 m 460 542 q 236 446 332 542 q 156 296 171 381 q 200 124 138 196 l 597 500 q 460 542 539 542 z "},"ù":{"ha":833,"x_min":75,"x_max":758,"o":"m 113 919 l 242 919 l 369 676 l 304 676 l 113 919 m 592 71 q 532 42 540 46 q 331 -18 410 -18 q 174 56 239 -18 q 131 182 118 117 l 194 544 l 76 544 l 85 592 l 254 592 l 181 182 q 225 82 172 133 q 340 33 276 33 q 601 132 433 33 l 675 544 l 557 544 l 565 592 l 735 592 l 639 49 l 758 49 l 750 0 l 579 0 l 592 71 z "},"ú":{"ha":833,"x_min":75,"x_max":758,"o":"m 643 919 l 367 676 l 303 676 l 514 919 l 643 919 m 592 71 q 532 42 540 46 q 331 -18 410 -18 q 174 56 239 -18 q 131 182 118 117 l 194 544 l 76 544 l 85 592 l 254 592 l 181 182 q 225 82 172 133 q 340 33 276 33 q 601 132 433 33 l 675 544 l 557 544 l 565 592 l 735 592 l 639 49 l 758 49 l 750 0 l 579 0 l 592 71 z "},"û":{"ha":833,"x_min":75,"x_max":758,"o":"m 550 696 l 526 676 l 389 806 l 201 676 l 186 696 l 383 864 l 413 864 l 550 696 m 592 71 q 532 42 540 46 q 331 -18 410 -18 q 174 56 239 -18 q 131 182 118 117 l 194 544 l 76 544 l 85 592 l 254 592 l 181 182 q 225 82 172 133 q 340 33 276 33 q 601 132 433 33 l 675 544 l 557 544 l 565 592 l 735 592 l 639 49 l 758 49 l 750 0 l 579 0 l 592 71 z "},"ü":{"ha":833,"x_min":75,"x_max":758,"o":"m 194 729 q 238 779 201 765 q 257 782 247 782 q 300 749 292 782 q 300 729 301 739 q 257 679 293 693 q 238 676 247 676 q 194 710 203 676 q 194 729 193 719 m 413 729 q 456 779 419 765 q 475 782 465 782 q 518 749 510 782 q 518 729 519 739 q 475 679 511 693 q 456 676 465 676 q 413 710 421 676 q 413 729 411 719 m 592 71 q 532 42 540 46 q 331 -18 410 -18 q 174 56 239 -18 q 131 182 118 117 l 194 544 l 76 544 l 85 592 l 254 592 l 181 182 q 225 82 172 133 q 340 33 276 33 q 601 132 433 33 l 675 544 l 557 544 l 565 592 l 735 592 l 639 49 l 758 49 l 750 0 l 579 0 l 592 71 z "},"ý":{"ha":833,"x_min":-74,"x_max":893,"o":"m 704 919 l 428 676 l 364 676 l 575 919 l 704 919 m 322 -233 l -72 -233 l -64 -186 l 232 -186 l 356 0 l 183 544 l 78 544 l 86 592 l 351 592 l 343 544 l 240 544 l 396 58 l 721 544 l 618 544 l 626 592 l 892 592 l 883 544 l 778 544 l 289 -186 l 331 -186 l 322 -233 z "},"þ":{"ha":833,"x_min":-44,"x_max":790,"o":"m 429 50 q 651 144 556 50 q 735 296 719 211 q 675 485 754 411 q 518 542 613 542 q 300 451 394 542 q 214 296 229 385 q 278 100 192 172 q 429 50 339 50 m 74 -203 l 254 819 l 143 799 l 143 846 l 317 878 l 243 460 q 482 590 342 571 q 525 593 504 593 q 740 496 664 593 q 786 296 806 411 q 640 72 763 161 q 422 -1 539 -1 q 206 99 282 -1 q 185 132 194 114 l 125 -203 l 296 -203 l 288 -250 l -44 -250 l -36 -203 l 74 -203 z "},"ÿ":{"ha":833,"x_min":-74,"x_max":893,"o":"m 256 729 q 299 779 263 765 q 318 782 308 782 q 361 749 353 782 q 361 729 363 739 q 318 679 354 693 q 299 676 308 676 q 256 710 264 676 q 256 729 254 719 m 474 729 q 517 779 481 765 q 536 782 526 782 q 579 749 571 782 q 579 729 581 739 q 536 679 572 693 q 517 676 526 676 q 474 710 482 676 q 474 729 472 719 m 322 -233 l -72 -233 l -64 -186 l 232 -186 l 356 0 l 183 544 l 78 544 l 86 592 l 351 592 l 343 544 l 240 544 l 396 58 l 721 544 l 618 544 l 626 592 l 892 592 l 883 544 l 778 544 l 289 -186 l 331 -186 l 322 -233 z "},"Ā":{"ha":833,"x_min":-29,"x_max":733,"o":"m 201 914 l 683 914 l 675 867 l 193 867 l 201 914 m 314 393 l 525 393 l 478 724 l 314 393 m 440 47 l 574 47 l 531 342 l 292 342 l 143 47 l 275 47 l 267 0 l -29 0 l -21 47 l 89 47 l 431 733 l 231 733 l 239 781 l 526 781 l 628 47 l 732 47 l 724 0 l 432 0 l 440 47 z "},"ā":{"ha":833,"x_min":36,"x_max":706,"o":"m 86 738 l 568 738 l 560 690 l 78 690 l 86 738 m 575 332 q 324 369 436 369 q 143 296 215 369 q 92 199 101 253 q 163 61 76 110 q 286 32 215 32 q 485 100 397 32 q 543 153 511 121 l 575 332 m 576 47 l 706 47 l 697 0 l 517 0 l 529 75 q 301 -19 426 -12 q 276 -19 289 -19 q 85 50 156 -19 q 40 199 25 110 q 176 379 61 314 q 332 421 251 421 q 585 385 449 421 l 589 408 q 529 514 599 467 q 375 556 465 556 q 143 496 289 556 l 132 543 q 219 575 132 543 q 385 607 324 607 q 594 536 518 607 q 640 408 653 481 l 576 47 z "},"Ă":{"ha":833,"x_min":-29,"x_max":733,"o":"m 557 1000 q 454 879 532 914 q 392 867 424 867 q 281 935 310 867 q 269 1000 268 964 l 303 1000 q 404 939 311 939 q 524 1000 485 939 l 557 1000 m 314 393 l 525 393 l 478 724 l 314 393 m 440 47 l 574 47 l 531 342 l 292 342 l 143 47 l 275 47 l 267 0 l -29 0 l -21 47 l 89 47 l 431 733 l 231 733 l 239 781 l 526 781 l 628 47 l 732 47 l 724 0 l 432 0 l 440 47 z "},"ă":{"ha":833,"x_min":36,"x_max":706,"o":"m 438 824 q 335 703 413 738 q 272 690 304 690 q 161 758 190 690 q 150 824 149 788 l 183 824 q 285 763 192 763 q 404 824 365 763 l 438 824 m 575 332 q 324 369 436 369 q 143 296 215 369 q 92 199 101 253 q 163 61 76 110 q 286 32 215 32 q 485 100 397 32 q 543 153 511 121 l 575 332 m 576 47 l 706 47 l 697 0 l 517 0 l 529 75 q 301 -19 426 -12 q 276 -19 289 -19 q 85 50 156 -19 q 40 199 25 110 q 176 379 61 314 q 332 421 251 421 q 585 385 449 421 l 589 408 q 529 514 599 467 q 375 556 465 556 q 143 496 289 556 l 132 543 q 219 575 132 543 q 385 607 324 607 q 594 536 518 607 q 640 408 653 481 l 576 47 z "},"Ą":{"ha":833,"x_min":-29,"x_max":733,"o":"m 182 7 l 240 7 q 160 -64 185 -3 q 151 -104 153 -83 q 207 -161 150 -146 q 231 -167 218 -164 q 357 -118 303 -179 l 379 -153 q 226 -229 317 -231 q 108 -174 143 -228 q 96 -104 89 -143 q 182 7 108 -29 m 314 393 l 525 393 l 478 724 l 314 393 m 440 47 l 574 47 l 531 342 l 292 342 l 143 47 l 275 47 l 267 0 l -29 0 l -21 47 l 89 47 l 431 733 l 231 733 l 239 781 l 526 781 l 628 47 l 732 47 l 724 0 l 432 0 l 440 47 z "},"ą":{"ha":833,"x_min":36,"x_max":792,"o":"m 593 7 l 651 7 q 571 -64 596 -3 q 563 -104 564 -83 q 618 -161 561 -146 q 642 -167 629 -164 q 768 -118 714 -179 l 790 -153 q 638 -229 728 -231 q 519 -174 554 -228 q 507 -104 500 -143 q 593 7 519 -29 m 575 332 q 324 369 436 369 q 143 296 215 369 q 92 199 101 253 q 163 61 76 110 q 286 32 215 32 q 485 100 397 32 q 543 153 511 121 l 575 332 m 576 47 l 706 47 l 697 0 l 517 0 l 529 75 q 301 -19 426 -12 q 276 -19 289 -19 q 85 50 156 -19 q 40 199 25 110 q 176 379 61 314 q 332 421 251 421 q 585 385 449 421 l 589 408 q 529 514 599 467 q 375 556 465 556 q 143 496 289 556 l 132 543 q 219 575 132 543 q 385 607 324 607 q 594 536 518 607 q 640 408 653 481 l 576 47 z "},"Ć":{"ha":833,"x_min":113,"x_max":775,"o":"m 774 1110 l 497 867 l 433 867 l 644 1110 l 774 1110 m 521 783 q 683 722 633 783 q 699 722 696 713 q 726 781 708 756 l 774 781 q 738 683 746 731 q 749 592 733 658 l 700 592 q 603 713 690 674 q 511 732 560 732 q 285 619 389 732 q 172 390 196 522 q 228 126 144 229 q 392 49 292 49 q 568 110 483 49 q 601 139 586 124 l 639 110 q 443 4 561 29 q 382 -3 411 -3 q 165 117 242 -3 q 121 390 93 231 q 278 679 151 563 q 521 783 390 783 z "},"ć":{"ha":833,"x_min":90,"x_max":728,"o":"m 696 919 l 419 676 l 356 676 l 567 919 l 696 919 m 671 524 l 683 554 l 726 544 q 697 467 726 544 q 714 417 707 449 l 663 400 q 538 528 633 493 q 451 542 497 542 q 228 446 324 542 q 147 296 163 381 q 210 110 128 183 q 378 51 276 51 q 558 103 458 51 q 593 122 578 113 l 613 76 q 411 3 531 18 q 368 0 389 0 q 140 100 218 0 q 96 296 76 183 q 242 518 119 431 q 461 593 343 593 q 650 521 571 593 q 671 524 665 510 z "},"Ĉ":{"ha":833,"x_min":113,"x_max":774,"o":"m 678 886 l 654 867 l 517 996 l 329 867 l 314 886 l 511 1054 l 540 1054 l 678 886 m 521 783 q 683 722 633 783 q 699 722 696 713 q 726 781 708 756 l 774 781 q 738 683 746 731 q 749 592 733 658 l 700 592 q 603 713 690 674 q 511 732 560 732 q 285 619 389 732 q 172 390 196 522 q 228 126 144 229 q 392 49 292 49 q 568 110 483 49 q 601 139 586 124 l 639 110 q 443 4 561 29 q 382 -3 411 -3 q 165 117 242 -3 q 121 390 93 231 q 278 679 151 563 q 521 783 390 783 z "},"ĉ":{"ha":833,"x_min":90,"x_max":728,"o":"m 601 696 l 578 676 l 440 806 l 253 676 l 238 696 l 435 864 l 464 864 l 601 696 m 671 524 l 683 554 l 726 544 q 697 467 726 544 q 714 417 707 449 l 663 400 q 538 528 633 493 q 451 542 497 542 q 228 446 324 542 q 147 296 163 381 q 210 110 128 183 q 378 51 276 51 q 558 103 458 51 q 593 122 578 113 l 613 76 q 411 3 531 18 q 368 0 389 0 q 140 100 218 0 q 96 296 76 183 q 242 518 119 431 q 461 593 343 593 q 650 521 571 593 q 671 524 665 510 z "},"Ċ":{"ha":833,"x_min":113,"x_max":774,"o":"m 554 1001 l 529 867 l 426 867 l 451 1001 l 554 1001 m 521 783 q 683 722 633 783 q 699 722 696 713 q 726 781 708 756 l 774 781 q 738 683 746 731 q 749 592 733 658 l 700 592 q 603 713 690 674 q 511 732 560 732 q 285 619 389 732 q 172 390 196 522 q 228 126 144 229 q 392 49 292 49 q 568 110 483 49 q 601 139 586 124 l 639 110 q 443 4 561 29 q 382 -3 411 -3 q 165 117 242 -3 q 121 390 93 231 q 278 679 151 563 q 521 783 390 783 z "},"ċ":{"ha":833,"x_min":90,"x_max":728,"o":"m 476 811 l 451 676 l 349 676 l 374 811 l 476 811 m 671 524 l 683 554 l 726 544 q 697 467 726 544 q 714 417 707 449 l 663 400 q 538 528 633 493 q 451 542 497 542 q 228 446 324 542 q 147 296 163 381 q 210 110 128 183 q 378 51 276 51 q 558 103 458 51 q 593 122 578 113 l 613 76 q 411 3 531 18 q 368 0 389 0 q 140 100 218 0 q 96 296 76 183 q 242 518 119 431 q 461 593 343 593 q 650 521 571 593 q 671 524 665 510 z "},"Č":{"ha":833,"x_min":113,"x_max":774,"o":"m 700 1035 l 504 867 l 475 867 l 336 1035 l 360 1054 l 503 925 l 685 1054 l 700 1035 m 521 783 q 683 722 633 783 q 699 722 696 713 q 726 781 708 756 l 774 781 q 738 683 746 731 q 749 592 733 658 l 700 592 q 603 713 690 674 q 511 732 560 732 q 285 619 389 732 q 172 390 196 522 q 228 126 144 229 q 392 49 292 49 q 568 110 483 49 q 601 139 586 124 l 639 110 q 443 4 561 29 q 382 -3 411 -3 q 165 117 242 -3 q 121 390 93 231 q 278 679 151 563 q 521 783 390 783 z "},"č":{"ha":833,"x_min":90,"x_max":728,"o":"m 624 844 l 428 676 l 399 676 l 260 844 l 283 864 l 426 735 l 608 864 l 624 844 m 671 524 l 683 554 l 726 544 q 697 467 726 544 q 714 417 707 449 l 663 400 q 538 528 633 493 q 451 542 497 542 q 228 446 324 542 q 147 296 163 381 q 210 110 128 183 q 378 51 276 51 q 558 103 458 51 q 593 122 578 113 l 613 76 q 411 3 531 18 q 368 0 389 0 q 140 100 218 0 q 96 296 76 183 q 242 518 119 431 q 461 593 343 593 q 650 521 571 593 q 671 524 665 510 z "},"Ď":{"ha":833,"x_min":3,"x_max":769,"o":"m 665 1035 l 469 867 l 440 867 l 301 1035 l 325 1054 l 468 925 l 650 1054 l 665 1035 m 196 47 l 421 47 q 606 164 513 47 q 714 394 692 271 q 694 600 731 496 q 543 733 649 733 l 318 733 l 196 47 m 11 47 l 144 47 l 267 733 l 133 733 l 142 781 l 551 781 q 746 622 692 781 q 763 397 782 511 q 660 154 740 269 q 413 0 553 0 l 3 0 l 11 47 z "},"ď":{"ha":833,"x_min":43,"x_max":774,"o":"m 706 1129 l 510 961 l 481 961 l 342 1129 l 365 1149 l 508 1019 l 690 1149 l 706 1129 m 731 0 l 568 0 l 592 132 q 353 1 493 21 q 308 -1 331 -1 q 94 96 169 -1 q 49 296 28 181 q 194 519 72 431 q 413 593 294 593 q 625 496 550 593 q 649 460 639 479 l 711 818 l 482 776 l 490 824 l 774 878 l 626 47 l 739 47 l 731 0 m 621 296 q 557 488 642 414 q 404 542 494 542 q 181 446 276 542 q 100 296 115 381 q 160 107 79 181 q 317 50 222 50 q 533 139 439 50 q 621 296 606 207 z "},"Đ":{"ha":833,"x_min":3,"x_max":769,"o":"m 196 47 l 421 47 q 606 164 513 47 q 714 394 692 271 q 694 600 731 496 q 543 733 649 733 l 318 733 l 265 439 l 361 439 l 353 392 l 257 392 l 196 47 m 11 47 l 144 47 l 206 392 l 114 392 l 122 439 l 214 439 l 267 733 l 133 733 l 142 781 l 551 781 q 747 624 694 781 q 763 397 783 515 q 660 154 740 269 q 413 0 553 0 l 3 0 l 11 47 z "},"đ":{"ha":833,"x_min":43,"x_max":856,"o":"m 404 542 q 181 446 276 542 q 100 296 115 381 q 160 107 79 181 q 317 50 222 50 q 533 140 439 50 q 619 296 604 207 q 556 488 640 414 q 404 542 494 542 m 649 461 l 681 640 l 546 640 l 554 688 l 689 688 l 711 818 l 482 776 l 490 824 l 774 878 l 740 688 l 856 688 l 847 640 l 732 640 l 626 47 l 738 47 l 729 0 l 567 0 l 590 132 q 346 1 489 17 q 308 -1 328 -1 q 94 96 169 -1 q 49 296 28 181 q 194 519 72 431 q 413 593 294 593 q 631 489 556 593 q 649 461 640 476 z "},"Ē":{"ha":833,"x_min":33,"x_max":783,"o":"m 194 914 l 676 914 l 668 867 l 186 867 l 194 914 m 633 558 l 599 360 l 551 360 l 567 446 l 297 446 l 226 47 l 606 47 l 644 168 l 692 168 l 644 0 l 33 0 l 42 47 l 176 47 l 299 733 l 164 733 l 172 781 l 783 781 l 767 621 l 719 621 l 728 733 l 349 733 l 306 493 l 575 493 l 586 558 l 633 558 z "},"ē":{"ha":833,"x_min":90,"x_max":726,"o":"m 161 724 l 643 724 l 635 676 l 153 676 l 161 724 m 672 343 q 579 507 668 450 q 451 542 524 542 q 229 446 324 542 q 161 343 183 400 l 672 343 m 721 296 l 147 296 q 210 110 128 183 q 372 51 275 51 q 600 119 485 51 q 614 128 607 124 l 640 89 q 403 1 539 15 q 363 0 382 0 q 147 94 226 0 q 96 296 75 179 q 242 518 119 431 q 461 593 343 593 q 676 496 601 593 q 721 296 742 413 z "},"Ĕ":{"ha":833,"x_min":33,"x_max":783,"o":"m 546 1000 q 443 879 521 914 q 381 867 413 867 q 269 935 299 867 q 258 1000 257 964 l 292 1000 q 393 939 300 939 q 513 1000 474 939 l 546 1000 m 633 558 l 599 360 l 551 360 l 567 446 l 297 446 l 226 47 l 606 47 l 644 168 l 692 168 l 644 0 l 33 0 l 42 47 l 176 47 l 299 733 l 164 733 l 172 781 l 783 781 l 767 621 l 719 621 l 728 733 l 349 733 l 306 493 l 575 493 l 586 558 l 633 558 z "},"ĕ":{"ha":833,"x_min":90,"x_max":726,"o":"m 513 810 q 410 689 488 724 q 347 676 379 676 q 236 744 265 676 q 225 810 224 774 l 258 810 q 360 749 267 749 q 479 810 440 749 l 513 810 m 672 343 q 579 507 668 450 q 451 542 524 542 q 229 446 324 542 q 161 343 183 400 l 672 343 m 721 296 l 147 296 q 210 110 128 183 q 372 51 275 51 q 600 119 485 51 q 614 128 607 124 l 640 89 q 403 1 539 15 q 363 0 382 0 q 147 94 226 0 q 96 296 75 179 q 242 518 119 431 q 461 593 343 593 q 676 496 601 593 q 721 296 742 413 z "},"Ė":{"ha":833,"x_min":33,"x_max":783,"o":"m 511 1001 l 486 867 l 383 867 l 408 1001 l 511 1001 m 633 558 l 599 360 l 551 360 l 567 446 l 297 446 l 226 47 l 606 47 l 644 168 l 692 168 l 644 0 l 33 0 l 42 47 l 176 47 l 299 733 l 164 733 l 172 781 l 783 781 l 767 621 l 719 621 l 728 733 l 349 733 l 306 493 l 575 493 l 586 558 l 633 558 z "},"ė":{"ha":833,"x_min":90,"x_max":726,"o":"m 476 811 l 451 676 l 349 676 l 374 811 l 476 811 m 672 343 q 579 507 668 450 q 451 542 524 542 q 229 446 324 542 q 161 343 183 400 l 672 343 m 721 296 l 147 296 q 210 110 128 183 q 372 51 275 51 q 600 119 485 51 q 614 128 607 124 l 640 89 q 403 1 539 15 q 363 0 382 0 q 147 94 226 0 q 96 296 75 179 q 242 518 119 431 q 461 593 343 593 q 676 496 601 593 q 721 296 742 413 z "},"Ę":{"ha":833,"x_min":33,"x_max":783,"o":"m 254 7 l 313 7 q 232 -64 257 -3 q 224 -104 225 -83 q 279 -161 222 -146 q 303 -167 290 -164 q 429 -118 375 -179 l 451 -153 q 299 -229 389 -231 q 181 -174 215 -228 q 168 -104 161 -143 q 254 7 181 -29 m 633 558 l 599 360 l 551 360 l 567 446 l 297 446 l 226 47 l 606 47 l 644 168 l 692 168 l 644 0 l 33 0 l 42 47 l 176 47 l 299 733 l 164 733 l 172 781 l 783 781 l 767 621 l 719 621 l 728 733 l 349 733 l 306 493 l 575 493 l 586 558 l 633 558 z "},"ę":{"ha":833,"x_min":90,"x_max":726,"o":"m 407 7 l 465 7 q 385 -64 410 -3 q 376 -104 378 -83 q 432 -161 375 -146 q 456 -167 443 -164 q 582 -118 528 -179 l 604 -153 q 451 -229 542 -231 q 333 -174 368 -228 q 321 -104 314 -143 q 407 7 333 -29 m 672 343 q 579 507 668 450 q 451 542 524 542 q 229 446 324 542 q 161 343 183 400 l 672 343 m 721 296 l 147 296 q 210 110 128 183 q 372 51 275 51 q 600 119 485 51 q 614 128 607 124 l 640 89 q 403 1 539 15 q 363 0 382 0 q 147 94 226 0 q 96 296 75 179 q 242 518 119 431 q 461 593 343 593 q 676 496 601 593 q 721 296 742 413 z "},"Ě":{"ha":833,"x_min":33,"x_max":783,"o":"m 657 1035 l 461 867 l 432 867 l 293 1035 l 317 1054 l 460 925 l 642 1054 l 657 1035 m 633 558 l 599 360 l 551 360 l 567 446 l 297 446 l 226 47 l 606 47 l 644 168 l 692 168 l 644 0 l 33 0 l 42 47 l 176 47 l 299 733 l 164 733 l 172 781 l 783 781 l 767 621 l 719 621 l 728 733 l 349 733 l 306 493 l 575 493 l 586 558 l 633 558 z "},"ě":{"ha":833,"x_min":90,"x_max":726,"o":"m 624 844 l 428 676 l 399 676 l 260 844 l 283 864 l 426 735 l 608 864 l 624 844 m 672 343 q 579 507 668 450 q 451 542 524 542 q 229 446 324 542 q 161 343 183 400 l 672 343 m 721 296 l 147 296 q 210 110 128 183 q 372 51 275 51 q 600 119 485 51 q 614 128 607 124 l 640 89 q 403 1 539 15 q 363 0 382 0 q 147 94 226 0 q 96 296 75 179 q 242 518 119 431 q 461 593 343 593 q 676 496 601 593 q 721 296 742 413 z "},"Ĝ":{"ha":833,"x_min":103,"x_max":769,"o":"m 668 886 l 644 867 l 507 996 l 319 867 l 304 886 l 501 1054 l 531 1054 l 668 886 m 511 783 q 671 731 622 783 q 678 722 675 726 q 694 722 690 711 q 722 781 706 761 l 769 781 q 733 683 742 731 q 744 592 729 658 l 696 592 q 597 711 685 672 q 501 732 551 732 q 275 619 379 732 q 163 390 186 522 q 213 122 133 222 q 367 49 271 49 q 593 178 501 49 q 665 344 644 250 l 513 344 l 521 392 l 722 392 l 714 344 q 549 63 675 160 q 357 -3 463 -3 q 144 122 214 -3 q 111 390 83 235 q 268 678 142 561 q 511 783 381 783 z "},"ĝ":{"ha":833,"x_min":39,"x_max":875,"o":"m 567 696 l 543 676 l 406 806 l 218 676 l 203 696 l 400 864 l 429 864 l 567 696 m 440 542 q 218 446 313 542 q 136 296 151 381 q 196 107 117 181 q 353 50 258 50 q 576 146 481 50 q 657 296 643 211 q 597 485 678 411 q 440 542 535 542 m 875 592 l 867 544 l 753 544 l 649 -43 q 517 -204 633 -131 q 293 -274 404 -274 q 39 -193 163 -274 l 69 -147 q 228 -214 125 -190 q 301 -222 268 -222 q 501 -154 397 -222 q 597 -43 588 -99 l 629 133 q 399 3 535 25 q 346 -1 372 -1 q 131 96 207 -1 q 85 296 65 181 q 231 519 108 431 q 449 593 332 593 q 663 494 588 593 q 686 458 676 478 l 710 592 l 875 592 z "},"Ğ":{"ha":833,"x_min":103,"x_max":769,"o":"m 579 1000 q 476 879 554 914 q 414 867 446 867 q 303 935 332 867 q 292 1000 290 964 l 325 1000 q 426 939 333 939 q 546 1000 507 939 l 579 1000 m 511 783 q 671 731 622 783 q 678 722 675 726 q 694 722 690 711 q 722 781 706 761 l 769 781 q 733 683 742 731 q 744 592 729 658 l 696 592 q 597 711 685 672 q 501 732 551 732 q 275 619 379 732 q 163 390 186 522 q 213 122 133 222 q 367 49 271 49 q 593 178 501 49 q 665 344 644 250 l 513 344 l 521 392 l 722 392 l 714 344 q 549 63 675 160 q 357 -3 463 -3 q 144 122 214 -3 q 111 390 83 235 q 268 678 142 561 q 511 783 381 783 z "},"ğ":{"ha":833,"x_min":39,"x_max":875,"o":"m 478 810 q 375 689 453 724 q 313 676 344 676 q 201 744 231 676 q 190 810 189 774 l 224 810 q 325 749 232 749 q 444 810 406 749 l 478 810 m 440 542 q 218 446 313 542 q 136 296 151 381 q 196 107 117 181 q 353 50 258 50 q 576 146 481 50 q 657 296 643 211 q 597 485 678 411 q 440 542 535 542 m 875 592 l 867 544 l 753 544 l 649 -43 q 517 -204 633 -131 q 293 -274 404 -274 q 39 -193 163 -274 l 69 -147 q 228 -214 125 -190 q 301 -222 268 -222 q 501 -154 397 -222 q 597 -43 588 -99 l 629 133 q 399 3 535 25 q 346 -1 372 -1 q 131 96 207 -1 q 85 296 65 181 q 231 519 108 431 q 449 593 332 593 q 663 494 588 593 q 686 458 676 478 l 710 592 l 875 592 z "},"Ġ":{"ha":833,"x_min":103,"x_max":769,"o":"m 544 1001 l 519 867 l 417 867 l 442 1001 l 544 1001 m 511 783 q 671 731 622 783 q 678 722 675 726 q 694 722 690 711 q 722 781 706 761 l 769 781 q 733 683 742 731 q 744 592 729 658 l 696 592 q 597 711 685 672 q 501 732 551 732 q 275 619 379 732 q 163 390 186 522 q 213 122 133 222 q 367 49 271 49 q 593 178 501 49 q 665 344 644 250 l 513 344 l 521 392 l 722 392 l 714 344 q 549 63 675 160 q 357 -3 463 -3 q 144 122 214 -3 q 111 390 83 235 q 268 678 142 561 q 511 783 381 783 z "},"ġ":{"ha":833,"x_min":39,"x_max":875,"o":"m 442 811 l 417 676 l 314 676 l 339 811 l 442 811 m 440 542 q 218 446 313 542 q 136 296 151 381 q 196 107 117 181 q 353 50 258 50 q 576 146 481 50 q 657 296 643 211 q 597 485 678 411 q 440 542 535 542 m 875 592 l 867 544 l 753 544 l 649 -43 q 517 -204 633 -131 q 293 -274 404 -274 q 39 -193 163 -274 l 69 -147 q 228 -214 125 -190 q 301 -222 268 -222 q 501 -154 397 -222 q 597 -43 588 -99 l 629 133 q 399 3 535 25 q 346 -1 372 -1 q 131 96 207 -1 q 85 296 65 181 q 231 519 108 431 q 449 593 332 593 q 663 494 588 593 q 686 458 676 478 l 710 592 l 875 592 z "},"Ģ":{"ha":833,"x_min":103,"x_max":769,"o":"m 474 8 l 447 -67 q 575 -107 536 -50 q 589 -175 594 -137 q 489 -279 575 -247 q 329 -294 424 -304 l 344 -247 q 522 -208 469 -264 q 536 -183 535 -196 q 472 -110 549 -114 q 419 -115 449 -110 l 383 -124 l 422 7 l 474 8 m 511 783 q 671 731 622 783 q 678 722 675 726 q 694 722 690 711 q 722 781 706 761 l 769 781 q 733 683 742 731 q 744 592 729 658 l 696 592 q 597 711 685 672 q 501 732 551 732 q 275 619 379 732 q 163 390 186 522 q 213 122 133 222 q 367 49 271 49 q 593 178 501 49 q 665 344 644 250 l 513 344 l 521 392 l 722 392 l 714 344 q 549 63 675 160 q 357 -3 463 -3 q 144 122 214 -3 q 111 390 83 235 q 268 678 142 561 q 511 783 381 783 z "},"ģ":{"ha":833,"x_min":39,"x_max":875,"o":"m 228 676 l 469 960 l 533 960 l 357 676 l 228 676 m 440 542 q 218 446 313 542 q 136 296 151 381 q 196 107 117 181 q 353 50 258 50 q 576 146 481 50 q 657 296 643 211 q 597 485 678 411 q 440 542 535 542 m 875 592 l 867 544 l 753 544 l 649 -43 q 517 -204 633 -131 q 293 -274 404 -274 q 39 -193 163 -274 l 69 -147 q 228 -214 125 -190 q 301 -222 268 -222 q 501 -154 397 -222 q 597 -43 588 -99 l 629 133 q 399 3 535 25 q 346 -1 372 -1 q 131 96 207 -1 q 85 296 65 181 q 231 519 108 431 q 449 593 332 593 q 663 494 588 593 q 686 458 676 478 l 710 592 l 875 592 z "},"Ĥ":{"ha":833,"x_min":-26,"x_max":860,"o":"m 643 886 l 619 867 l 482 996 l 294 867 l 279 886 l 476 1054 l 506 1054 l 643 886 m 249 510 l 628 510 l 668 733 l 532 733 l 540 781 l 860 781 l 851 733 l 719 733 l 597 47 l 728 47 l 719 0 l 400 0 l 408 47 l 546 47 l 619 458 l 240 458 l 167 47 l 301 47 l 293 0 l -26 0 l -18 47 l 115 47 l 238 733 l 104 733 l 113 781 l 432 781 l 424 733 l 289 733 l 249 510 z "},"ĥ":{"ha":833,"x_min":-47,"x_max":732,"o":"m 658 981 l 635 961 l 497 1090 l 310 961 l 294 981 l 492 1149 l 521 1149 l 658 981 m 218 522 q 376 594 338 582 q 476 611 431 611 q 640 535 576 611 q 676 411 689 475 l 613 49 l 731 49 l 722 0 l 433 0 l 442 49 l 563 49 l 626 411 q 582 511 636 460 q 467 560 532 560 q 206 461 375 560 l 132 49 l 250 49 l 242 0 l -47 0 l -39 49 l 82 49 l 218 819 l 92 789 l 100 836 l 281 878 l 218 522 z "},"Ħ":{"ha":833,"x_min":-26,"x_max":860,"o":"m 646 613 l 668 733 l 532 733 l 540 781 l 860 781 l 851 733 l 719 733 l 697 613 l 804 613 l 796 565 l 689 565 l 597 47 l 728 47 l 719 0 l 400 0 l 408 47 l 546 47 l 607 393 l 228 393 l 167 47 l 301 47 l 293 0 l -26 0 l -18 47 l 115 47 l 207 564 l 117 564 l 125 611 l 215 611 l 238 733 l 104 733 l 113 781 l 432 781 l 424 733 l 289 733 l 267 613 l 646 613 m 238 444 l 617 444 l 638 565 l 258 565 l 238 444 z "},"ħ":{"ha":833,"x_min":-47,"x_max":732,"o":"m 218 522 q 393 600 339 585 q 476 611 436 611 q 640 535 576 611 q 676 411 689 475 l 613 47 l 731 47 l 722 0 l 433 0 l 442 47 l 563 47 l 626 411 q 582 511 636 460 q 467 560 532 560 q 206 461 375 560 l 132 47 l 250 47 l 242 0 l -47 0 l -39 47 l 82 47 l 192 671 l 81 671 l 89 718 l 200 718 l 218 819 l 92 788 l 100 835 l 279 878 l 250 718 l 364 718 l 356 671 l 243 671 l 218 522 z "},"Ĩ":{"ha":833,"x_min":54,"x_max":779,"o":"m 247 868 q 319 961 260 928 q 371 976 346 976 q 426 946 392 978 q 458 929 446 928 q 540 971 506 933 l 547 971 q 497 883 542 915 q 450 868 475 868 q 390 899 418 869 q 356 917 372 917 q 261 868 300 915 l 247 868 m 457 733 l 186 733 l 194 781 l 779 781 l 771 733 l 507 733 l 385 47 l 647 47 l 639 0 l 54 0 l 63 47 l 335 47 l 457 733 z "},"ĩ":{"ha":833,"x_min":90,"x_max":650,"o":"m 222 678 q 294 771 235 738 q 346 786 321 786 q 401 756 367 788 q 433 739 421 738 q 515 781 481 743 l 522 781 q 472 693 517 725 q 425 678 450 678 q 365 708 393 679 q 331 726 347 726 q 236 678 275 725 l 222 678 m 446 544 l 188 544 l 196 592 l 506 592 l 408 47 l 649 47 l 640 0 l 90 0 l 99 47 l 357 47 l 446 544 z "},"Ī":{"ha":833,"x_min":54,"x_max":779,"o":"m 203 914 l 685 914 l 676 867 l 194 867 l 203 914 m 457 733 l 186 733 l 194 781 l 779 781 l 771 733 l 507 733 l 385 47 l 647 47 l 639 0 l 54 0 l 63 47 l 335 47 l 457 733 z "},"ī":{"ha":833,"x_min":90,"x_max":663,"o":"m 179 724 l 661 724 l 653 676 l 171 676 l 179 724 m 446 544 l 188 544 l 196 592 l 506 592 l 408 47 l 649 47 l 640 0 l 90 0 l 99 47 l 357 47 l 446 544 z "},"Ĭ":{"ha":833,"x_min":54,"x_max":779,"o":"m 556 1000 q 453 879 531 914 q 390 867 422 867 q 279 935 308 867 q 268 1000 267 964 l 301 1000 q 403 939 310 939 q 522 1000 483 939 l 556 1000 m 457 733 l 186 733 l 194 781 l 779 781 l 771 733 l 507 733 l 385 47 l 647 47 l 639 0 l 54 0 l 63 47 l 335 47 l 457 733 z "},"ĭ":{"ha":833,"x_min":90,"x_max":650,"o":"m 531 810 q 428 689 506 724 q 365 676 397 676 q 254 744 283 676 q 243 810 242 774 l 276 810 q 378 749 285 749 q 497 810 458 749 l 531 810 m 446 544 l 188 544 l 196 592 l 506 592 l 408 47 l 649 47 l 640 0 l 90 0 l 99 47 l 357 47 l 446 544 z "},"Į":{"ha":833,"x_min":54,"x_max":779,"o":"m 408 7 l 467 7 q 386 -64 411 -3 q 378 -104 379 -83 q 433 -161 376 -146 q 457 -167 444 -164 q 583 -118 529 -179 l 606 -153 q 453 -229 543 -231 q 335 -174 369 -228 q 322 -104 315 -143 q 408 7 335 -29 m 457 733 l 186 733 l 194 781 l 779 781 l 771 733 l 507 733 l 385 47 l 647 47 l 639 0 l 54 0 l 63 47 l 335 47 l 457 733 z "},"į":{"ha":833,"x_min":90,"x_max":650,"o":"m 410 7 l 468 7 q 388 -64 413 -3 q 379 -104 381 -83 q 435 -161 378 -146 q 458 -167 446 -164 q 585 -118 531 -179 l 607 -153 q 454 -229 544 -231 q 336 -174 371 -228 q 324 -104 317 -143 q 410 7 336 -29 m 494 811 l 469 676 l 367 676 l 392 811 l 494 811 m 446 544 l 188 544 l 196 592 l 506 592 l 408 47 l 649 47 l 640 0 l 90 0 l 99 47 l 357 47 l 446 544 z "},"İ":{"ha":833,"x_min":54,"x_max":779,"o":"m 519 1001 l 494 867 l 392 867 l 417 1001 l 519 1001 m 457 733 l 186 733 l 194 781 l 779 781 l 771 733 l 507 733 l 385 47 l 647 47 l 639 0 l 54 0 l 63 47 l 335 47 l 457 733 z "},"ı":{"ha":833,"x_min":90,"x_max":650,"o":"m 446 544 l 188 544 l 196 592 l 506 592 l 408 47 l 649 47 l 640 0 l 90 0 l 99 47 l 357 47 l 446 544 z "},"Ĳ":{"ha":833,"x_min":-21,"x_max":967,"o":"m 244 733 l 111 733 l 119 781 l 439 781 l 431 733 l 296 733 l 175 47 l 308 47 l 300 0 l -19 0 l -11 47 l 124 47 l 244 733 m 426 315 q 406 158 404 194 q 515 50 411 50 q 661 146 614 50 q 679 199 674 172 l 774 733 l 532 733 l 540 781 l 967 781 l 958 733 l 825 733 l 731 199 q 647 51 715 110 q 506 -1 588 -1 q 361 100 396 -1 q 354 199 344 149 l 375 315 l 426 315 z "},"ĳ":{"ha":833,"x_min":38,"x_max":849,"o":"m 393 544 l 135 544 l 143 592 l 453 592 l 357 47 l 597 47 l 589 0 l 39 0 l 47 47 l 306 47 l 393 544 m 486 781 l 463 646 l 360 646 l 383 781 l 486 781 m 849 781 l 825 646 l 722 646 l 746 781 l 849 781 m 331 -186 q 458 -222 371 -217 q 476 -222 467 -222 q 607 -140 546 -222 q 653 -43 644 -92 l 757 544 l 575 544 l 583 592 l 817 592 l 704 -43 q 617 -201 690 -128 q 467 -274 546 -274 q 300 -232 357 -274 l 331 -186 z "},"Ĵ":{"ha":833,"x_min":124,"x_max":742,"o":"m 686 886 l 663 867 l 525 996 l 338 867 l 322 886 l 519 1054 l 549 1054 l 686 886 m 200 315 q 181 158 178 194 q 290 50 185 50 q 435 146 388 50 q 453 199 447 172 l 547 733 l 307 733 l 315 781 l 742 781 l 733 733 l 599 733 l 504 199 q 422 51 489 111 q 281 -1 363 -1 q 135 100 169 -1 q 128 199 118 149 l 149 315 l 200 315 z "},"ĵ":{"ha":833,"x_min":14,"x_max":622,"o":"m 621 694 l 597 675 l 460 804 l 272 675 l 257 694 l 454 863 l 483 863 l 621 694 m 44 -186 q 172 -222 85 -217 q 190 -222 181 -222 q 321 -140 260 -222 q 367 -43 358 -92 l 471 544 l 289 544 l 297 592 l 531 592 l 418 -43 q 331 -201 404 -128 q 181 -274 260 -274 q 14 -232 69 -274 l 44 -186 z "},"Ķ":{"ha":833,"x_min":-25,"x_max":796,"o":"m 232 11 l 206 -64 q 333 -104 294 -47 q 347 -172 353 -135 q 247 -276 333 -244 q 88 -292 182 -301 l 103 -244 q 281 -206 228 -261 q 294 -181 293 -193 q 231 -107 307 -111 q 178 -112 207 -107 l 142 -121 l 181 10 l 232 11 m 506 781 l 796 781 l 788 733 l 619 733 q 283 401 460 544 q 479 238 404 367 q 564 47 518 171 l 728 47 l 719 0 l 526 0 q 378 282 449 208 q 231 360 319 343 q 199 338 211 346 l 147 47 l 274 47 l 265 0 l -25 0 l -17 47 l 97 47 l 219 733 l 106 733 l 114 781 l 404 781 l 396 733 l 269 733 l 211 404 q 556 733 382 533 l 497 733 l 506 781 z "},"ķ":{"ha":833,"x_min":-1,"x_max":714,"o":"m 289 11 l 263 -64 q 390 -104 351 -47 q 404 -172 410 -135 q 304 -276 390 -244 q 144 -292 239 -301 l 160 -244 q 338 -206 285 -261 q 351 -181 350 -193 q 288 -107 364 -111 q 235 -112 264 -107 l 199 -121 l 238 10 l 289 11 m 417 47 l 465 47 l 290 322 l 239 285 l 189 0 l -1 0 l 7 47 l 146 47 l 281 813 l 133 763 l 142 810 l 344 878 l 251 353 l 514 544 l 468 544 l 476 592 l 713 592 l 704 544 l 593 544 l 335 356 l 532 47 l 663 47 l 654 0 l 408 0 l 417 47 z "},"ĸ":{"ha":833,"x_min":32,"x_max":760,"o":"m 469 592 l 760 592 l 751 544 l 583 544 q 424 400 513 461 q 328 329 360 356 q 538 57 454 271 q 540 47 539 53 l 704 47 l 696 0 l 503 0 q 354 232 451 139 q 275 288 313 272 q 243 265 256 274 l 204 47 l 331 47 l 322 0 l 32 0 l 40 47 l 154 47 l 243 544 l 129 544 l 138 592 l 368 592 l 360 544 l 293 544 l 256 332 l 406 435 q 519 544 460 475 l 461 544 l 469 592 z "},"Ĺ":{"ha":833,"x_min":67,"x_max":754,"o":"m 753 1110 l 476 867 l 413 867 l 624 1110 l 753 1110 m 315 733 l 199 733 l 207 781 l 496 781 l 488 733 l 367 733 l 244 47 l 588 47 l 664 310 l 711 310 l 628 0 l 67 0 l 75 47 l 193 47 l 315 733 z "},"ĺ":{"ha":833,"x_min":50,"x_max":719,"o":"m 718 1204 l 442 961 l 378 961 l 589 1204 l 718 1204 m 421 818 l 185 763 l 193 810 l 483 878 l 336 47 l 636 47 l 628 0 l 50 0 l 58 47 l 285 47 l 421 818 z "},"Ļ":{"ha":833,"x_min":67,"x_max":711,"o":"m 465 11 l 439 -64 q 567 -104 528 -47 q 581 -172 586 -135 q 481 -276 567 -244 q 321 -292 415 -301 l 336 -244 q 514 -206 461 -261 q 528 -181 526 -193 q 464 -107 540 -111 q 411 -112 440 -107 l 375 -121 l 414 10 l 465 11 m 315 733 l 199 733 l 207 781 l 496 781 l 488 733 l 367 733 l 244 47 l 588 47 l 664 310 l 711 310 l 628 0 l 67 0 l 75 47 l 193 47 l 315 733 z "},"ļ":{"ha":833,"x_min":50,"x_max":638,"o":"m 465 11 l 439 -64 q 567 -104 528 -47 q 581 -172 586 -135 q 481 -276 567 -244 q 321 -292 415 -301 l 336 -244 q 514 -206 461 -261 q 528 -181 526 -193 q 464 -107 540 -111 q 411 -112 440 -107 l 375 -121 l 414 10 l 465 11 m 421 818 l 185 763 l 193 810 l 483 878 l 336 47 l 636 47 l 628 0 l 50 0 l 58 47 l 285 47 l 421 818 z "},"Ľ":{"ha":833,"x_min":67,"x_max":711,"o":"m 679 1035 l 483 867 l 454 867 l 315 1035 l 339 1054 l 482 925 l 664 1054 l 679 1035 m 315 733 l 199 733 l 207 781 l 496 781 l 488 733 l 367 733 l 244 47 l 588 47 l 664 310 l 711 310 l 628 0 l 67 0 l 75 47 l 193 47 l 315 733 z "},"ľ":{"ha":833,"x_min":50,"x_max":646,"o":"m 644 1129 l 449 961 l 419 961 l 281 1129 l 304 1149 l 447 1019 l 629 1149 l 644 1129 m 421 818 l 185 763 l 193 810 l 483 878 l 336 47 l 636 47 l 628 0 l 50 0 l 58 47 l 285 47 l 421 818 z "},"Ŀ":{"ha":833,"x_min":67,"x_max":711,"o":"m 339 392 q 403 467 347 442 q 453 478 428 478 q 532 432 511 478 q 536 392 540 413 q 472 317 528 342 q 422 306 447 306 q 343 351 364 306 q 339 392 335 371 m 315 733 l 199 733 l 207 781 l 496 781 l 488 733 l 367 733 l 244 47 l 588 47 l 664 310 l 711 310 l 628 0 l 67 0 l 75 47 l 193 47 l 315 733 z "},"ŀ":{"ha":1667,"x_min":50,"x_max":1354,"o":"m 1156 344 q 1219 419 1164 394 q 1269 431 1244 431 q 1349 385 1328 431 q 1353 344 1357 365 q 1289 269 1344 294 q 1239 258 1264 258 q 1160 304 1181 258 q 1156 344 1151 324 m 421 818 l 185 763 l 193 810 l 483 878 l 336 47 l 636 47 l 628 0 l 50 0 l 58 47 l 285 47 l 421 818 z "},"Ł":{"ha":833,"x_min":67,"x_max":721,"o":"m 315 733 l 199 733 l 207 781 l 496 781 l 488 733 l 367 733 l 319 468 l 535 578 l 525 524 l 310 414 l 244 47 l 588 47 l 674 318 l 721 318 l 628 0 l 67 0 l 75 47 l 193 47 l 253 385 l 138 325 l 147 379 l 263 439 l 315 733 z "},"ł":{"ha":833,"x_min":50,"x_max":650,"o":"m 261 393 l 354 440 l 421 818 l 185 763 l 193 810 l 483 878 l 411 469 l 649 592 l 640 538 l 401 417 l 336 47 l 636 47 l 628 0 l 50 0 l 58 47 l 285 47 l 344 388 l 251 339 l 261 393 z "},"Ń":{"ha":833,"x_min":-56,"x_max":892,"o":"m 739 1110 l 463 867 l 399 867 l 610 1110 l 739 1110 m 651 75 l 767 733 l 621 733 l 629 781 l 890 781 l 882 733 l 818 733 l 688 -10 l 636 -10 l 192 733 l 189 733 l 68 47 l 213 47 l 204 0 l -56 0 l -47 47 l 18 47 l 139 733 l 74 733 l 82 781 l 231 781 l 651 75 z "},"ń":{"ha":833,"x_min":-24,"x_max":756,"o":"m 707 938 l 431 694 l 367 694 l 578 938 l 707 938 m 240 522 q 299 551 290 547 q 500 611 421 611 q 657 538 593 611 q 700 411 713 476 l 636 47 l 754 47 l 746 0 l 457 0 l 465 47 l 586 47 l 650 411 q 606 511 660 460 q 490 560 554 560 q 229 461 397 560 l 156 47 l 274 47 l 265 0 l -24 0 l -15 47 l 106 47 l 193 544 l 72 544 l 81 592 l 253 592 q 240 522 246 574 z "},"Ņ":{"ha":833,"x_min":-56,"x_max":892,"o":"m 150 1 l 124 -74 q 251 -114 213 -57 q 265 -182 271 -144 q 165 -286 251 -254 q 6 -301 100 -311 l 21 -254 q 199 -215 146 -271 q 213 -190 211 -203 q 149 -117 225 -121 q 96 -122 125 -117 l 60 -131 l 99 0 l 150 1 m 651 75 l 767 733 l 621 733 l 629 781 l 890 781 l 882 733 l 818 733 l 688 -10 l 636 -10 l 192 733 l 189 733 l 68 47 l 213 47 l 204 0 l -56 0 l -47 47 l 18 47 l 139 733 l 74 733 l 82 781 l 231 781 l 651 75 z "},"ņ":{"ha":833,"x_min":-24,"x_max":756,"o":"m 225 11 l 199 -64 q 326 -104 288 -47 q 340 -172 346 -135 q 240 -276 326 -244 q 81 -292 175 -301 l 96 -244 q 274 -206 221 -261 q 288 -181 286 -193 q 224 -107 300 -111 q 171 -112 200 -107 l 135 -121 l 174 10 l 225 11 m 240 522 q 299 551 290 547 q 500 611 421 611 q 657 538 593 611 q 700 411 713 476 l 636 47 l 754 47 l 746 0 l 457 0 l 465 47 l 586 47 l 650 411 q 606 511 660 460 q 490 560 554 560 q 229 461 397 560 l 156 47 l 274 47 l 265 0 l -24 0 l -15 47 l 106 47 l 193 544 l 72 544 l 81 592 l 253 592 q 240 522 246 574 z "},"Ň":{"ha":833,"x_min":-56,"x_max":892,"o":"m 665 1035 l 469 867 l 440 867 l 301 1035 l 325 1054 l 468 925 l 650 1054 l 665 1035 m 651 75 l 767 733 l 621 733 l 629 781 l 890 781 l 882 733 l 818 733 l 688 -10 l 636 -10 l 192 733 l 189 733 l 68 47 l 213 47 l 204 0 l -56 0 l -47 47 l 18 47 l 139 733 l 74 733 l 82 781 l 231 781 l 651 75 z "},"ň":{"ha":833,"x_min":-24,"x_max":756,"o":"m 633 863 l 438 694 l 408 694 l 269 863 l 293 882 l 436 753 l 618 882 l 633 863 m 240 522 q 299 551 290 547 q 500 611 421 611 q 657 538 593 611 q 700 411 713 476 l 636 47 l 754 47 l 746 0 l 457 0 l 465 47 l 586 47 l 650 411 q 606 511 660 460 q 490 560 554 560 q 229 461 397 560 l 156 47 l 274 47 l 265 0 l -24 0 l -15 47 l 106 47 l 193 544 l 72 544 l 81 592 l 253 592 q 240 522 246 574 z "},"ŉ":{"ha":833,"x_min":-24,"x_max":756,"o":"m 647 982 l 443 742 l 388 742 l 538 982 l 647 982 m 240 522 q 299 551 290 547 q 500 611 421 611 q 657 538 593 611 q 700 411 713 476 l 636 47 l 754 47 l 746 0 l 457 0 l 465 47 l 586 47 l 650 411 q 606 511 660 460 q 490 560 554 560 q 229 461 397 560 l 156 47 l 274 47 l 265 0 l -24 0 l -15 47 l 106 47 l 193 544 l 72 544 l 81 592 l 253 592 q 240 522 246 574 z "},"Ŋ":{"ha":833,"x_min":-33,"x_max":914,"o":"m 386 0 q 375 -126 369 -93 q 485 -214 386 -214 q 632 -118 585 -214 q 649 -65 644 -92 l 658 -10 l 214 733 l 211 733 l 90 47 l 235 47 l 226 0 l -33 0 l -25 47 l 40 47 l 161 733 l 96 733 l 104 781 l 251 781 l 674 75 l 789 733 l 643 733 l 651 781 l 913 781 l 904 733 l 840 733 l 700 -65 q 618 -212 685 -153 q 478 -265 558 -265 q 332 -164 365 -265 q 324 -65 315 -115 l 335 0 l 386 0 z "},"ŋ":{"ha":833,"x_min":0,"x_max":729,"o":"m 272 -186 q 400 -222 313 -217 q 417 -222 408 -222 q 550 -142 489 -222 q 594 -43 586 -93 l 675 411 q 631 511 683 460 q 515 560 579 560 q 253 461 422 560 l 181 47 l 299 47 l 290 0 l 1 0 l 10 47 l 131 47 l 218 544 l 97 544 l 106 592 l 276 592 l 264 522 q 324 551 314 547 q 524 611 444 611 q 682 539 615 611 q 726 411 738 476 l 646 -43 q 551 -212 629 -140 q 410 -274 485 -274 q 242 -232 297 -274 l 272 -186 z "},"Ō":{"ha":833,"x_min":78,"x_max":756,"o":"m 203 914 l 685 914 l 676 867 l 194 867 l 203 914 m 486 783 q 701 665 625 783 q 747 390 775 550 q 590 103 717 219 q 347 -3 478 -3 q 132 115 208 -3 q 86 390 58 231 q 243 678 117 561 q 486 783 356 783 m 476 732 q 250 619 354 732 q 138 390 161 522 q 193 126 110 229 q 357 49 257 49 q 583 161 479 49 q 696 390 672 258 q 640 654 724 551 q 476 732 576 732 z "},"ō":{"ha":833,"x_min":99,"x_max":735,"o":"m 169 724 l 651 724 l 643 676 l 161 676 l 169 724 m 469 593 q 683 496 607 593 q 729 296 750 411 q 583 74 706 161 q 364 -1 482 -1 q 150 96 226 -1 q 104 296 83 181 q 250 518 128 431 q 469 593 351 593 m 460 542 q 239 447 335 542 q 156 296 171 381 q 215 107 135 181 q 374 50 278 50 q 600 146 507 50 q 678 296 663 210 q 613 492 700 419 q 460 542 551 542 z "},"Ŏ":{"ha":833,"x_min":78,"x_max":756,"o":"m 554 1000 q 451 879 529 914 q 389 867 421 867 q 278 935 307 867 q 267 1000 265 964 l 300 1000 q 401 939 308 939 q 521 1000 482 939 l 554 1000 m 486 783 q 701 665 625 783 q 747 390 775 550 q 590 103 717 219 q 347 -3 478 -3 q 132 115 208 -3 q 86 390 58 231 q 243 678 117 561 q 486 783 356 783 m 476 732 q 250 619 354 732 q 138 390 161 522 q 193 126 110 229 q 357 49 257 49 q 583 161 479 49 q 696 390 672 258 q 640 654 724 551 q 476 732 576 732 z "},"ŏ":{"ha":833,"x_min":99,"x_max":735,"o":"m 521 810 q 418 689 496 724 q 356 676 388 676 q 244 744 274 676 q 233 810 232 774 l 267 810 q 368 749 275 749 q 488 810 449 749 l 521 810 m 469 593 q 683 496 607 593 q 729 296 750 411 q 583 74 706 161 q 364 -1 482 -1 q 150 96 226 -1 q 104 296 83 181 q 250 518 128 431 q 469 593 351 593 m 460 542 q 239 447 335 542 q 156 296 171 381 q 215 107 135 181 q 374 50 278 50 q 600 146 507 50 q 678 296 663 210 q 613 492 700 419 q 460 542 551 542 z "},"Ő":{"ha":833,"x_min":78,"x_max":867,"o":"m 613 1110 l 336 867 l 272 867 l 483 1110 l 613 1110 m 865 1110 l 589 867 l 525 867 l 736 1110 l 865 1110 m 486 783 q 701 665 625 783 q 747 390 775 550 q 590 103 717 219 q 347 -3 478 -3 q 132 115 208 -3 q 86 390 58 231 q 243 678 117 561 q 486 783 356 783 m 476 732 q 250 619 354 732 q 138 390 161 522 q 193 126 110 229 q 357 49 257 49 q 583 161 479 49 q 696 390 672 258 q 640 654 724 551 q 476 732 576 732 z "},"ő":{"ha":833,"x_min":99,"x_max":833,"o":"m 578 919 l 301 676 l 238 676 l 449 919 l 578 919 m 831 919 l 554 676 l 490 676 l 701 919 l 831 919 m 469 593 q 683 496 607 593 q 729 296 750 411 q 583 74 706 161 q 364 -1 482 -1 q 150 96 226 -1 q 104 296 83 181 q 250 518 128 431 q 469 593 351 593 m 460 542 q 239 447 335 542 q 156 296 171 381 q 215 107 135 181 q 374 50 278 50 q 600 146 507 50 q 678 296 663 210 q 613 492 700 419 q 460 542 551 542 z "},"Œ":{"ha":833,"x_min":36,"x_max":847,"o":"m 315 51 l 435 729 q 208 618 311 729 q 96 390 119 522 q 151 129 68 229 q 315 51 215 51 m 697 558 l 663 360 l 615 360 l 631 446 l 436 446 l 365 47 l 669 47 l 708 168 l 756 168 l 708 0 l 306 0 q 90 118 167 0 q 44 390 17 232 q 201 678 75 561 q 444 781 314 781 l 847 781 l 831 621 l 783 621 l 792 733 l 488 733 l 444 493 l 639 493 l 650 558 l 697 558 z "},"œ":{"ha":833,"x_min":14,"x_max":833,"o":"m 774 343 q 746 514 788 474 q 658 542 718 542 q 475 371 526 542 q 468 343 471 357 l 774 343 m 293 594 q 439 493 393 594 q 454 447 449 472 q 668 593 524 593 q 832 436 824 593 q 821 296 836 379 l 460 296 q 535 60 425 97 q 586 51 557 51 q 715 108 656 51 q 743 135 674 68 l 768 96 q 576 0 674 1 q 403 147 424 0 q 236 4 335 32 q 188 -3 211 -3 q 39 101 86 -3 q 21 296 1 186 q 143 528 46 438 q 293 594 214 594 m 283 543 q 138 453 204 543 q 71 296 86 386 q 111 89 47 163 q 197 49 147 49 q 339 142 268 49 q 408 296 394 215 q 378 485 428 406 q 283 543 340 543 z "},"Ŕ":{"ha":833,"x_min":-57,"x_max":771,"o":"m 579 1110 l 303 867 l 239 867 l 450 1110 l 579 1110 m 199 390 l 499 390 q 650 444 583 390 q 719 561 707 490 q 625 724 742 690 q 560 733 594 733 l 260 733 l 199 390 m 453 343 q 558 138 526 263 q 578 47 567 107 l 675 47 l 667 0 l 536 0 q 482 206 506 153 q 379 343 450 279 l 189 343 l 136 47 l 317 47 l 308 0 l -57 0 l -49 47 l 86 47 l 208 733 l 74 733 l 82 781 l 568 781 q 735 714 679 781 q 767 561 783 656 q 606 369 743 428 q 490 343 546 343 l 453 343 z "},"ŕ":{"ha":833,"x_min":22,"x_max":726,"o":"m 672 938 l 396 694 l 332 694 l 543 938 l 672 938 m 676 504 q 603 547 664 525 q 547 560 571 560 q 303 476 457 560 q 276 461 289 468 l 203 49 l 321 49 l 313 0 l 22 0 l 31 49 l 151 49 l 239 544 l 118 544 l 126 592 l 299 592 l 288 522 q 346 551 340 549 q 556 611 464 611 q 710 554 643 611 q 725 538 718 546 l 676 504 z "},"Ŗ":{"ha":833,"x_min":-57,"x_max":771,"o":"m 221 11 l 194 -64 q 322 -104 283 -47 q 336 -172 342 -135 q 236 -276 322 -244 q 76 -292 171 -301 l 92 -244 q 269 -206 217 -261 q 283 -181 282 -193 q 219 -107 296 -111 q 167 -112 196 -107 l 131 -121 l 169 10 l 221 11 m 199 390 l 499 390 q 650 444 583 390 q 719 561 707 490 q 625 724 742 690 q 560 733 594 733 l 260 733 l 199 390 m 453 343 q 558 138 526 263 q 578 47 567 107 l 675 47 l 667 0 l 536 0 q 482 206 506 153 q 379 343 450 279 l 189 343 l 136 47 l 317 47 l 308 0 l -57 0 l -49 47 l 86 47 l 208 733 l 74 733 l 82 781 l 568 781 q 735 714 679 781 q 767 561 783 656 q 606 369 743 428 q 490 343 546 343 l 453 343 z "},"ŗ":{"ha":833,"x_min":22,"x_max":726,"o":"m 244 11 l 218 -64 q 346 -104 307 -47 q 360 -172 365 -135 q 260 -276 346 -244 q 100 -292 194 -301 l 115 -244 q 293 -206 240 -261 q 307 -181 306 -193 q 243 -107 319 -111 q 190 -112 219 -107 l 154 -121 l 193 10 l 244 11 m 676 504 q 603 547 664 525 q 547 560 571 560 q 303 476 457 560 q 276 461 289 468 l 203 49 l 321 49 l 313 0 l 22 0 l 31 49 l 151 49 l 239 544 l 118 544 l 126 592 l 299 592 l 288 522 q 346 551 340 549 q 556 611 464 611 q 710 554 643 611 q 725 538 718 546 l 676 504 z "},"Ř":{"ha":833,"x_min":-57,"x_max":771,"o":"m 506 1035 l 310 867 l 281 867 l 142 1035 l 165 1054 l 308 925 l 490 1054 l 506 1035 m 199 390 l 499 390 q 650 444 583 390 q 719 561 707 490 q 625 724 742 690 q 560 733 594 733 l 260 733 l 199 390 m 453 343 q 558 138 526 263 q 578 47 567 107 l 675 47 l 667 0 l 536 0 q 482 206 506 153 q 379 343 450 279 l 189 343 l 136 47 l 317 47 l 308 0 l -57 0 l -49 47 l 86 47 l 208 733 l 74 733 l 82 781 l 568 781 q 735 714 679 781 q 767 561 783 656 q 606 369 743 428 q 490 343 546 343 l 453 343 z "},"ř":{"ha":833,"x_min":22,"x_max":726,"o":"m 600 863 l 404 694 l 375 694 l 236 863 l 260 882 l 403 753 l 585 882 l 600 863 m 676 504 q 603 547 664 525 q 547 560 571 560 q 303 476 457 560 q 276 461 289 468 l 203 49 l 321 49 l 313 0 l 22 0 l 31 49 l 151 49 l 239 544 l 118 544 l 126 592 l 299 592 l 288 522 q 346 551 340 549 q 556 611 464 611 q 710 554 643 611 q 725 538 718 546 l 676 504 z "},"Ś":{"ha":833,"x_min":101,"x_max":856,"o":"m 854 1118 l 578 875 l 514 875 l 725 1118 l 854 1118 m 708 792 q 678 713 683 746 q 693 608 667 644 l 649 608 q 644 611 646 610 q 567 715 628 676 q 483 740 528 740 q 301 675 368 740 q 261 600 268 642 q 342 461 244 507 q 474 415 358 453 q 619 321 589 376 q 631 221 640 281 q 492 47 610 107 q 346 13 422 13 q 199 72 260 13 q 182 63 190 83 q 150 0 168 32 l 103 0 l 132 58 q 156 119 151 96 q 143 207 161 154 q 140 214 142 211 l 188 214 q 199 174 188 214 q 313 69 231 90 q 356 64 333 64 q 532 133 463 64 q 579 221 571 172 q 501 349 594 306 q 371 394 486 356 q 221 493 253 435 q 210 600 199 538 q 356 764 229 711 q 492 792 422 792 q 624 742 564 792 q 640 743 636 731 q 661 792 650 774 l 708 792 z "},"ś":{"ha":833,"x_min":117,"x_max":822,"o":"m 819 926 l 543 683 l 479 683 l 690 926 l 819 926 m 693 600 q 665 532 671 567 q 683 446 654 476 l 636 446 q 554 528 617 496 q 468 549 513 549 q 269 486 318 549 q 253 451 257 471 q 336 347 240 381 q 476 311 347 343 q 631 224 604 279 q 638 156 644 194 q 504 19 621 67 q 361 -7 436 -7 q 211 39 274 -7 q 194 32 201 47 l 165 -17 l 118 -17 l 146 29 q 168 83 163 57 q 154 153 172 110 q 149 161 151 158 l 196 161 q 210 131 196 161 q 343 46 249 57 q 371 44 357 44 q 561 107 504 44 q 586 156 581 129 q 506 251 597 221 l 315 300 q 199 424 199 339 q 201 451 199 438 q 346 581 218 540 q 476 600 410 600 q 610 563 547 600 q 626 563 624 553 q 646 600 635 588 l 693 600 z "},"Ŝ":{"ha":833,"x_min":101,"x_max":760,"o":"m 760 894 l 736 875 l 599 1004 l 411 875 l 396 894 l 593 1063 l 622 1063 l 760 894 m 708 792 q 678 713 683 746 q 693 608 667 644 l 649 608 q 644 611 646 610 q 567 715 628 676 q 483 740 528 740 q 301 675 368 740 q 261 600 268 642 q 342 461 244 507 q 474 415 358 453 q 619 321 589 376 q 631 221 640 281 q 492 47 610 107 q 346 13 422 13 q 199 72 260 13 q 182 63 190 83 q 150 0 168 32 l 103 0 l 132 58 q 156 119 151 96 q 143 207 161 154 q 140 214 142 211 l 188 214 q 199 174 188 214 q 313 69 231 90 q 356 64 333 64 q 532 133 463 64 q 579 221 571 172 q 501 349 594 306 q 371 394 486 356 q 221 493 253 435 q 210 600 199 538 q 356 764 229 711 q 492 792 422 792 q 624 742 564 792 q 640 743 636 731 q 661 792 650 774 l 708 792 z "},"ŝ":{"ha":833,"x_min":117,"x_max":726,"o":"m 725 703 l 701 683 l 564 813 l 376 683 l 361 703 l 558 871 l 588 871 l 725 703 m 693 600 q 665 532 671 567 q 683 446 654 476 l 636 446 q 554 528 617 496 q 468 549 513 549 q 269 486 318 549 q 253 451 257 471 q 336 347 240 381 q 476 311 347 343 q 631 224 604 279 q 638 156 644 194 q 504 19 621 67 q 361 -7 436 -7 q 211 39 274 -7 q 194 32 201 47 l 165 -17 l 118 -17 l 146 29 q 168 83 163 57 q 154 153 172 110 q 149 161 151 158 l 196 161 q 210 131 196 161 q 343 46 249 57 q 371 44 357 44 q 561 107 504 44 q 586 156 581 129 q 506 251 597 221 l 315 300 q 199 424 199 339 q 201 451 199 438 q 346 581 218 540 q 476 600 410 600 q 610 563 547 600 q 626 563 624 553 q 646 600 635 588 l 693 600 z "},"Ş":{"ha":833,"x_min":99,"x_max":710,"o":"m 244 11 l 218 -64 q 346 -104 307 -47 q 360 -172 365 -135 q 260 -276 346 -244 q 100 -292 194 -301 l 115 -244 q 293 -206 240 -261 q 307 -181 306 -193 q 243 -107 319 -111 q 190 -112 219 -107 l 154 -121 l 193 10 l 244 11 m 708 792 q 678 713 683 746 q 693 608 667 644 l 649 608 q 644 611 646 610 q 567 715 628 676 q 483 740 528 740 q 301 675 368 740 q 261 600 268 642 q 342 461 244 507 q 474 415 358 453 q 619 321 589 376 q 631 221 640 281 q 492 47 610 107 q 346 13 422 13 q 199 72 260 13 q 182 63 190 83 q 150 0 168 32 l 103 0 l 132 58 q 156 119 151 96 q 143 207 161 154 q 140 214 142 211 l 188 214 q 199 174 188 214 q 313 69 231 90 q 356 64 333 64 q 532 133 463 64 q 579 221 571 172 q 501 349 594 306 q 371 394 486 356 q 221 493 253 435 q 210 600 199 538 q 356 764 229 711 q 492 792 422 792 q 624 742 564 792 q 640 743 636 731 q 661 792 650 774 l 708 792 z "},"ş":{"ha":833,"x_min":96,"x_max":694,"o":"m 242 -6 l 215 -81 q 343 -121 304 -64 q 357 -189 363 -151 q 257 -293 343 -261 q 97 -308 192 -318 l 113 -261 q 290 -222 238 -278 q 304 -197 303 -210 q 240 -124 317 -128 q 188 -129 217 -124 l 151 -137 l 190 -7 l 242 -6 m 693 600 q 665 532 671 567 q 683 446 654 476 l 636 446 q 554 528 617 496 q 468 549 513 549 q 269 486 318 549 q 253 451 257 471 q 336 347 240 381 q 476 311 347 343 q 631 224 604 279 q 638 156 644 194 q 504 19 621 67 q 361 -7 436 -7 q 211 39 274 -7 q 194 32 201 47 l 165 -17 l 118 -17 l 146 29 q 168 83 163 57 q 154 153 172 110 q 149 161 151 158 l 196 161 q 210 131 196 161 q 343 46 249 57 q 371 44 357 44 q 561 107 504 44 q 586 156 581 129 q 506 251 597 221 l 315 300 q 199 424 199 339 q 201 451 199 438 q 346 581 218 540 q 476 600 410 600 q 610 563 547 600 q 626 563 624 553 q 646 600 635 588 l 693 600 z "},"Š":{"ha":833,"x_min":101,"x_max":782,"o":"m 781 1043 l 585 875 l 556 875 l 417 1043 l 440 1063 l 583 933 l 765 1063 l 781 1043 m 708 792 q 678 713 683 746 q 693 608 667 644 l 649 608 q 644 611 646 610 q 567 715 628 676 q 483 740 528 740 q 301 675 368 740 q 261 600 268 642 q 342 461 244 507 q 474 415 358 453 q 619 321 589 376 q 631 221 640 281 q 492 47 610 107 q 346 13 422 13 q 199 72 260 13 q 182 63 190 83 q 150 0 168 32 l 103 0 l 132 58 q 156 119 151 96 q 143 207 161 154 q 140 214 142 211 l 188 214 q 199 174 188 214 q 313 69 231 90 q 356 64 333 64 q 532 133 463 64 q 579 221 571 172 q 501 349 594 306 q 371 394 486 356 q 221 493 253 435 q 210 600 199 538 q 356 764 229 711 q 492 792 422 792 q 624 742 564 792 q 640 743 636 731 q 661 792 650 774 l 708 792 z "},"š":{"ha":833,"x_min":117,"x_max":749,"o":"m 747 851 l 551 683 l 522 683 l 383 851 l 407 871 l 550 742 l 732 871 l 747 851 m 693 600 q 665 532 671 567 q 683 446 654 476 l 636 446 q 554 528 617 496 q 468 549 513 549 q 269 486 318 549 q 253 451 257 471 q 336 347 240 381 q 476 311 347 343 q 631 224 604 279 q 638 156 644 194 q 504 19 621 67 q 361 -7 436 -7 q 211 39 274 -7 q 194 32 201 47 l 165 -17 l 118 -17 l 146 29 q 168 83 163 57 q 154 153 172 110 q 149 161 151 158 l 196 161 q 210 131 196 161 q 343 46 249 57 q 371 44 357 44 q 561 107 504 44 q 586 156 581 129 q 506 251 597 221 l 315 300 q 199 424 199 339 q 201 451 199 438 q 346 581 218 540 q 476 600 410 600 q 610 563 547 600 q 626 563 624 553 q 646 600 635 588 l 693 600 z "},"Ţ":{"ha":833,"x_min":79,"x_max":826,"o":"m 465 11 l 439 -64 q 567 -104 528 -47 q 581 -172 586 -135 q 481 -276 567 -244 q 321 -292 415 -301 l 336 -244 q 514 -206 461 -261 q 528 -181 526 -193 q 464 -107 540 -111 q 411 -112 440 -107 l 375 -121 l 414 10 l 465 11 m 744 497 l 772 733 l 503 733 l 381 47 l 588 47 l 579 0 l 117 0 l 125 47 l 331 47 l 453 733 l 185 733 l 129 497 l 81 497 l 144 781 l 826 781 l 792 497 l 744 497 z "},"ţ":{"ha":833,"x_min":103,"x_max":699,"o":"m 482 -15 l 456 -90 q 583 -131 544 -74 q 597 -199 603 -161 q 497 -303 583 -271 q 338 -318 432 -328 l 353 -271 q 531 -232 478 -287 q 544 -207 543 -219 q 481 -133 557 -137 q 428 -139 457 -133 l 392 -147 l 431 -17 l 482 -15 m 113 592 l 221 592 l 253 775 l 304 775 l 272 592 l 622 592 l 614 544 l 264 544 l 201 196 q 256 68 189 122 q 378 25 307 25 q 665 185 478 25 l 699 151 q 446 -11 567 31 q 368 -26 403 -26 q 196 49 263 -26 q 151 196 138 114 l 214 544 l 104 544 l 113 592 z "},"Ť":{"ha":833,"x_min":79,"x_max":826,"o":"m 664 1035 l 468 867 l 439 867 l 300 1035 l 324 1054 l 467 925 l 649 1054 l 664 1035 m 744 497 l 772 733 l 503 733 l 381 47 l 588 47 l 579 0 l 117 0 l 125 47 l 331 47 l 453 733 l 185 733 l 129 497 l 81 497 l 144 781 l 826 781 l 792 497 l 744 497 z "},"ť":{"ha":833,"x_min":92,"x_max":699,"o":"m 457 1026 l 261 858 l 232 858 l 93 1026 l 117 1046 l 260 917 l 442 1046 l 457 1026 m 113 592 l 221 592 l 253 775 l 304 775 l 272 592 l 622 592 l 614 544 l 264 544 l 201 196 q 256 68 189 122 q 378 25 307 25 q 665 185 478 25 l 699 151 q 446 -11 567 31 q 368 -26 403 -26 q 196 49 263 -26 q 151 196 138 114 l 214 544 l 104 544 l 113 592 z "},"Ŧ":{"ha":833,"x_min":79,"x_max":826,"o":"m 744 497 l 772 733 l 503 733 l 450 439 l 592 439 l 583 392 l 442 392 l 381 47 l 588 47 l 579 0 l 117 0 l 125 47 l 331 47 l 392 392 l 250 392 l 258 439 l 400 439 l 453 733 l 185 733 l 129 497 l 81 497 l 144 781 l 826 781 l 792 497 l 744 497 z "},"ŧ":{"ha":833,"x_min":94,"x_max":699,"o":"m 113 592 l 221 592 l 253 775 l 304 775 l 272 592 l 622 592 l 614 544 l 264 544 l 235 385 l 318 385 l 310 338 l 226 338 l 201 196 q 256 68 189 122 q 378 25 307 25 q 665 185 478 25 l 699 151 q 446 -11 567 31 q 368 -26 403 -26 q 196 49 263 -26 q 151 196 138 114 l 176 338 l 94 338 l 103 385 l 185 385 l 214 544 l 104 544 l 113 592 z "},"Ũ":{"ha":833,"x_min":100,"x_max":865,"o":"m 246 868 q 318 961 258 928 q 369 976 344 976 q 425 946 390 978 q 457 929 444 928 q 539 971 504 933 l 546 971 q 496 883 540 915 q 449 868 474 868 q 389 899 417 869 q 354 917 371 917 q 260 868 299 915 l 246 868 m 856 733 l 757 733 l 672 249 q 571 86 657 165 q 347 -10 468 -10 q 154 94 225 -10 q 114 249 100 174 l 199 733 l 100 733 l 108 781 l 392 781 l 383 733 l 244 733 l 160 249 q 199 125 150 194 q 354 38 261 38 q 558 138 465 38 q 625 249 615 197 l 710 733 l 572 733 l 581 781 l 864 781 l 856 733 z "},"ũ":{"ha":833,"x_min":75,"x_max":758,"o":"m 151 678 q 224 771 164 738 q 275 786 250 786 q 331 756 296 788 q 363 739 350 738 q 444 781 410 743 l 451 781 q 401 693 446 725 q 354 678 379 678 q 294 708 322 679 q 260 726 276 726 q 165 678 204 725 l 151 678 m 592 71 q 532 42 540 46 q 331 -18 410 -18 q 174 56 239 -18 q 131 182 118 117 l 194 544 l 76 544 l 85 592 l 254 592 l 181 182 q 225 82 172 133 q 340 33 276 33 q 601 132 433 33 l 675 544 l 557 544 l 565 592 l 735 592 l 639 49 l 758 49 l 750 0 l 579 0 l 592 71 z "},"Ū":{"ha":833,"x_min":100,"x_max":865,"o":"m 203 914 l 685 914 l 676 867 l 194 867 l 203 914 m 856 733 l 757 733 l 672 249 q 571 86 657 165 q 347 -10 468 -10 q 154 94 225 -10 q 114 249 100 174 l 199 733 l 100 733 l 108 781 l 392 781 l 383 733 l 244 733 l 160 249 q 199 125 150 194 q 354 38 261 38 q 558 138 465 38 q 625 249 615 197 l 710 733 l 572 733 l 581 781 l 864 781 l 856 733 z "},"ū":{"ha":833,"x_min":75,"x_max":758,"o":"m 108 724 l 590 724 l 582 676 l 100 676 l 108 724 m 592 71 q 532 42 540 46 q 331 -18 410 -18 q 174 56 239 -18 q 131 182 118 117 l 194 544 l 76 544 l 85 592 l 254 592 l 181 182 q 225 82 172 133 q 340 33 276 33 q 601 132 433 33 l 675 544 l 557 544 l 565 592 l 735 592 l 639 49 l 758 49 l 750 0 l 579 0 l 592 71 z "},"Ŭ":{"ha":833,"x_min":100,"x_max":865,"o":"m 554 1000 q 451 879 529 914 q 389 867 421 867 q 278 935 307 867 q 267 1000 265 964 l 300 1000 q 401 939 308 939 q 521 1000 482 939 l 554 1000 m 856 733 l 757 733 l 672 249 q 571 86 657 165 q 347 -10 468 -10 q 154 94 225 -10 q 114 249 100 174 l 199 733 l 100 733 l 108 781 l 392 781 l 383 733 l 244 733 l 160 249 q 199 125 150 194 q 354 38 261 38 q 558 138 465 38 q 625 249 615 197 l 710 733 l 572 733 l 581 781 l 864 781 l 856 733 z "},"ŭ":{"ha":833,"x_min":75,"x_max":758,"o":"m 461 810 q 358 689 436 724 q 296 676 328 676 q 185 744 214 676 q 174 810 172 774 l 207 810 q 308 749 215 749 q 428 810 389 749 l 461 810 m 592 71 q 532 42 540 46 q 331 -18 410 -18 q 174 56 239 -18 q 131 182 118 117 l 194 544 l 76 544 l 85 592 l 254 592 l 181 182 q 225 82 172 133 q 340 33 276 33 q 601 132 433 33 l 675 544 l 557 544 l 565 592 l 735 592 l 639 49 l 758 49 l 750 0 l 579 0 l 592 71 z "},"Ů":{"ha":833,"x_min":100,"x_max":865,"o":"m 482 1119 q 578 1061 550 1119 q 586 993 593 1031 q 507 885 574 922 q 438 867 472 867 q 342 925 369 867 q 333 993 326 956 q 413 1101 346 1064 q 482 1119 447 1119 m 474 1072 q 393 1025 424 1072 q 381 993 383 1010 q 411 922 372 946 q 446 914 426 914 q 526 961 496 914 q 539 993 536 976 q 508 1064 547 1040 q 474 1072 493 1072 m 856 733 l 757 733 l 672 249 q 571 86 657 165 q 347 -10 468 -10 q 154 94 225 -10 q 114 249 100 174 l 199 733 l 100 733 l 108 781 l 392 781 l 383 733 l 244 733 l 160 249 q 199 125 150 194 q 354 38 261 38 q 558 138 465 38 q 625 249 615 197 l 710 733 l 572 733 l 581 781 l 864 781 l 856 733 z "},"ů":{"ha":833,"x_min":75,"x_max":758,"o":"m 388 929 q 483 871 456 929 q 492 803 499 840 q 413 694 479 732 q 343 676 378 676 q 247 735 275 676 q 239 803 232 765 q 318 911 251 874 q 388 929 353 929 m 379 882 q 299 835 329 882 q 286 803 289 819 q 317 732 278 756 q 351 724 332 724 q 432 771 401 724 q 444 803 442 786 q 414 874 453 850 q 379 882 399 882 m 592 71 q 532 42 540 46 q 331 -18 410 -18 q 174 56 239 -18 q 131 182 118 117 l 194 544 l 76 544 l 85 592 l 254 592 l 181 182 q 225 82 172 133 q 340 33 276 33 q 601 132 433 33 l 675 544 l 557 544 l 565 592 l 735 592 l 639 49 l 758 49 l 750 0 l 579 0 l 592 71 z "},"Ű":{"ha":833,"x_min":100,"x_max":867,"o":"m 613 1110 l 336 867 l 272 867 l 483 1110 l 613 1110 m 865 1110 l 589 867 l 525 867 l 736 1110 l 865 1110 m 856 733 l 757 733 l 672 249 q 571 86 657 165 q 347 -10 468 -10 q 154 94 225 -10 q 114 249 100 174 l 199 733 l 100 733 l 108 781 l 392 781 l 383 733 l 244 733 l 160 249 q 199 125 150 194 q 354 38 261 38 q 558 138 465 38 q 625 249 615 197 l 710 733 l 572 733 l 581 781 l 864 781 l 856 733 z "},"ű":{"ha":833,"x_min":75,"x_max":772,"o":"m 518 919 l 242 676 l 178 676 l 389 919 l 518 919 m 771 919 l 494 676 l 431 676 l 642 919 l 771 919 m 592 71 q 532 42 540 46 q 331 -18 410 -18 q 174 56 239 -18 q 131 182 118 117 l 194 544 l 76 544 l 85 592 l 254 592 l 181 182 q 225 82 172 133 q 340 33 276 33 q 601 132 433 33 l 675 544 l 557 544 l 565 592 l 735 592 l 639 49 l 758 49 l 750 0 l 579 0 l 592 71 z "},"Ų":{"ha":833,"x_min":100,"x_max":865,"o":"m 407 -1 l 465 -1 q 385 -72 410 -11 q 376 -112 378 -92 q 432 -169 375 -154 q 456 -175 443 -172 q 582 -126 528 -187 l 604 -161 q 451 -237 542 -239 q 333 -182 368 -236 q 321 -112 314 -151 q 407 -1 333 -37 m 856 733 l 757 733 l 672 249 q 571 86 657 165 q 347 -10 468 -10 q 154 94 225 -10 q 114 249 100 174 l 199 733 l 100 733 l 108 781 l 392 781 l 383 733 l 244 733 l 160 249 q 199 125 150 194 q 354 38 261 38 q 558 138 465 38 q 625 249 615 197 l 710 733 l 572 733 l 581 781 l 864 781 l 856 733 z "},"ų":{"ha":833,"x_min":75,"x_max":842,"o":"m 643 -10 l 701 -10 q 621 -81 646 -19 q 613 -121 614 -100 q 668 -178 611 -162 q 692 -183 679 -181 q 818 -135 764 -196 l 840 -169 q 688 -246 778 -247 q 569 -190 604 -244 q 557 -121 550 -160 q 643 -10 569 -46 m 592 71 q 532 42 540 46 q 331 -18 410 -18 q 174 56 239 -18 q 131 182 118 117 l 194 544 l 76 544 l 85 592 l 254 592 l 181 182 q 225 82 172 133 q 340 33 276 33 q 601 132 433 33 l 675 544 l 557 544 l 565 592 l 735 592 l 639 49 l 758 49 l 750 0 l 579 0 l 592 71 z "},"Ŵ":{"ha":833,"x_min":61,"x_max":904,"o":"m 643 886 l 619 867 l 482 996 l 294 867 l 279 886 l 476 1054 l 506 1054 l 643 886 m 629 781 l 904 781 l 896 733 l 863 733 l 532 -21 l 501 -21 l 440 514 l 190 -21 l 160 -21 l 96 733 l 63 733 l 71 781 l 346 781 l 338 733 l 149 733 l 201 117 l 443 635 l 479 635 l 540 117 l 810 733 l 621 733 l 629 781 z "},"ŵ":{"ha":833,"x_min":46,"x_max":889,"o":"m 610 696 l 586 676 l 449 806 l 261 676 l 246 696 l 443 864 l 472 864 l 610 696 m 153 544 l 217 78 l 428 451 l 467 451 l 544 78 l 775 544 l 601 544 l 610 592 l 889 592 l 881 544 l 829 544 l 546 -33 l 513 -33 l 431 358 l 210 -33 l 176 -33 l 99 544 l 47 544 l 56 592 l 335 592 l 326 544 l 153 544 z "},"Ŷ":{"ha":833,"x_min":142,"x_max":821,"o":"m 643 886 l 619 867 l 482 996 l 294 867 l 279 886 l 476 1054 l 506 1054 l 643 886 m 379 47 l 460 47 l 451 0 l 240 0 l 249 47 l 328 47 l 388 379 l 192 733 l 143 733 l 151 781 l 347 781 l 339 733 l 256 733 l 424 433 l 700 733 l 617 733 l 625 781 l 821 781 l 813 733 l 764 733 l 439 379 l 379 47 z "},"ŷ":{"ha":833,"x_min":-74,"x_max":893,"o":"m 610 696 l 586 676 l 449 806 l 261 676 l 246 696 l 443 864 l 472 864 l 610 696 m 322 -233 l -72 -233 l -64 -186 l 232 -186 l 356 0 l 183 544 l 78 544 l 86 592 l 351 592 l 343 544 l 240 544 l 396 58 l 721 544 l 618 544 l 626 592 l 892 592 l 883 544 l 778 544 l 289 -186 l 331 -186 l 322 -233 z "},"Ÿ":{"ha":833,"x_min":142,"x_max":821,"o":"m 289 919 q 332 969 296 956 q 351 972 342 972 q 394 939 386 972 q 394 919 396 929 q 351 869 388 883 q 332 867 342 867 q 289 900 297 867 q 289 919 288 910 m 507 919 q 550 969 514 956 q 569 972 560 972 q 613 939 604 972 q 613 919 614 929 q 569 869 606 883 q 550 867 560 867 q 507 900 515 867 q 507 919 506 910 m 379 47 l 460 47 l 451 0 l 240 0 l 249 47 l 328 47 l 388 379 l 192 733 l 143 733 l 151 781 l 347 781 l 339 733 l 256 733 l 424 433 l 700 733 l 617 733 l 625 781 l 821 781 l 813 733 l 764 733 l 439 379 l 379 47 z "},"Ź":{"ha":833,"x_min":104,"x_max":735,"o":"m 733 1110 l 457 867 l 393 867 l 604 1110 l 733 1110 m 539 47 l 593 264 l 642 264 l 575 0 l 104 0 l 110 28 l 633 733 l 289 733 l 242 521 l 193 521 l 251 781 l 711 781 l 704 749 l 183 47 l 539 47 z "},"ź":{"ha":833,"x_min":85,"x_max":746,"o":"m 692 919 l 415 676 l 351 676 l 563 919 l 692 919 m 738 544 l 165 47 l 626 47 l 636 97 l 683 97 l 665 0 l 85 0 l 93 47 l 665 544 l 207 544 l 197 494 l 150 494 l 168 592 l 746 592 l 738 544 z "},"Ż":{"ha":833,"x_min":104,"x_max":711,"o":"m 514 1001 l 489 867 l 386 867 l 411 1001 l 514 1001 m 539 47 l 593 264 l 642 264 l 575 0 l 104 0 l 110 28 l 633 733 l 289 733 l 242 521 l 193 521 l 251 781 l 711 781 l 704 749 l 183 47 l 539 47 z "},"ż":{"ha":833,"x_min":85,"x_max":746,"o":"m 472 811 l 447 676 l 344 676 l 369 811 l 472 811 m 738 544 l 165 47 l 626 47 l 636 97 l 683 97 l 665 0 l 85 0 l 93 47 l 665 544 l 207 544 l 197 494 l 150 494 l 168 592 l 746 592 l 738 544 z "},"Ž":{"ha":833,"x_min":104,"x_max":711,"o":"m 660 1035 l 464 867 l 435 867 l 296 1035 l 319 1054 l 463 925 l 644 1054 l 660 1035 m 539 47 l 593 264 l 642 264 l 575 0 l 104 0 l 110 28 l 633 733 l 289 733 l 242 521 l 193 521 l 251 781 l 711 781 l 704 749 l 183 47 l 539 47 z "},"ž":{"ha":833,"x_min":85,"x_max":746,"o":"m 619 844 l 424 676 l 394 676 l 256 844 l 279 864 l 422 735 l 604 864 l 619 844 m 738 544 l 165 47 l 626 47 l 636 97 l 683 97 l 665 0 l 85 0 l 93 47 l 665 544 l 207 544 l 197 494 l 150 494 l 168 592 l 746 592 l 738 544 z "},"ſ":{"ha":833,"x_min":78,"x_max":736,"o":"m 188 47 l 276 544 l 175 544 l 183 592 l 283 592 l 303 701 q 417 840 317 786 q 542 875 481 875 q 735 810 656 875 l 697 768 q 532 824 631 824 q 394 767 456 824 q 354 701 360 735 l 238 47 l 469 47 l 461 0 l 78 0 l 86 47 l 188 47 z "},"ƀ":{"ha":833,"x_min":-24,"x_max":769,"o":"m 496 542 q 279 453 374 542 q 192 296 207 385 q 256 104 171 178 q 408 50 318 50 q 631 146 536 50 q 713 296 697 211 q 653 485 732 411 q 496 542 590 542 m 232 819 l 121 799 l 121 846 l 294 878 l 265 715 l 381 715 l 372 668 l 257 668 l 221 460 q 460 590 319 571 q 504 593 482 593 q 718 496 643 593 q 764 296 785 411 q 618 72 740 161 q 400 -1 518 -1 q 188 96 263 -1 q 164 132 174 113 l 140 0 l -24 0 l -15 47 l 97 47 l 207 668 l 97 668 l 106 715 l 214 715 l 232 819 z "},"Ɓ":{"ha":833,"x_min":43,"x_max":756,"o":"m 307 501 l 551 501 q 681 563 633 501 q 706 617 700 588 q 660 717 717 683 q 594 733 631 733 l 349 733 l 307 501 m 226 47 l 471 47 q 597 125 543 47 q 649 256 635 178 q 607 424 667 361 q 544 454 578 454 l 299 454 l 226 47 m 601 781 q 732 719 688 781 q 753 617 763 676 q 636 475 735 518 q 631 472 633 474 q 700 304 700 414 q 696 256 700 279 q 571 36 669 107 q 464 0 519 0 l 43 0 l 51 47 l 175 47 l 297 733 l 175 733 q 114 690 119 733 q 144 692 129 694 q 179 644 185 681 q 138 594 172 606 q 121 592 129 592 q 78 636 89 592 q 85 704 71 669 q 204 781 118 781 l 601 781 z "},"Ƃ":{"ha":833,"x_min":21,"x_max":790,"o":"m 483 482 q 286 399 371 482 q 213 264 226 340 q 274 89 193 154 q 406 44 329 44 q 608 135 522 44 q 675 264 663 192 q 619 433 693 368 q 483 482 564 482 m 739 739 l 296 739 l 238 410 q 454 525 326 510 q 490 528 472 528 q 683 436 617 528 q 721 264 738 363 q 586 61 699 140 q 397 0 499 0 q 204 89 272 0 q 186 117 194 101 l 165 0 l 21 0 l 29 42 l 128 42 l 250 739 l 175 739 l 183 781 l 790 781 l 774 578 l 731 578 l 739 739 z "},"ƃ":{"ha":833,"x_min":58,"x_max":811,"o":"m 465 542 q 249 451 343 542 q 163 296 178 385 q 226 104 142 176 q 379 50 289 50 q 601 146 507 50 q 683 296 668 211 q 624 485 704 411 q 465 542 561 542 m 756 831 l 257 831 l 192 460 q 429 590 288 571 q 475 593 451 593 q 689 496 613 593 q 735 296 756 411 q 589 74 711 161 q 369 -1 488 -1 q 157 96 232 -1 q 133 132 143 113 l 110 0 l 58 0 l 206 831 l 119 831 l 128 878 l 811 878 l 793 649 l 746 649 l 756 831 z "},"Ƅ":{"ha":833,"x_min":89,"x_max":769,"o":"m 496 542 q 279 453 374 542 q 192 296 207 385 q 256 104 171 178 q 408 50 318 50 q 631 146 536 50 q 713 296 697 211 q 653 485 732 411 q 496 542 590 542 m 233 819 l 122 799 l 122 846 l 296 878 l 221 460 q 460 590 319 571 q 504 593 482 593 q 718 496 643 593 q 764 296 785 411 q 618 72 740 161 q 400 -1 518 -1 q 188 96 263 -1 q 164 132 174 113 l 140 0 l 89 0 l 233 819 z "},"ƅ":{"ha":833,"x_min":119,"x_max":769,"o":"m 496 542 q 279 451 374 542 q 193 296 208 385 q 257 104 172 178 q 408 50 318 50 q 631 146 536 50 q 713 296 697 211 q 653 485 732 411 q 496 542 590 542 m 232 819 l 121 799 l 121 846 l 294 878 l 221 460 q 460 590 319 571 q 504 593 482 593 q 718 496 643 593 q 764 296 785 411 q 618 72 740 161 q 400 -1 517 -1 q 164 118 228 -1 q 142 300 124 196 l 232 819 z "},"Ɔ":{"ha":833,"x_min":79,"x_max":740,"o":"m 332 -8 q 169 53 219 -8 q 157 58 158 63 q 154 51 156 57 q 128 -4 146 22 l 81 -4 q 115 92 107 46 q 106 186 121 124 l 154 186 q 249 64 163 104 q 342 43 293 43 q 568 156 464 43 q 681 385 657 253 q 626 646 708 544 q 461 725 563 725 q 283 664 368 725 q 251 635 265 650 l 214 665 q 411 769 292 746 q 471 776 443 776 q 688 657 611 776 q 732 385 760 543 q 575 96 701 213 q 332 -8 463 -8 z "},"Ƈ":{"ha":833,"x_min":107,"x_max":925,"o":"m 693 722 q 724 779 701 751 q 761 818 753 813 q 844 847 797 847 q 922 800 910 847 q 922 772 925 788 q 879 735 917 739 q 828 763 840 731 q 826 790 824 774 q 839 819 829 806 q 767 779 808 833 q 732 683 740 729 q 743 592 728 657 l 694 592 q 597 713 685 674 q 506 732 554 732 q 279 619 383 732 q 167 390 190 522 q 222 126 139 229 q 386 49 286 49 q 563 110 478 49 q 596 139 581 124 l 633 110 q 438 4 556 29 q 376 -3 406 -3 q 160 117 236 -3 q 115 390 88 231 q 272 679 146 563 q 515 783 385 783 q 678 722 628 783 q 693 722 690 713 z "},"ƈ":{"ha":833,"x_min":89,"x_max":883,"o":"m 669 524 l 678 544 q 736 596 713 583 q 803 613 767 613 q 881 565 868 613 q 881 538 883 553 q 838 500 875 504 q 786 528 799 496 q 785 556 782 539 q 797 585 788 571 q 725 544 765 599 q 694 467 725 544 q 713 417 704 449 l 661 400 q 535 528 631 493 q 450 542 496 542 q 226 446 322 542 q 146 296 160 381 q 208 110 125 183 q 376 51 275 51 q 557 103 456 51 q 592 122 576 113 l 611 75 q 408 3 528 17 q 367 0 386 0 q 139 100 217 0 q 94 296 74 183 q 239 518 118 431 q 458 593 342 593 q 649 521 568 593 q 669 524 663 511 z "},"Ɖ":{"ha":833,"x_min":3,"x_max":769,"o":"m 196 47 l 421 47 q 606 164 513 47 q 714 394 692 271 q 694 600 731 496 q 543 733 649 733 l 318 733 l 265 439 l 361 439 l 353 392 l 257 392 l 196 47 m 11 47 l 144 47 l 206 392 l 114 392 l 122 439 l 214 439 l 267 733 l 133 733 l 142 781 l 551 781 q 746 622 692 781 q 763 397 782 511 q 660 154 740 269 q 413 0 553 0 l 3 0 l 11 47 z "},"Ɗ":{"ha":833,"x_min":3,"x_max":769,"o":"m 196 47 l 421 47 q 606 164 513 47 q 714 394 692 271 q 694 600 731 496 q 543 733 649 733 l 318 733 l 196 47 m 551 781 q 746 622 692 781 q 763 397 782 511 q 660 154 740 269 q 413 0 553 0 l 3 0 l 11 47 l 144 47 l 267 733 l 133 733 q 72 690 78 733 q 103 692 88 694 q 138 639 146 679 q 94 593 129 603 q 78 590 86 590 q 35 638 42 590 q 43 704 29 669 q 163 781 76 781 l 551 781 z "},"Ƌ":{"ha":833,"x_min":44,"x_max":769,"o":"m 364 482 q 161 393 247 482 q 94 264 107 335 q 151 92 76 158 q 286 44 206 44 q 483 128 399 44 q 557 264 543 188 q 496 438 576 372 q 364 482 440 482 m 197 739 l 150 578 l 107 578 l 163 781 l 769 781 l 761 739 l 686 739 l 564 42 l 663 42 l 654 0 l 510 0 l 531 117 q 311 1 442 15 q 278 0 294 0 q 86 90 153 0 q 49 264 31 165 q 182 465 69 386 q 371 528 271 528 q 564 439 496 528 q 582 410 575 425 l 640 739 l 197 739 z "},"ƌ":{"ha":833,"x_min":36,"x_max":854,"o":"m 397 542 q 174 446 269 542 q 93 296 108 381 q 153 107 72 181 q 311 50 215 50 q 528 139 433 50 q 615 296 600 207 q 550 488 636 414 q 397 542 488 542 m 210 831 l 156 649 l 108 649 l 171 878 l 854 878 l 846 831 l 760 831 l 613 0 l 561 0 l 585 132 q 347 1 489 21 q 301 -1 325 -1 q 88 96 164 -1 q 42 296 21 181 q 188 518 65 431 q 407 593 289 593 q 619 496 544 593 q 643 460 633 479 l 708 831 l 210 831 z "},"ƍ":{"ha":833,"x_min":117,"x_max":751,"o":"m 486 593 q 700 496 624 593 q 746 296 767 411 q 600 74 722 161 q 394 0 506 4 l 376 -101 q 307 -178 368 -146 q 233 -196 269 -196 q 140 -133 157 -196 q 138 -115 139 -125 q 185 -18 133 -47 q 208 -8 196 -11 q 249 -32 240 0 q 225 -96 257 -69 q 196 -110 213 -106 q 167 -108 179 -112 q 207 -168 153 -151 q 240 -174 224 -174 q 329 -137 294 -174 q 349 -100 344 -121 l 367 0 q 161 106 232 6 q 121 296 103 188 q 267 518 144 431 q 486 593 368 593 m 478 542 q 256 447 351 542 q 172 296 188 381 q 233 107 153 181 q 390 50 296 50 q 617 146 524 50 q 694 296 679 210 q 629 492 717 419 q 478 542 568 542 z "},"Ǝ":{"ha":833,"x_min":60,"x_max":810,"o":"m 210 222 l 244 421 l 292 421 l 276 335 l 544 335 l 615 733 l 238 733 l 199 613 l 151 613 l 199 781 l 810 781 l 801 733 l 667 733 l 544 47 l 679 47 l 671 0 l 60 0 l 76 160 l 124 160 l 115 47 l 493 47 l 536 288 l 268 288 l 257 222 l 210 222 z "},"Ə":{"ha":833,"x_min":53,"x_max":769,"o":"m 694 357 q 711 428 706 393 q 644 679 739 585 q 460 750 574 750 q 175 625 310 750 q 122 572 150 601 l 86 603 q 376 792 232 760 q 469 801 421 801 q 714 686 629 801 q 763 428 789 581 q 569 65 721 189 q 304 -26 457 -26 q 103 110 176 -26 q 56 321 44 215 q 57 335 56 328 l 61 357 l 694 357 m 679 306 l 106 306 q 161 117 101 206 q 314 25 224 25 q 644 231 531 25 q 679 306 664 265 z "},"Ɛ":{"ha":833,"x_min":160,"x_max":701,"o":"m 165 232 q 300 421 186 346 q 235 533 243 447 q 236 593 231 564 q 340 740 251 679 q 454 781 400 781 q 611 719 568 781 q 626 721 624 708 q 654 781 636 751 l 701 781 q 665 682 676 735 q 675 586 661 651 l 626 586 q 533 710 618 669 q 444 729 492 729 q 321 667 378 729 q 283 593 290 631 q 317 482 272 528 q 390 450 347 450 l 467 450 l 458 403 l 388 403 q 281 353 336 403 q 213 232 225 304 q 279 61 190 103 q 338 47 307 47 q 529 138 443 47 l 567 108 q 346 -4 468 6 q 328 -4 338 -4 q 201 60 251 -4 q 165 232 147 128 z "},"Ƒ":{"ha":833,"x_min":-18,"x_max":800,"o":"m 67 -167 q 139 -135 93 -178 q 167 -96 164 -112 l 314 733 l 179 733 l 188 781 l 800 781 l 779 560 l 731 560 l 743 733 l 365 733 l 322 493 l 490 493 l 501 558 l 549 558 l 514 360 l 465 360 l 481 446 l 314 446 l 225 -57 q 149 -162 214 -119 q 63 -189 106 -189 q -17 -140 -10 -189 q -17 -119 -18 -131 q 28 -81 -10 -85 q 78 -107 65 -76 q 81 -137 83 -121 q 67 -167 78 -153 z "},"ƒ":{"ha":833,"x_min":-142,"x_max":807,"o":"m 292 -60 q 175 -200 276 -146 q 54 -233 113 -233 q -140 -168 -64 -233 l -104 -126 q 61 -182 -35 -182 q 200 -125 138 -182 q 240 -60 233 -93 l 346 544 l 244 544 l 253 592 l 354 592 l 374 701 q 490 842 389 788 q 611 875 553 875 q 806 810 729 875 l 769 768 q 604 824 700 824 q 465 767 528 824 q 425 701 432 735 l 406 592 l 753 592 l 744 544 l 397 544 l 292 -60 z "},"Ɠ":{"ha":833,"x_min":97,"x_max":921,"o":"m 689 722 q 719 779 704 760 q 776 832 750 818 q 839 847 804 847 q 917 800 904 847 q 918 772 921 788 q 875 735 914 739 q 824 763 836 731 q 822 790 819 774 q 835 819 825 806 q 769 788 804 833 q 763 779 765 783 q 728 683 736 729 q 738 588 722 654 l 689 589 q 592 711 679 669 q 496 732 546 732 q 269 619 374 732 q 157 390 181 522 q 207 122 128 222 q 361 49 265 49 q 588 178 496 49 q 660 344 639 250 l 507 344 l 515 392 l 717 392 l 708 344 q 543 63 669 160 q 351 -3 457 -3 q 139 122 208 -3 q 106 390 78 235 q 261 678 136 561 q 506 783 375 783 q 665 731 617 783 q 672 722 669 726 q 689 722 681 708 z "},"Ɣ":{"ha":833,"x_min":99,"x_max":906,"o":"m 356 -83 l 328 -131 q 338 -178 301 -178 q 358 -92 382 -178 q 356 -83 357 -85 m 624 733 l 632 781 l 904 781 l 896 733 l 824 733 l 394 -14 l 418 -114 q 394 -204 429 -167 q 329 -229 369 -229 q 258 -182 267 -229 q 271 -125 253 -156 l 339 -8 l 172 733 l 99 733 l 107 781 l 379 781 l 371 733 l 228 733 l 379 56 l 768 733 l 624 733 z "},"ƕ":{"ha":833,"x_min":-46,"x_max":814,"o":"m 514 411 l 474 182 q 508 43 454 74 q 549 33 525 33 q 675 135 633 33 q 693 200 686 164 l 754 544 l 636 544 l 644 592 l 814 592 l 742 182 q 618 3 719 56 q 538 -18 578 -18 q 418 99 429 -18 q 422 182 414 136 l 463 411 q 385 560 488 560 q 218 469 332 560 q 207 461 213 465 l 133 47 l 251 47 l 243 0 l -46 0 l -37 47 l 83 47 l 219 819 l 93 788 l 101 835 l 282 878 l 219 522 q 394 611 328 611 q 517 500 500 611 q 514 411 522 460 z "},"Ɩ":{"ha":833,"x_min":250,"x_max":649,"o":"m 389 -18 q 411 -124 379 -75 q 460 -154 432 -154 q 540 -125 508 -154 q 550 -115 546 -121 q 543 -76 540 -90 q 597 1 554 -14 q 644 -19 633 13 q 646 -58 651 -35 q 569 -147 639 -97 q 454 -194 504 -194 q 358 -136 393 -194 q 342 0 326 -82 l 485 818 l 250 763 l 258 810 l 547 878 l 389 -18 z "},"Ɨ":{"ha":833,"x_min":54,"x_max":779,"o":"m 457 733 l 186 733 l 194 781 l 779 781 l 771 733 l 507 733 l 458 458 l 600 458 l 592 411 l 450 411 l 385 47 l 647 47 l 639 0 l 54 0 l 63 47 l 335 47 l 400 411 l 263 411 l 271 458 l 408 458 l 457 733 z "},"Ƙ":{"ha":833,"x_min":-25,"x_max":776,"o":"m 283 401 q 479 238 404 367 q 564 47 518 171 l 728 47 l 719 0 l 526 0 q 378 282 449 208 q 231 360 319 343 q 199 338 211 346 l 147 47 l 274 47 l 265 0 l -25 0 l -17 47 l 97 47 l 218 733 l 104 733 l 113 781 l 403 781 l 394 733 l 268 733 l 211 404 q 497 671 256 438 q 538 710 521 693 q 701 782 614 782 q 774 724 764 782 q 775 714 775 719 q 728 617 779 646 q 704 607 717 610 q 665 631 672 599 q 689 694 656 668 q 717 708 700 704 q 746 707 733 711 q 721 744 753 728 q 703 750 710 750 l 675 750 q 457 563 651 750 q 283 401 324 433 z "},"ƙ":{"ha":833,"x_min":-1,"x_max":714,"o":"m 251 353 l 514 544 l 468 544 l 476 592 l 713 592 l 704 544 l 593 544 l 335 356 l 532 47 l 663 47 l 654 0 l 408 0 l 417 47 l 465 47 l 290 322 l 239 285 l 189 0 l -1 0 l 7 47 l 146 47 l 269 749 q 356 861 283 822 q 432 881 393 881 q 511 829 507 881 q 511 811 513 821 q 468 774 506 778 q 417 801 429 769 q 414 829 411 813 q 428 858 417 843 q 356 825 401 869 q 328 785 331 801 l 251 353 z "},"ƚ":{"ha":833,"x_min":50,"x_max":638,"o":"m 421 818 l 185 763 l 193 810 l 483 878 l 414 486 l 585 486 l 576 439 l 406 439 l 336 47 l 636 47 l 628 0 l 50 0 l 58 47 l 285 47 l 354 439 l 188 439 l 196 486 l 363 486 l 421 818 z "},"ƛ":{"ha":833,"x_min":82,"x_max":564,"o":"m 464 564 l 244 47 l 343 47 l 335 0 l 83 0 l 92 47 l 192 47 l 440 629 q 392 726 418 685 l 286 643 l 261 679 l 368 763 q 242 847 299 860 l 240 897 q 413 799 324 918 l 519 882 l 543 846 l 438 763 q 561 347 543 589 q 524 0 575 160 l 472 0 q 471 542 554 261 q 464 564 468 553 z "},"Ɯ":{"ha":833,"x_min":69,"x_max":913,"o":"m 353 75 q 213 -14 292 13 q 189 -18 197 -18 q 81 100 78 -18 q 92 182 82 129 l 189 733 l 71 733 l 79 781 l 250 781 l 144 182 q 139 68 129 96 q 197 33 151 33 q 354 131 250 33 l 364 182 l 461 733 l 343 733 l 351 781 l 521 781 l 417 182 q 403 92 403 106 q 469 33 406 33 q 622 128 524 33 q 626 132 624 129 l 733 733 l 615 733 l 624 781 l 913 781 l 904 733 l 783 733 l 663 47 l 783 47 l 775 0 l 604 0 l 617 71 q 501 -7 586 28 q 460 -18 474 -18 q 353 75 361 -18 z "},"Ɲ":{"ha":833,"x_min":-136,"x_max":901,"o":"m 201 733 l 69 -11 q 13 -99 61 -62 q -37 -122 -10 -115 q -131 -92 -108 -139 q -136 -71 -135 -82 q -101 -25 -139 -39 q -42 -42 -61 -12 q -33 -65 -35 -51 q -40 -94 -33 -82 q 13 -43 3 -100 l 150 733 l 85 733 l 93 781 l 242 781 l 661 75 l 778 733 l 632 733 l 640 781 l 901 781 l 893 733 l 828 733 l 696 -10 l 644 -10 l 201 733 z "},"ƞ":{"ha":833,"x_min":0,"x_max":732,"o":"m 263 522 q 451 601 393 588 q 524 611 490 611 q 688 535 624 611 q 724 411 735 475 l 613 -219 l 731 -219 l 722 -267 l 433 -267 l 442 -219 l 563 -219 l 674 411 q 629 511 682 460 q 514 560 578 560 q 253 461 421 560 l 179 47 l 297 47 l 289 0 l 0 0 l 8 47 l 129 47 l 217 544 l 96 544 l 104 592 l 276 592 q 263 522 268 574 z "},"Ɵ":{"ha":833,"x_min":78,"x_max":756,"o":"m 235 419 l 607 419 l 599 372 l 226 372 l 235 419 m 486 783 q 701 665 625 783 q 747 390 775 550 q 590 103 717 219 q 347 -3 478 -3 q 132 115 208 -3 q 86 390 58 231 q 243 678 117 561 q 486 783 356 783 m 476 732 q 264 629 367 732 q 138 390 161 528 q 193 126 110 229 q 357 49 257 49 q 579 163 474 49 q 696 390 674 264 q 650 640 721 536 q 476 732 586 732 z "},"Ơ":{"ha":1092,"x_min":78,"x_max":928,"o":"m 900 663 q 781 551 865 586 q 736 538 758 542 l 722 560 q 788 606 761 569 q 796 647 806 629 q 778 721 761 671 q 843 782 794 771 q 868 783 856 785 q 925 733 919 781 q 900 663 929 693 m 486 783 q 701 665 625 783 q 747 390 775 550 q 590 103 717 219 q 347 -3 478 -3 q 132 115 208 -3 q 86 390 58 231 q 243 678 117 561 q 486 783 356 783 m 476 732 q 250 619 354 732 q 138 390 161 522 q 193 126 110 229 q 357 49 257 49 q 583 161 479 49 q 696 390 672 258 q 640 654 724 551 q 476 732 576 732 z "},"ơ":{"ha":1092,"x_min":99,"x_max":874,"o":"m 847 472 q 728 361 813 396 q 683 347 706 351 l 669 369 q 735 415 708 379 q 743 457 753 439 q 725 531 708 481 q 790 592 742 581 q 815 593 803 594 q 872 543 867 590 q 847 472 876 503 m 469 593 q 683 496 607 593 q 729 296 750 411 q 583 74 706 161 q 364 -1 482 -1 q 150 96 226 -1 q 104 296 83 181 q 250 518 128 431 q 469 593 351 593 m 460 542 q 239 447 335 542 q 156 296 171 381 q 215 107 135 181 q 374 50 278 50 q 600 146 507 50 q 678 296 663 210 q 613 492 700 419 q 460 542 551 542 z "},"Ƣ":{"ha":833,"x_min":53,"x_max":814,"o":"m 413 732 q 189 590 278 732 q 115 390 135 504 q 161 106 81 199 q 292 49 210 49 q 517 190 426 49 q 590 390 569 276 q 543 675 624 582 q 413 732 494 732 m 554 742 q 671 783 626 783 q 813 658 800 783 q 808 585 815 622 l 681 -140 l 746 -140 l 738 -187 l 556 -187 l 564 -140 l 631 -140 l 758 583 q 706 725 779 697 q 661 732 686 732 q 586 711 618 732 q 644 408 674 606 q 642 390 643 400 q 485 79 606 190 q 283 -3 394 -3 q 79 139 133 -3 q 64 390 38 243 q 221 701 99 590 q 422 783 311 783 q 554 742 499 783 z "},"ƣ":{"ha":833,"x_min":67,"x_max":822,"o":"m 417 593 q 563 551 503 593 q 679 593 640 593 q 821 467 808 593 q 817 393 824 432 l 722 -140 l 788 -140 l 779 -187 l 597 -187 l 606 -140 l 671 -140 l 765 393 q 710 536 786 511 q 669 542 692 542 q 599 522 628 542 q 657 296 681 435 q 514 65 632 153 q 313 -1 422 -1 q 103 106 168 -1 q 72 296 53 186 q 224 532 99 446 q 417 593 313 593 m 408 542 q 197 443 286 542 q 124 296 138 378 q 179 100 101 172 q 321 50 233 50 q 542 156 456 50 q 606 296 592 217 q 549 490 626 418 q 408 542 493 542 z "},"Ƥ":{"ha":833,"x_min":4,"x_max":804,"o":"m 250 340 l 528 340 q 664 396 593 340 q 753 536 738 453 q 682 710 774 656 q 597 733 642 733 l 319 733 l 250 340 m 606 781 q 754 717 694 781 q 800 536 819 647 q 650 333 776 407 q 519 293 579 293 l 242 293 l 197 47 l 386 47 l 378 0 l 4 0 l 13 47 l 146 47 l 268 733 l 135 733 q 76 699 83 733 q 75 690 75 694 q 104 692 89 694 q 138 636 146 681 q 103 590 131 600 q 81 590 92 588 q 39 664 31 604 q 49 697 42 681 q 158 781 85 781 l 606 781 z "},"ƥ":{"ha":833,"x_min":-31,"x_max":879,"o":"m 443 50 q 665 144 569 50 q 749 296 733 211 q 689 485 768 411 q 532 542 626 542 q 313 451 408 542 q 228 296 243 385 q 293 101 206 175 q 443 50 354 50 m 639 576 q 681 649 668 624 q 810 719 732 731 q 878 665 869 711 q 875 632 881 650 q 826 600 865 597 q 782 635 789 603 q 783 664 779 649 q 801 692 792 682 q 718 661 765 715 q 700 638 707 650 l 660 568 q 796 408 768 519 q 800 296 810 354 q 654 72 776 161 q 436 -1 553 -1 q 219 99 296 -1 q 199 132 208 114 l 139 -203 l 310 -203 l 301 -250 l -31 -250 l -22 -203 l 88 -203 l 219 544 l 108 544 l 117 592 l 279 592 l 256 460 q 496 590 356 571 q 539 593 518 593 q 639 576 588 593 z "},"Ʀ":{"ha":833,"x_min":-65,"x_max":763,"o":"m 190 390 l 490 390 q 642 444 574 390 q 711 561 697 490 q 617 724 733 690 q 550 733 586 733 l 250 733 l 190 390 m 444 343 q 550 138 518 263 q 569 47 558 107 l 667 47 l 658 0 l 528 0 q 474 206 497 153 q 371 343 440 279 l 181 343 l 128 47 l 308 47 l 300 0 l -65 0 l -57 47 l 76 47 l 215 831 l 78 831 l 86 878 l 428 878 l 419 831 l 267 831 l 257 781 l 558 781 q 726 714 671 781 q 758 561 775 656 q 597 369 735 428 q 482 343 538 343 l 444 343 z "},"Ƨ":{"ha":833,"x_min":143,"x_max":704,"o":"m 269 792 l 317 792 q 321 743 324 775 q 322 735 321 736 q 338 742 325 733 q 486 792 414 792 q 665 726 603 792 q 701 600 715 676 q 546 422 681 479 q 383 371 521 411 q 221 278 258 332 q 199 221 204 253 q 260 90 183 136 q 367 64 306 64 q 547 156 468 64 q 563 174 556 164 q 588 214 588 214 l 635 214 q 589 131 607 182 q 586 119 588 124 q 588 58 582 96 q 597 0 597 0 l 550 0 q 540 63 542 31 q 526 72 539 83 q 357 13 444 13 q 182 83 243 13 q 147 221 132 139 q 293 388 167 335 q 454 439 317 399 q 624 535 583 476 q 650 600 643 563 q 582 719 664 679 q 478 740 536 740 q 308 660 390 740 q 269 611 285 635 q 233 610 265 608 q 221 608 225 610 q 272 713 261 644 q 269 792 278 746 z "},"ƨ":{"ha":833,"x_min":144,"x_max":689,"o":"m 247 600 l 294 600 q 301 563 303 586 q 308 558 301 554 q 317 563 310 558 q 465 600 396 600 q 656 542 593 600 q 686 451 696 504 q 532 304 668 347 q 367 265 513 297 q 210 188 240 238 q 199 156 201 174 q 281 57 186 85 q 376 44 322 44 q 557 121 483 44 q 567 131 563 126 q 590 161 590 161 l 638 161 q 594 94 614 139 q 592 83 592 88 q 596 29 588 60 q 607 -17 607 -17 l 560 -17 q 547 32 550 14 q 532 39 544 46 q 367 -7 453 -7 q 179 56 243 -7 q 147 156 136 97 q 294 293 164 251 q 457 332 308 297 q 621 414 588 361 q 635 451 632 431 q 549 539 646 515 q 457 549 508 549 q 281 476 363 549 q 253 446 264 461 l 206 446 q 253 532 242 475 q 247 600 258 567 z "},"Ʃ":{"ha":833,"x_min":-51,"x_max":761,"o":"m -51 0 l -43 47 l 28 47 l 310 390 l 150 733 l 79 733 l 88 781 l 742 781 l 760 599 l 713 599 l 686 733 l 211 733 l 371 390 l 89 47 l 564 47 l 624 182 l 671 182 l 603 0 l -51 0 z "},"ƪ":{"ha":833,"x_min":268,"x_max":554,"o":"m 553 -174 q 465 -242 540 -235 q 449 -243 457 -243 q 343 -185 375 -243 q 333 -111 326 -151 l 481 724 q 375 679 435 679 q 278 738 306 679 q 271 807 264 769 q 351 917 283 879 q 421 935 385 935 q 542 863 518 935 q 544 792 551 832 l 376 -161 q 407 -214 371 -192 q 453 -221 432 -229 q 450 -192 447 -207 q 500 -137 457 -149 q 551 -153 539 -128 q 553 -174 556 -161 m 501 846 q 440 907 490 894 q 417 910 428 910 q 317 854 356 910 q 297 807 301 832 q 335 717 286 746 q 379 704 354 704 q 481 758 440 704 q 489 772 485 765 l 501 846 z "},"ƫ":{"ha":833,"x_min":117,"x_max":713,"o":"m 478 -89 q 392 -181 456 -179 q 361 -147 361 -182 q 396 -89 361 -108 q 428 -81 410 -81 q 456 -89 443 -81 q 474 -6 465 -64 q 382 -26 421 -26 q 210 49 276 -26 q 165 196 151 114 l 226 544 l 117 544 l 125 592 l 233 592 l 267 775 l 318 775 l 285 592 l 635 592 l 626 544 l 276 544 l 215 196 q 269 68 203 122 q 390 25 321 25 q 679 185 490 25 l 711 151 q 496 3 601 51 q 478 -89 486 -53 z "},"Ƭ":{"ha":833,"x_min":33,"x_max":828,"o":"m 453 733 l 158 733 q 71 694 72 733 q 101 696 85 697 q 133 640 142 685 q 97 594 126 603 q 76 594 88 592 q 35 667 26 608 q 44 701 38 683 q 135 779 72 767 q 146 781 140 781 l 828 781 l 792 497 l 743 497 l 771 733 l 503 733 l 381 47 l 588 47 l 579 0 l 117 0 l 125 47 l 331 47 l 453 733 z "},"ƭ":{"ha":833,"x_min":88,"x_max":683,"o":"m 257 592 l 606 592 l 597 544 l 247 544 l 186 196 q 239 68 174 122 q 361 25 292 25 q 650 185 461 25 l 682 151 q 431 -11 551 31 q 353 -26 388 -26 q 181 49 247 -26 q 136 196 121 114 l 197 544 l 88 544 l 96 592 l 204 592 l 244 822 q 332 933 258 894 q 411 954 371 954 q 492 903 486 954 q 490 885 492 894 q 447 847 486 851 q 396 875 408 843 q 394 903 392 886 q 407 932 397 917 q 333 896 383 943 q 303 851 306 868 l 257 592 z "},"Ʈ":{"ha":833,"x_min":90,"x_max":839,"o":"m 514 733 l 376 -47 q 407 -99 372 -72 q 456 -110 435 -118 q 451 -81 449 -96 q 501 -26 458 -37 q 553 -42 540 -17 q 554 -62 557 -50 q 475 -131 544 -119 q 450 -132 463 -132 q 335 -57 356 -132 q 333 0 328 -31 l 463 733 l 194 733 l 139 497 l 92 497 l 157 781 l 839 781 l 806 497 l 757 497 l 782 733 l 514 733 z "},"Ư":{"ha":1092,"x_min":100,"x_max":975,"o":"m 947 663 q 828 551 913 586 q 783 538 806 542 l 769 560 q 835 606 808 569 q 843 647 853 629 q 825 721 808 671 q 890 782 842 771 q 915 783 903 785 q 972 733 967 781 q 947 663 976 693 m 856 733 l 757 733 l 672 249 q 571 86 657 165 q 347 -10 468 -10 q 154 94 225 -10 q 114 249 100 174 l 199 733 l 100 733 l 108 781 l 392 781 l 383 733 l 244 733 l 160 249 q 199 125 150 194 q 354 38 261 38 q 558 138 465 38 q 625 249 615 197 l 710 733 l 572 733 l 581 781 l 864 781 l 856 733 z "},"ư":{"ha":1092,"x_min":75,"x_max":826,"o":"m 800 472 q 681 361 765 396 q 636 347 658 351 l 622 369 q 688 415 661 379 q 696 457 706 439 q 678 531 661 481 q 743 592 694 581 q 768 593 756 594 q 825 543 819 590 q 800 472 829 503 m 592 71 q 532 42 540 46 q 331 -18 410 -18 q 174 56 239 -18 q 131 182 118 117 l 194 544 l 76 544 l 85 592 l 254 592 l 181 182 q 225 82 172 133 q 340 33 276 33 q 601 132 433 33 l 675 544 l 557 544 l 565 592 l 735 592 l 639 49 l 758 49 l 750 0 l 579 0 l 592 71 z "},"Ʊ":{"ha":833,"x_min":75,"x_max":813,"o":"m 631 746 l 626 721 q 663 551 615 653 q 719 403 711 447 q 721 307 729 354 q 550 54 690 138 q 347 0 460 0 q 111 111 179 0 q 82 307 61 190 q 190 507 97 393 q 290 639 272 607 q 322 721 315 681 l 326 746 l 213 746 l 153 636 l 113 653 l 188 793 l 386 793 l 374 721 q 268 529 360 639 q 167 394 186 429 q 133 307 140 350 q 213 88 106 154 q 356 51 269 51 q 608 168 519 51 q 669 307 654 226 q 632 485 682 381 q 575 626 583 586 q 574 721 565 674 l 586 793 l 785 793 l 813 653 l 764 636 l 743 746 l 631 746 z "},"Ʋ":{"ha":833,"x_min":100,"x_max":865,"o":"m 856 733 l 757 733 l 672 249 q 571 86 657 165 q 347 -10 468 -10 q 154 94 225 -10 q 114 249 100 174 l 199 733 l 100 733 l 108 781 l 392 781 l 383 733 l 244 733 l 160 249 q 199 125 150 194 q 354 38 261 38 q 558 138 465 38 q 625 249 615 197 l 710 733 l 572 733 l 581 781 l 864 781 l 856 733 z "},"Ƴ":{"ha":833,"x_min":42,"x_max":821,"o":"m 200 715 q 156 750 185 743 q 79 711 81 750 q 108 713 93 715 q 142 657 150 701 q 106 611 135 621 q 85 611 96 608 q 43 685 35 625 q 53 718 44 701 q 174 781 79 781 q 253 735 226 781 l 424 433 l 700 733 l 617 733 l 625 781 l 821 781 l 813 733 l 764 733 l 439 379 l 379 47 l 460 47 l 451 0 l 240 0 l 249 47 l 328 47 l 388 379 l 200 715 z "},"ƴ":{"ha":833,"x_min":-74,"x_max":893,"o":"m 396 58 l 721 544 l 618 544 l 626 592 l 892 592 l 883 544 l 778 544 l 289 -186 l 331 -186 l 322 -233 l -72 -233 l -64 -186 l 232 -186 l 356 0 l 189 526 q 156 558 183 544 q 143 561 149 561 q 68 522 69 561 q 97 524 81 526 q 131 468 139 513 q 94 422 124 432 q 74 422 85 419 q 32 496 24 436 q 40 529 33 513 q 161 592 68 592 q 233 561 208 592 q 242 546 239 554 l 396 58 z "},"Ƶ":{"ha":833,"x_min":104,"x_max":711,"o":"m 539 47 l 593 264 l 642 264 l 575 0 l 104 0 l 110 28 l 385 397 l 232 397 l 240 444 l 419 444 l 633 733 l 289 733 l 242 521 l 193 521 l 251 781 l 711 781 l 704 749 l 479 444 l 624 444 l 615 397 l 443 397 l 183 47 l 539 47 z "},"ƶ":{"ha":833,"x_min":85,"x_max":746,"o":"m 738 544 l 518 354 l 651 354 l 643 307 l 464 307 l 165 47 l 626 47 l 636 97 l 683 97 l 665 0 l 85 0 l 93 47 l 392 307 l 247 307 l 256 354 l 446 354 l 665 544 l 207 544 l 197 494 l 150 494 l 168 592 l 746 592 l 738 544 z "},"Ʒ":{"ha":833,"x_min":128,"x_max":671,"o":"m 285 481 l 293 526 l 599 739 l 289 739 l 282 694 l 240 694 l 256 781 l 671 781 l 663 739 l 357 526 l 393 526 q 588 435 521 526 q 625 264 642 361 q 488 61 603 139 q 289 0 397 0 q 140 43 201 0 q 129 51 135 47 l 160 93 q 297 46 224 46 q 508 135 419 46 q 579 264 567 192 q 522 432 597 367 q 385 481 468 481 l 285 481 z "},"Ƹ":{"ha":833,"x_min":65,"x_max":622,"o":"m 485 481 l 383 481 q 182 393 268 481 q 114 264 126 335 q 174 94 96 161 q 318 46 232 46 q 472 93 394 46 l 490 51 q 310 0 396 1 q 106 94 174 0 q 69 264 53 167 q 203 464 90 385 q 392 526 290 526 l 429 526 l 199 739 l 207 781 l 622 781 l 607 694 l 565 694 l 572 739 l 263 739 l 493 526 l 485 481 z "},"ƹ":{"ha":833,"x_min":33,"x_max":660,"o":"m 507 251 l 393 251 q 171 157 264 251 q 90 8 104 92 q 154 -179 69 -106 q 319 -236 219 -236 q 492 -183 404 -236 l 513 -229 q 326 -287 419 -285 q 310 -287 319 -287 q 82 -187 160 -287 q 39 8 18 -104 q 185 231 63 143 q 401 303 285 303 q 443 304 403 303 l 185 544 l 193 592 l 660 592 l 642 494 l 594 494 l 604 544 l 257 544 l 515 304 l 507 251 z "},"ƺ":{"ha":833,"x_min":40,"x_max":672,"o":"m 319 304 l 361 304 q 553 246 490 304 q 583 154 593 208 q 429 7 565 50 q 263 -32 408 0 q 106 -110 136 -60 q 93 -142 97 -124 q 175 -240 82 -211 q 271 -253 217 -253 q 453 -176 379 -253 q 461 -167 457 -171 l 486 -136 l 533 -136 q 490 -201 510 -158 q 486 -214 488 -210 q 490 -268 483 -235 q 503 -314 503 -314 l 456 -314 q 443 -265 456 -314 q 428 -257 440 -250 q 263 -303 351 -303 q 75 -242 139 -303 q 42 -142 32 -199 q 190 -4 58 -46 q 353 33 206 0 q 518 117 485 64 q 532 154 528 133 q 443 243 543 219 q 351 253 403 253 l 238 253 l 247 304 l 590 544 l 243 544 l 235 494 l 188 494 l 204 592 l 671 592 l 663 544 l 319 304 z "},"ƻ":{"ha":833,"x_min":125,"x_max":744,"o":"m 349 450 l 546 450 l 558 460 l 560 461 q 642 596 628 519 q 578 713 656 676 q 485 731 539 731 q 268 576 329 731 q 247 503 254 542 l 196 503 l 208 568 q 501 781 304 781 q 669 711 618 781 q 693 596 706 664 q 618 450 678 511 l 744 450 l 736 403 l 561 403 q 415 315 542 389 l 297 249 q 197 111 211 192 l 185 47 l 549 47 l 571 171 l 618 171 l 588 0 l 125 0 l 146 111 q 297 304 164 218 q 449 389 304 308 q 474 403 461 396 l 340 403 l 349 450 z "},"Ƽ":{"ha":833,"x_min":69,"x_max":782,"o":"m 351 729 l 308 481 l 469 481 q 675 379 626 481 q 688 249 701 325 q 524 40 663 110 q 347 -1 440 -1 q 83 94 199 -1 q 71 104 76 99 l 108 146 q 317 51 204 63 q 357 50 336 50 q 574 132 489 50 q 636 249 625 182 q 543 418 660 382 q 460 429 507 429 l 247 429 l 300 729 l 190 729 l 200 781 l 782 781 l 772 729 l 351 729 z "},"ƽ":{"ha":833,"x_min":86,"x_max":765,"o":"m 335 540 l 306 378 l 467 378 q 699 243 689 378 q 696 197 700 222 q 542 33 676 89 q 364 -1 458 -1 q 100 94 215 -1 q 88 104 93 99 l 125 146 q 333 51 221 63 q 374 50 353 50 q 596 119 515 50 q 644 197 636 153 q 518 324 663 306 q 458 326 492 326 l 246 326 l 283 540 l 174 540 l 183 592 l 765 592 l 756 540 l 335 540 z "},"ƾ":{"ha":833,"x_min":128,"x_max":631,"o":"m 467 789 l 518 789 l 494 656 l 596 656 l 588 608 l 486 608 l 468 504 q 517 404 461 461 q 592 326 579 342 q 626 190 639 263 q 483 28 607 81 q 340 0 415 0 q 156 67 213 0 q 131 165 121 108 l 135 190 l 186 190 l 182 165 q 256 68 171 99 q 351 53 299 53 q 533 115 468 53 q 575 190 568 149 q 519 329 588 260 l 453 396 q 417 504 407 449 l 435 608 l 333 608 l 342 656 l 443 656 l 467 789 z "},"ƿ":{"ha":833,"x_min":-19,"x_max":815,"o":"m 158 -157 l 150 -203 l 321 -203 l 313 -250 l -19 -250 l -11 -203 l 99 -203 l 231 544 l 119 544 l 128 592 l 290 592 l 268 460 q 507 590 367 571 q 551 593 529 593 q 765 496 689 593 q 811 296 831 411 q 592 49 786 154 q 343 -61 540 22 q 158 -157 215 -115 m 168 -106 q 393 6 214 -72 q 682 169 606 97 q 760 296 747 229 q 700 485 779 411 q 543 542 638 542 q 325 453 421 542 q 239 296 254 385 l 168 -106 z "},"ǀ":{"ha":833,"x_min":286,"x_max":513,"o":"m 511 781 l 339 -199 l 288 -199 l 460 781 l 511 781 z "},"ǁ":{"ha":833,"x_min":213,"x_max":606,"o":"m 438 781 l 265 -199 l 214 -199 l 386 781 l 438 781 m 604 781 l 432 -199 l 381 -199 l 553 781 l 604 781 z "},"ǂ":{"ha":833,"x_min":249,"x_max":597,"o":"m 511 781 l 458 483 l 596 483 l 588 436 l 450 436 l 436 351 l 574 351 l 565 304 l 428 304 l 339 -199 l 288 -199 l 376 304 l 250 304 l 258 351 l 385 351 l 399 436 l 272 436 l 281 483 l 407 483 l 460 781 l 511 781 z "},"ǃ":{"ha":833,"x_min":217,"x_max":490,"o":"m 489 847 l 364 217 l 313 217 l 410 847 l 489 847 m 219 53 q 281 122 228 100 q 322 131 301 131 q 394 89 376 131 q 399 53 401 72 q 338 -17 389 6 q 296 -25 317 -25 q 222 17 240 -25 q 219 53 215 33 z "},"Ǆ":{"ha":833,"x_min":-64,"x_max":982,"o":"m 40 47 l 113 47 q 307 304 240 47 q 326 394 318 347 q 338 650 358 576 q 233 733 314 733 l 161 733 l 40 47 m -54 47 l -11 47 l 110 733 l 67 733 l 75 781 l 242 781 q 385 456 433 781 q 375 397 381 432 q 242 58 331 146 q 104 0 183 0 l -62 0 l -54 47 m 667 47 l 719 264 l 767 264 l 701 0 l 350 0 l 354 28 l 760 733 l 532 733 l 485 521 l 438 521 l 496 781 l 836 781 l 831 749 l 428 47 l 667 47 m 982 1082 l 703 843 l 661 843 l 463 1082 l 494 1110 l 700 925 l 958 1110 l 982 1082 z "},"ǅ":{"ha":833,"x_min":-53,"x_max":963,"o":"m 803 544 l 463 47 l 693 47 l 701 97 l 749 97 l 732 0 l 382 0 l 390 47 l 731 544 l 503 544 l 494 494 l 447 494 l 464 592 l 811 592 l 803 544 m 963 950 l 682 710 l 642 710 l 444 950 l 476 978 l 681 793 l 939 978 l 963 950 m 51 47 l 124 47 q 318 304 251 47 q 338 394 329 347 q 349 650 369 576 q 244 733 326 733 l 172 733 l 51 47 m -43 47 l 0 47 l 121 733 l 78 733 l 86 781 l 253 781 q 396 456 444 781 q 386 397 393 432 q 253 58 343 146 q 115 0 194 0 l -51 0 l -43 47 z "},"ǆ":{"ha":833,"x_min":-25,"x_max":963,"o":"m 803 544 l 457 47 l 693 47 l 701 97 l 749 97 l 732 0 l 382 0 l 390 47 l 736 544 l 503 544 l 494 494 l 447 494 l 464 592 l 811 592 l 803 544 m 963 950 l 682 710 l 642 710 l 444 950 l 476 978 l 681 793 l 939 978 l 963 950 m 207 594 q 301 529 269 594 q 308 514 306 522 l 363 821 l 188 785 l 196 832 l 425 878 l 322 296 l 278 47 l 325 47 l 317 0 l 218 0 l 232 78 q 101 -3 169 -3 q -12 108 18 -3 q -15 296 -35 190 q 135 576 24 518 q 207 594 168 594 m 197 543 q 49 357 97 543 q 36 296 42 328 q 61 78 10 150 q 110 49 83 49 q 206 115 156 49 q 264 258 249 176 l 276 333 q 257 511 299 453 q 197 543 235 543 z "},"Ǉ":{"ha":833,"x_min":-28,"x_max":953,"o":"m 533 315 q 510 147 510 182 q 581 50 510 50 q 703 199 676 50 l 797 733 l 689 733 l 697 781 l 953 781 l 944 733 l 849 733 l 754 199 q 682 35 733 79 q 572 -1 639 -1 q 461 199 425 -1 l 482 315 l 533 315 m 194 733 l 104 733 l 113 781 l 344 781 l 336 733 l 246 733 l 125 47 l 276 47 l 351 310 l 399 310 l 317 0 l -26 0 l -18 47 l 74 47 l 194 733 z "},"ǈ":{"ha":833,"x_min":-4,"x_max":847,"o":"m 218 733 l 128 733 l 136 781 l 368 781 l 360 733 l 269 733 l 149 47 l 375 47 l 450 310 l 497 310 l 415 0 l -3 0 l 6 47 l 97 47 l 218 733 m 847 781 l 824 646 l 721 646 l 744 781 l 847 781 m 329 -186 q 457 -222 369 -217 q 475 -222 465 -222 q 606 -140 544 -222 q 651 -43 643 -92 l 756 544 l 574 544 l 582 592 l 815 592 l 703 -43 q 615 -201 689 -128 q 465 -274 544 -274 q 299 -232 356 -274 l 329 -186 z "},"ǉ":{"ha":833,"x_min":24,"x_max":851,"o":"m 851 781 l 828 646 l 725 646 l 749 781 l 851 781 m 333 -186 q 461 -222 374 -217 q 478 -222 469 -222 q 608 -140 547 -222 q 654 -43 646 -92 l 758 544 l 576 544 l 585 592 l 819 592 l 707 -43 q 619 -201 692 -128 q 469 -274 547 -274 q 303 -232 357 -274 l 333 -186 m 394 818 l 158 763 l 167 810 l 456 878 l 310 47 l 610 47 l 601 0 l 25 0 l 33 47 l 258 47 l 394 818 z "},"Ǌ":{"ha":833,"x_min":-56,"x_max":954,"o":"m 349 139 l 453 733 l 344 733 l 353 781 l 576 781 l 568 733 l 504 733 l 374 -10 l 322 -10 l 186 697 l 183 697 l 68 47 l 181 47 l 172 0 l -56 0 l -47 47 l 17 47 l 138 733 l 74 733 l 82 781 l 229 781 l 349 139 m 533 315 q 510 147 510 182 q 581 50 510 50 q 703 199 676 50 l 797 733 l 689 733 l 697 781 l 953 781 l 944 733 l 849 733 l 754 199 q 682 35 733 79 q 574 -1 640 -1 q 461 199 426 -1 l 482 315 l 533 315 z "},"ǋ":{"ha":833,"x_min":-33,"x_max":875,"o":"m 356 -186 q 483 -222 396 -217 q 501 -222 492 -222 q 632 -140 571 -222 q 678 -43 669 -92 l 782 544 l 600 544 l 608 592 l 843 592 l 731 -43 q 643 -201 717 -128 q 493 -274 572 -274 q 325 -232 381 -274 l 356 -186 m 875 781 l 851 646 l 747 646 l 771 781 l 875 781 m 371 139 l 476 733 l 368 733 l 376 781 l 600 781 l 592 733 l 528 733 l 397 -10 l 346 -10 l 208 697 l 206 697 l 92 47 l 204 47 l 196 0 l -32 0 l -24 47 l 40 47 l 161 733 l 97 733 l 106 781 l 253 781 l 371 139 z "},"ǌ":{"ha":833,"x_min":11,"x_max":875,"o":"m 356 -186 q 483 -222 396 -217 q 501 -222 492 -222 q 632 -140 571 -222 q 678 -43 669 -92 l 782 544 l 600 544 l 608 592 l 843 592 l 731 -43 q 643 -201 717 -128 q 493 -274 572 -274 q 325 -232 381 -274 l 356 -186 m 875 781 l 851 646 l 747 646 l 771 781 l 875 781 m 249 522 q 321 592 296 578 q 397 611 353 611 q 496 476 507 611 q 488 411 494 450 l 424 47 l 493 47 l 485 0 l 297 0 l 306 47 l 372 47 l 436 411 q 440 529 451 501 q 389 560 428 560 q 306 524 342 560 l 242 458 q 236 453 239 456 l 165 47 l 240 47 l 232 0 l 13 0 l 21 47 l 114 47 l 201 544 l 108 544 l 117 592 l 261 592 l 249 522 m 875 781 l 771 781 l 747 646 l 851 646 l 875 781 z "},"Ǎ":{"ha":833,"x_min":-29,"x_max":733,"o":"m 661 1035 l 465 867 l 436 867 l 297 1035 l 321 1054 l 464 925 l 646 1054 l 661 1035 m 314 393 l 525 393 l 478 724 l 314 393 m 440 47 l 574 47 l 531 342 l 292 342 l 143 47 l 275 47 l 267 0 l -29 0 l -21 47 l 89 47 l 431 733 l 231 733 l 239 781 l 526 781 l 628 47 l 732 47 l 724 0 l 432 0 l 440 47 z "},"ǎ":{"ha":833,"x_min":36,"x_max":706,"o":"m 549 858 l 353 690 l 324 690 l 185 858 l 208 878 l 351 749 l 533 878 l 549 858 m 575 332 q 324 369 436 369 q 143 296 215 369 q 92 199 101 253 q 163 61 76 110 q 286 32 215 32 q 485 100 397 32 q 543 153 511 121 l 575 332 m 576 47 l 706 47 l 697 0 l 517 0 l 529 75 q 301 -19 426 -12 q 276 -19 289 -19 q 85 50 156 -19 q 40 199 25 110 q 176 379 61 314 q 332 421 251 421 q 585 385 449 421 l 589 408 q 529 514 599 467 q 375 556 465 556 q 143 496 289 556 l 132 543 q 219 575 132 543 q 385 607 324 607 q 594 536 518 607 q 640 408 653 481 l 576 47 z "},"Ǐ":{"ha":833,"x_min":54,"x_max":779,"o":"m 665 1035 l 469 867 l 440 867 l 301 1035 l 325 1054 l 468 925 l 650 1054 l 665 1035 m 457 733 l 186 733 l 194 781 l 779 781 l 771 733 l 507 733 l 385 47 l 647 47 l 639 0 l 54 0 l 63 47 l 335 47 l 457 733 z "},"ǐ":{"ha":833,"x_min":90,"x_max":650,"o":"m 642 844 l 446 676 l 417 676 l 278 844 l 301 864 l 444 735 l 626 864 l 642 844 m 446 544 l 188 544 l 196 592 l 506 592 l 408 47 l 649 47 l 640 0 l 90 0 l 99 47 l 357 47 l 446 544 z "},"Ǒ":{"ha":833,"x_min":78,"x_max":756,"o":"m 665 1035 l 469 867 l 440 867 l 301 1035 l 325 1054 l 468 925 l 650 1054 l 665 1035 m 486 783 q 701 665 625 783 q 747 390 775 550 q 590 103 717 219 q 347 -3 478 -3 q 132 115 208 -3 q 86 390 58 231 q 243 678 117 561 q 486 783 356 783 m 476 732 q 250 619 354 732 q 138 390 161 522 q 193 126 110 229 q 357 49 257 49 q 583 161 479 49 q 696 390 672 258 q 640 654 724 551 q 476 732 576 732 z "},"ǒ":{"ha":833,"x_min":99,"x_max":735,"o":"m 632 844 l 436 676 l 407 676 l 268 844 l 292 864 l 435 735 l 617 864 l 632 844 m 469 593 q 683 496 607 593 q 729 296 750 411 q 583 74 706 161 q 364 -1 482 -1 q 150 96 226 -1 q 104 296 83 181 q 250 518 128 431 q 469 593 351 593 m 460 542 q 239 447 335 542 q 156 296 171 381 q 215 107 135 181 q 374 50 278 50 q 600 146 507 50 q 678 296 663 210 q 613 492 700 419 q 460 542 551 542 z "},"Ǔ":{"ha":833,"x_min":100,"x_max":865,"o":"m 665 1035 l 469 867 l 440 867 l 301 1035 l 325 1054 l 468 925 l 650 1054 l 665 1035 m 856 733 l 757 733 l 672 249 q 571 86 657 165 q 347 -10 468 -10 q 154 94 225 -10 q 114 249 100 174 l 199 733 l 100 733 l 108 781 l 392 781 l 383 733 l 244 733 l 160 249 q 199 125 150 194 q 354 38 261 38 q 558 138 465 38 q 625 249 615 197 l 710 733 l 572 733 l 581 781 l 864 781 l 856 733 z "},"ǔ":{"ha":833,"x_min":75,"x_max":758,"o":"m 572 844 l 376 676 l 347 676 l 208 844 l 232 864 l 375 735 l 557 864 l 572 844 m 592 71 q 532 42 540 46 q 331 -18 410 -18 q 174 56 239 -18 q 131 182 118 117 l 194 544 l 76 544 l 85 592 l 254 592 l 181 182 q 225 82 172 133 q 340 33 276 33 q 601 132 433 33 l 675 544 l 557 544 l 565 592 l 735 592 l 639 49 l 758 49 l 750 0 l 579 0 l 592 71 z "},"Ǖ":{"ha":833,"x_min":100,"x_max":865,"o":"m 236 1103 l 718 1103 l 710 1056 l 228 1056 l 236 1103 m 289 919 q 332 969 296 956 q 351 972 342 972 q 394 939 386 972 q 394 919 396 929 q 351 869 388 883 q 332 867 342 867 q 289 900 297 867 q 289 919 288 910 m 507 919 q 550 969 514 956 q 569 972 560 972 q 613 939 604 972 q 613 919 614 929 q 569 869 606 883 q 550 867 560 867 q 507 900 515 867 q 507 919 506 910 m 856 733 l 757 733 l 672 249 q 571 86 657 165 q 347 -10 468 -10 q 154 94 225 -10 q 114 249 100 174 l 199 733 l 100 733 l 108 781 l 392 781 l 383 733 l 244 733 l 160 249 q 199 125 150 194 q 354 38 261 38 q 558 138 465 38 q 625 249 615 197 l 710 733 l 572 733 l 581 781 l 864 781 l 856 733 z "},"ǖ":{"ha":833,"x_min":75,"x_max":758,"o":"m 142 913 l 624 913 l 615 865 l 133 865 l 142 913 m 194 729 q 238 779 201 765 q 257 782 247 782 q 300 749 292 782 q 300 729 301 739 q 257 679 293 693 q 238 676 247 676 q 194 710 203 676 q 194 729 193 719 m 413 729 q 456 779 419 765 q 475 782 465 782 q 518 749 510 782 q 518 729 519 739 q 475 679 511 693 q 456 676 465 676 q 413 710 421 676 q 413 729 411 719 m 592 71 q 532 42 540 46 q 331 -18 410 -18 q 174 56 239 -18 q 131 182 118 117 l 194 544 l 76 544 l 85 592 l 254 592 l 181 182 q 225 82 172 133 q 340 33 276 33 q 601 132 433 33 l 675 544 l 557 544 l 565 592 l 735 592 l 639 49 l 758 49 l 750 0 l 579 0 l 592 71 z "},"Ǘ":{"ha":833,"x_min":100,"x_max":865,"o":"m 772 1299 l 496 1056 l 432 1056 l 643 1299 l 772 1299 m 289 919 q 332 969 296 956 q 351 972 342 972 q 394 939 386 972 q 394 919 396 929 q 351 869 388 883 q 332 867 342 867 q 289 900 297 867 q 289 919 288 910 m 507 919 q 550 969 514 956 q 569 972 560 972 q 613 939 604 972 q 613 919 614 929 q 569 869 606 883 q 550 867 560 867 q 507 900 515 867 q 507 919 506 910 m 856 733 l 757 733 l 672 249 q 571 86 657 165 q 347 -10 468 -10 q 154 94 225 -10 q 114 249 100 174 l 199 733 l 100 733 l 108 781 l 392 781 l 383 733 l 244 733 l 160 249 q 199 125 150 194 q 354 38 261 38 q 558 138 465 38 q 625 249 615 197 l 710 733 l 572 733 l 581 781 l 864 781 l 856 733 z "},"ǘ":{"ha":833,"x_min":75,"x_max":758,"o":"m 676 1108 l 400 865 l 336 865 l 547 1108 l 676 1108 m 194 729 q 238 779 201 765 q 257 782 247 782 q 300 749 292 782 q 300 729 301 739 q 257 679 293 693 q 238 676 247 676 q 194 710 203 676 q 194 729 193 719 m 413 729 q 456 779 419 765 q 475 782 465 782 q 518 749 510 782 q 518 729 519 739 q 475 679 511 693 q 456 676 465 676 q 413 710 421 676 q 413 729 411 719 m 592 71 q 532 42 540 46 q 331 -18 410 -18 q 174 56 239 -18 q 131 182 118 117 l 194 544 l 76 544 l 85 592 l 254 592 l 181 182 q 225 82 172 133 q 340 33 276 33 q 601 132 433 33 l 675 544 l 557 544 l 565 592 l 735 592 l 639 49 l 758 49 l 750 0 l 579 0 l 592 71 z "},"Ǚ":{"ha":833,"x_min":100,"x_max":865,"o":"m 699 1224 l 503 1056 l 474 1056 l 335 1224 l 358 1243 l 501 1114 l 683 1243 l 699 1224 m 289 919 q 332 969 296 956 q 351 972 342 972 q 394 939 386 972 q 394 919 396 929 q 351 869 388 883 q 332 867 342 867 q 289 900 297 867 q 289 919 288 910 m 507 919 q 550 969 514 956 q 569 972 560 972 q 613 939 604 972 q 613 919 614 929 q 569 869 606 883 q 550 867 560 867 q 507 900 515 867 q 507 919 506 910 m 856 733 l 757 733 l 672 249 q 571 86 657 165 q 347 -10 468 -10 q 154 94 225 -10 q 114 249 100 174 l 199 733 l 100 733 l 108 781 l 392 781 l 383 733 l 244 733 l 160 249 q 199 125 150 194 q 354 38 261 38 q 558 138 465 38 q 625 249 615 197 l 710 733 l 572 733 l 581 781 l 864 781 l 856 733 z "},"ǚ":{"ha":833,"x_min":75,"x_max":758,"o":"m 606 1033 l 410 865 l 381 865 l 242 1033 l 265 1053 l 408 924 l 590 1053 l 606 1033 m 194 729 q 238 779 201 765 q 257 782 247 782 q 300 749 292 782 q 300 729 301 739 q 257 679 293 693 q 238 676 247 676 q 194 710 203 676 q 194 729 193 719 m 413 729 q 456 779 419 765 q 475 782 465 782 q 518 749 510 782 q 518 729 519 739 q 475 679 511 693 q 456 676 465 676 q 413 710 421 676 q 413 729 411 719 m 592 71 q 532 42 540 46 q 331 -18 410 -18 q 174 56 239 -18 q 131 182 118 117 l 194 544 l 76 544 l 85 592 l 254 592 l 181 182 q 225 82 172 133 q 340 33 276 33 q 601 132 433 33 l 675 544 l 557 544 l 565 592 l 735 592 l 639 49 l 758 49 l 750 0 l 579 0 l 592 71 z "},"Ǜ":{"ha":833,"x_min":100,"x_max":865,"o":"m 240 1299 l 369 1299 l 497 1056 l 432 1056 l 240 1299 m 289 919 q 332 969 296 956 q 351 972 342 972 q 394 939 386 972 q 394 919 396 929 q 351 869 388 883 q 332 867 342 867 q 289 900 297 867 q 289 919 288 910 m 507 919 q 550 969 514 956 q 569 972 560 972 q 613 939 604 972 q 613 919 614 929 q 569 869 606 883 q 550 867 560 867 q 507 900 515 867 q 507 919 506 910 m 856 733 l 757 733 l 672 249 q 571 86 657 165 q 347 -10 468 -10 q 154 94 225 -10 q 114 249 100 174 l 199 733 l 100 733 l 108 781 l 392 781 l 383 733 l 244 733 l 160 249 q 199 125 150 194 q 354 38 261 38 q 558 138 465 38 q 625 249 615 197 l 710 733 l 572 733 l 581 781 l 864 781 l 856 733 z "},"ǜ":{"ha":833,"x_min":75,"x_max":758,"o":"m 146 1108 l 275 1108 l 403 865 l 338 865 l 146 1108 m 194 729 q 238 779 201 765 q 257 782 247 782 q 300 749 292 782 q 300 729 301 739 q 257 679 293 693 q 238 676 247 676 q 194 710 203 676 q 194 729 193 719 m 413 729 q 456 779 419 765 q 475 782 465 782 q 518 749 510 782 q 518 729 519 739 q 475 679 511 693 q 456 676 465 676 q 413 710 421 676 q 413 729 411 719 m 592 71 q 532 42 540 46 q 331 -18 410 -18 q 174 56 239 -18 q 131 182 118 117 l 194 544 l 76 544 l 85 592 l 254 592 l 181 182 q 225 82 172 133 q 340 33 276 33 q 601 132 433 33 l 675 544 l 557 544 l 565 592 l 735 592 l 639 49 l 758 49 l 750 0 l 579 0 l 592 71 z "},"ǝ":{"ha":833,"x_min":106,"x_max":740,"o":"m 158 247 q 251 83 163 140 q 379 49 307 49 q 601 144 507 49 q 669 247 647 190 l 158 247 m 111 294 l 683 294 q 621 479 703 406 q 458 539 556 539 q 233 471 347 539 q 217 461 225 467 l 190 501 q 428 589 292 575 q 468 590 449 590 q 683 496 604 590 q 735 294 756 411 q 589 72 711 160 q 369 -3 488 -3 q 156 94 231 -3 q 111 294 90 178 z "},"Ǟ":{"ha":833,"x_min":-29,"x_max":733,"o":"m 240 1103 l 722 1103 l 714 1056 l 232 1056 l 240 1103 m 290 919 q 333 969 297 956 q 353 972 343 972 q 396 939 388 972 q 396 919 397 929 q 353 869 389 883 q 333 867 343 867 q 290 900 299 867 q 290 919 289 910 m 508 919 q 551 969 515 956 q 571 972 561 972 q 614 939 606 972 q 614 919 615 929 q 571 869 607 883 q 551 867 561 867 q 508 900 517 867 q 508 919 507 910 m 314 393 l 525 393 l 478 724 l 314 393 m 440 47 l 574 47 l 531 342 l 292 342 l 143 47 l 275 47 l 267 0 l -29 0 l -21 47 l 89 47 l 431 733 l 231 733 l 239 781 l 526 781 l 628 47 l 732 47 l 724 0 l 432 0 l 440 47 z "},"ǟ":{"ha":833,"x_min":36,"x_max":706,"o":"m 118 926 l 600 926 l 592 879 l 110 879 l 118 926 m 172 743 q 215 793 179 779 q 235 796 225 796 q 278 763 269 796 q 278 743 279 753 q 235 693 271 707 q 215 690 225 690 q 172 724 181 690 q 172 743 171 733 m 390 743 q 433 793 397 779 q 453 796 443 796 q 496 763 488 796 q 496 743 497 753 q 453 693 489 707 q 433 690 443 690 q 390 724 399 690 q 390 743 389 733 m 575 332 q 324 369 436 369 q 143 296 215 369 q 92 199 101 253 q 163 61 76 110 q 286 32 215 32 q 485 100 397 32 q 543 153 511 121 l 575 332 m 576 47 l 706 47 l 697 0 l 517 0 l 529 75 q 301 -19 426 -12 q 276 -19 289 -19 q 85 50 156 -19 q 40 199 25 110 q 176 379 61 314 q 332 421 251 421 q 585 385 449 421 l 589 408 q 529 514 599 467 q 375 556 465 556 q 143 496 289 556 l 132 543 q 219 575 132 543 q 385 607 324 607 q 594 536 518 607 q 640 408 653 481 l 576 47 z "},"Ǡ":{"ha":833,"x_min":-29,"x_max":733,"o":"m 240 1129 l 722 1129 l 714 1082 l 232 1082 l 240 1129 m 518 1001 l 493 867 l 390 867 l 415 1001 l 518 1001 m 314 393 l 525 393 l 478 724 l 314 393 m 440 47 l 574 47 l 531 342 l 292 342 l 143 47 l 275 47 l 267 0 l -29 0 l -21 47 l 89 47 l 431 733 l 231 733 l 239 781 l 526 781 l 628 47 l 732 47 l 724 0 l 432 0 l 440 47 z "},"ǡ":{"ha":833,"x_min":36,"x_max":706,"o":"m 135 940 l 617 940 l 608 893 l 126 893 l 135 940 m 401 825 l 376 690 l 274 690 l 299 825 l 401 825 m 575 332 q 324 369 436 369 q 143 296 215 369 q 92 199 101 253 q 163 61 76 110 q 286 32 215 32 q 485 100 397 32 q 543 153 511 121 l 575 332 m 576 47 l 706 47 l 697 0 l 517 0 l 529 75 q 301 -19 426 -12 q 276 -19 289 -19 q 85 50 156 -19 q 40 199 25 110 q 176 379 61 314 q 332 421 251 421 q 585 385 449 421 l 589 408 q 529 514 599 467 q 375 556 465 556 q 143 496 289 556 l 132 543 q 219 575 132 543 q 385 607 324 607 q 594 536 518 607 q 640 408 653 481 l 576 47 z "},"Ǣ":{"ha":833,"x_min":-36,"x_max":854,"o":"m 260 914 l 742 914 l 733 867 l 251 867 l 260 914 m 433 393 l 492 724 l 318 393 l 433 393 m 704 558 l 669 360 l 622 360 l 638 446 l 494 446 l 424 47 l 676 47 l 715 168 l 763 168 l 715 0 l 364 0 l 425 342 l 292 342 l 136 47 l 268 47 l 260 0 l -36 0 l -28 47 l 82 47 l 444 733 l 224 733 l 232 781 l 854 781 l 838 621 l 790 621 l 799 733 l 546 733 l 503 493 l 646 493 l 657 558 l 704 558 z "},"ǣ":{"ha":833,"x_min":4,"x_max":819,"o":"m 171 738 l 653 738 l 644 690 l 163 690 l 171 738 m 761 343 q 738 508 774 468 q 644 542 708 542 q 463 371 513 542 q 454 343 458 357 l 761 343 m 401 332 l 317 360 q 236 369 279 369 q 92 267 140 369 q 71 199 76 235 q 110 64 56 113 q 197 32 143 32 q 319 96 258 32 q 369 153 333 111 l 401 332 m 399 110 q 306 18 331 35 q 188 -19 256 -19 q 19 74 60 -19 q 10 199 -3 125 q 149 401 36 350 q 244 421 193 421 q 379 394 304 421 q 411 385 397 389 l 415 408 q 286 556 440 556 q 131 507 217 556 q 113 497 122 503 l 101 544 q 236 599 144 576 q 296 607 272 607 q 467 492 446 607 q 654 593 536 593 q 819 436 810 593 q 807 296 822 379 l 446 296 q 521 60 411 97 q 572 51 543 51 q 703 108 643 51 q 729 135 661 68 l 754 96 q 564 0 660 1 q 399 110 432 0 z "},"Ǥ":{"ha":833,"x_min":103,"x_max":814,"o":"m 511 783 q 671 731 622 783 q 678 722 675 726 q 694 722 690 711 q 721 779 706 760 l 768 779 q 733 683 742 729 q 744 592 729 658 l 696 592 q 597 711 685 672 q 501 732 551 732 q 275 619 379 732 q 163 390 186 522 q 213 122 133 222 q 367 49 271 49 q 589 171 497 49 q 622 225 607 196 l 488 225 l 496 272 l 643 272 q 665 344 656 304 l 513 344 l 521 392 l 722 392 l 714 344 q 693 272 706 308 l 813 272 l 804 225 l 675 225 q 467 18 603 69 q 357 -3 414 -3 q 144 122 214 -3 q 111 390 83 235 q 268 678 142 561 q 511 783 381 783 z "},"ǥ":{"ha":833,"x_min":39,"x_max":875,"o":"m 440 542 q 218 446 313 542 q 136 296 151 381 q 196 107 117 181 q 353 50 258 50 q 576 146 481 50 q 657 296 643 211 q 597 485 678 411 q 440 542 535 542 m 875 592 l 867 544 l 753 544 l 649 -43 q 614 -119 643 -79 l 699 -169 l 669 -211 l 578 -157 q 356 -268 485 -243 q 293 -274 322 -274 q 39 -193 163 -274 l 69 -147 q 228 -214 125 -190 q 301 -222 268 -222 q 504 -153 399 -222 q 533 -132 519 -143 l 446 -81 l 476 -39 l 572 -94 q 597 -43 593 -65 l 629 133 q 399 3 535 25 q 346 -1 372 -1 q 131 96 207 -1 q 85 296 65 181 q 231 519 108 431 q 449 593 332 593 q 663 494 588 593 q 686 458 676 478 l 710 592 l 875 592 z "},"Ǧ":{"ha":833,"x_min":103,"x_max":769,"o":"m 690 1035 l 494 867 l 465 867 l 326 1035 l 350 1054 l 493 925 l 675 1054 l 690 1035 m 511 783 q 671 731 622 783 q 678 722 675 726 q 694 722 690 711 q 722 781 706 761 l 769 781 q 733 683 742 731 q 744 592 729 658 l 696 592 q 597 711 685 672 q 501 732 551 732 q 275 619 379 732 q 163 390 186 522 q 213 122 133 222 q 367 49 271 49 q 593 178 501 49 q 665 344 644 250 l 513 344 l 521 392 l 722 392 l 714 344 q 549 63 675 160 q 357 -3 463 -3 q 144 122 214 -3 q 111 390 83 235 q 268 678 142 561 q 511 783 381 783 z "},"ǧ":{"ha":833,"x_min":39,"x_max":875,"o":"m 589 844 l 393 676 l 364 676 l 225 844 l 249 864 l 392 735 l 574 864 l 589 844 m 440 542 q 218 446 313 542 q 136 296 151 381 q 196 107 117 181 q 353 50 258 50 q 576 146 481 50 q 657 296 643 211 q 597 485 678 411 q 440 542 535 542 m 875 592 l 867 544 l 753 544 l 649 -43 q 517 -204 633 -131 q 293 -274 404 -274 q 39 -193 163 -274 l 69 -147 q 228 -214 125 -190 q 301 -222 268 -222 q 501 -154 397 -222 q 597 -43 588 -99 l 629 133 q 399 3 535 25 q 346 -1 372 -1 q 131 96 207 -1 q 85 296 65 181 q 231 519 108 431 q 449 593 332 593 q 663 494 588 593 q 686 458 676 478 l 710 592 l 875 592 z "},"Ǩ":{"ha":833,"x_min":-25,"x_max":796,"o":"m 633 1035 l 438 867 l 408 867 l 269 1035 l 293 1054 l 436 925 l 618 1054 l 633 1035 m 506 781 l 796 781 l 788 733 l 619 733 q 283 401 460 544 q 479 238 404 367 q 564 47 518 171 l 728 47 l 719 0 l 526 0 q 378 282 449 208 q 231 360 319 343 q 199 338 211 346 l 147 47 l 274 47 l 265 0 l -25 0 l -17 47 l 97 47 l 219 733 l 106 733 l 114 781 l 404 781 l 396 733 l 269 733 l 211 404 q 556 733 382 533 l 497 733 l 506 781 z "},"ǩ":{"ha":833,"x_min":-1,"x_max":714,"o":"m 533 1129 l 338 961 l 308 961 l 169 1129 l 193 1149 l 336 1019 l 518 1149 l 533 1129 m 417 47 l 465 47 l 290 322 l 239 285 l 189 0 l -1 0 l 7 47 l 146 47 l 281 813 l 133 763 l 142 810 l 344 878 l 251 353 l 514 544 l 468 544 l 476 592 l 713 592 l 704 544 l 593 544 l 335 356 l 532 47 l 663 47 l 654 0 l 408 0 l 417 47 z "},"Ǫ":{"ha":833,"x_min":78,"x_max":756,"o":"m 408 4 l 467 4 q 386 -67 411 -6 q 378 -107 379 -86 q 433 -164 376 -149 q 457 -169 444 -167 q 583 -121 529 -182 l 606 -156 q 453 -232 543 -233 q 335 -176 369 -231 q 322 -107 315 -146 q 408 4 335 -32 m 486 783 q 701 665 625 783 q 747 390 775 550 q 590 103 717 219 q 347 -3 478 -3 q 132 115 208 -3 q 86 390 58 231 q 243 678 117 561 q 486 783 356 783 m 476 732 q 250 619 354 732 q 138 390 161 522 q 193 126 110 229 q 357 49 257 49 q 583 161 479 49 q 696 390 672 258 q 640 654 724 551 q 476 732 576 732 z "},"ǫ":{"ha":833,"x_min":99,"x_max":735,"o":"m 408 6 l 467 6 q 386 -65 411 -4 q 378 -106 379 -85 q 433 -162 376 -147 q 457 -168 444 -165 q 583 -119 529 -181 l 606 -154 q 453 -231 543 -232 q 335 -175 369 -229 q 322 -106 315 -144 q 408 6 335 -31 m 469 593 q 683 496 607 593 q 729 296 750 411 q 583 74 706 161 q 364 -1 482 -1 q 150 96 226 -1 q 104 296 83 181 q 250 518 128 431 q 469 593 351 593 m 460 542 q 239 447 335 542 q 156 296 171 381 q 215 107 135 181 q 374 50 278 50 q 600 146 507 50 q 678 296 663 210 q 613 492 700 419 q 460 542 551 542 z "},"Ǭ":{"ha":833,"x_min":78,"x_max":756,"o":"m 203 914 l 685 914 l 676 867 l 194 867 l 203 914 m 408 4 l 467 4 q 386 -67 411 -6 q 378 -107 379 -86 q 433 -164 376 -149 q 457 -169 444 -167 q 583 -121 529 -182 l 606 -156 q 453 -232 543 -233 q 335 -176 369 -231 q 322 -107 315 -146 q 408 4 335 -32 m 486 783 q 701 665 625 783 q 747 390 775 550 q 590 103 717 219 q 347 -3 478 -3 q 132 115 208 -3 q 86 390 58 231 q 243 678 117 561 q 486 783 356 783 m 476 732 q 250 619 354 732 q 138 390 161 522 q 193 126 110 229 q 357 49 257 49 q 583 161 479 49 q 696 390 672 258 q 640 654 724 551 q 476 732 576 732 z "},"ǭ":{"ha":833,"x_min":99,"x_max":735,"o":"m 169 724 l 651 724 l 643 676 l 161 676 l 169 724 m 408 6 l 467 6 q 386 -65 411 -4 q 378 -106 379 -85 q 433 -162 376 -147 q 457 -168 444 -165 q 583 -119 529 -181 l 606 -154 q 453 -231 543 -232 q 335 -175 369 -229 q 322 -106 315 -144 q 408 6 335 -31 m 469 593 q 683 496 607 593 q 729 296 750 411 q 583 74 706 161 q 364 -1 482 -1 q 150 96 226 -1 q 104 296 83 181 q 250 518 128 431 q 469 593 351 593 m 460 542 q 239 447 335 542 q 156 296 171 381 q 215 107 135 181 q 374 50 278 50 q 600 146 507 50 q 678 296 663 210 q 613 492 700 419 q 460 542 551 542 z "},"Ǯ":{"ha":833,"x_min":128,"x_max":671,"o":"m 642 1035 l 446 867 l 417 867 l 278 1035 l 301 1054 l 444 925 l 626 1054 l 642 1035 m 285 481 l 293 526 l 599 739 l 289 739 l 282 694 l 240 694 l 256 781 l 671 781 l 663 739 l 357 526 l 393 526 q 588 435 521 526 q 625 264 642 361 q 488 61 603 139 q 289 0 397 0 q 140 43 201 0 q 129 51 135 47 l 160 93 q 297 46 224 46 q 508 135 419 46 q 579 264 567 192 q 522 432 597 367 q 385 481 468 481 l 285 481 z "},"ǯ":{"ha":833,"x_min":58,"x_max":668,"o":"m 574 844 l 378 676 l 349 676 l 210 844 l 233 864 l 376 735 l 558 864 l 574 844 m 235 251 l 243 304 l 588 544 l 240 544 l 231 494 l 183 494 l 201 592 l 668 592 l 660 544 l 315 304 l 356 303 l 357 303 q 565 210 489 303 q 617 8 636 125 q 469 -214 593 -128 q 240 -287 365 -287 q 76 -242 144 -287 q 60 -229 68 -236 l 94 -183 q 250 -236 165 -236 q 482 -142 383 -236 q 565 8 550 -75 q 503 197 585 124 q 349 251 442 251 l 235 251 z "},"ǰ":{"ha":833,"x_min":14,"x_max":644,"o":"m 643 843 l 447 675 l 418 675 l 279 843 l 303 863 l 446 733 l 628 863 l 643 843 m 44 -186 q 172 -222 85 -217 q 190 -222 181 -222 q 321 -140 260 -222 q 367 -43 358 -92 l 471 544 l 289 544 l 297 592 l 531 592 l 418 -43 q 331 -201 404 -128 q 181 -274 260 -274 q 14 -232 69 -274 l 44 -186 z "},"Ǳ":{"ha":833,"x_min":-35,"x_max":865,"o":"m 68 47 l 140 47 q 336 304 269 47 q 356 394 347 347 q 367 650 388 576 q 263 733 343 733 l 190 733 l 68 47 m -26 47 l 17 47 l 139 733 l 96 733 l 104 781 l 271 781 q 414 456 463 781 q 404 397 410 432 q 271 58 360 146 q 132 0 213 0 l -35 0 l -26 47 m 694 47 l 749 264 l 796 264 l 729 0 l 378 0 l 383 28 l 789 733 l 561 733 l 514 521 l 467 521 l 525 781 l 865 781 l 858 749 l 456 47 l 694 47 z "},"ǲ":{"ha":833,"x_min":-35,"x_max":829,"o":"m 821 544 l 479 47 l 710 47 l 719 97 l 767 97 l 749 0 l 399 0 l 407 47 l 749 544 l 521 544 l 511 494 l 464 494 l 482 592 l 829 592 l 821 544 m 68 47 l 140 47 q 336 304 269 47 q 356 394 347 347 q 367 650 388 576 q 263 733 343 733 l 190 733 l 68 47 m -26 47 l 17 47 l 139 733 l 96 733 l 104 781 l 271 781 q 414 456 463 781 q 404 397 410 432 q 271 58 360 146 q 132 0 213 0 l -35 0 l -26 47 z "},"ǳ":{"ha":833,"x_min":-15,"x_max":821,"o":"m 215 594 q 311 529 279 594 q 318 514 314 522 l 372 821 l 196 785 l 204 832 l 433 878 l 331 296 l 286 47 l 333 47 l 325 0 l 226 0 l 240 78 q 110 -3 178 -3 q -3 108 26 -3 q -7 296 -25 190 q 143 576 32 518 q 215 594 176 594 m 206 543 q 57 357 106 543 q 44 296 50 328 q 71 78 19 150 q 119 49 92 49 q 214 115 165 49 q 272 258 258 176 l 286 333 q 267 511 307 453 q 206 543 244 543 m 813 544 l 465 47 l 701 47 l 711 97 l 758 97 l 740 0 l 390 0 l 399 47 l 746 544 l 513 544 l 503 494 l 456 494 l 474 592 l 821 592 l 813 544 z "},"Ǵ":{"ha":833,"x_min":103,"x_max":769,"o":"m 764 1110 l 488 867 l 424 867 l 635 1110 l 764 1110 m 511 783 q 671 731 622 783 q 678 722 675 726 q 694 722 690 711 q 722 781 706 761 l 769 781 q 733 683 742 731 q 744 592 729 658 l 696 592 q 597 711 685 672 q 501 732 551 732 q 275 619 379 732 q 163 390 186 522 q 213 122 133 222 q 367 49 271 49 q 593 178 501 49 q 665 344 644 250 l 513 344 l 521 392 l 722 392 l 714 344 q 549 63 675 160 q 357 -3 463 -3 q 144 122 214 -3 q 111 390 83 235 q 268 678 142 561 q 511 783 381 783 z "},"ǵ":{"ha":833,"x_min":39,"x_max":875,"o":"m 660 919 l 383 676 l 319 676 l 531 919 l 660 919 m 440 542 q 218 446 313 542 q 136 296 151 381 q 196 107 117 181 q 353 50 258 50 q 576 146 481 50 q 657 296 643 211 q 597 485 678 411 q 440 542 535 542 m 875 592 l 867 544 l 753 544 l 649 -43 q 517 -204 633 -131 q 293 -274 404 -274 q 39 -193 163 -274 l 69 -147 q 228 -214 125 -190 q 301 -222 268 -222 q 501 -154 397 -222 q 597 -43 588 -99 l 629 133 q 399 3 535 25 q 346 -1 372 -1 q 131 96 207 -1 q 85 296 65 181 q 231 519 108 431 q 449 593 332 593 q 663 494 588 593 q 686 458 676 478 l 710 592 l 875 592 z "},"Ƕ":{"ha":833,"x_min":-25,"x_max":835,"o":"m 486 458 l 221 458 l 149 47 l 244 47 l 236 0 l -24 0 l -15 47 l 97 47 l 218 733 l 106 733 l 114 781 l 374 781 l 365 733 l 269 733 l 229 508 l 494 508 l 535 733 l 436 733 l 444 781 l 704 781 l 696 733 l 586 733 l 492 199 q 522 63 474 97 q 567 50 540 50 q 694 154 654 50 q 713 217 707 182 l 774 561 l 656 561 l 664 608 l 835 608 l 763 199 q 640 21 740 75 q 558 -1 599 -1 q 436 113 450 -1 q 440 199 432 153 l 486 458 z "},"Ƿ":{"ha":833,"x_min":-22,"x_max":811,"o":"m 754 296 q 697 488 775 414 q 546 542 638 542 q 336 442 436 542 q 235 258 253 357 l 165 -137 q 617 111 485 7 q 754 296 739 207 m 104 -193 l 235 544 l 124 544 l 132 592 l 294 592 l 267 433 q 444 569 333 524 q 554 593 503 593 q 769 492 699 593 q 806 296 826 410 q 325 -112 772 103 q 157 -190 271 -139 l 150 -224 l -22 -289 l -14 -242 l 104 -193 z "},"Ǹ":{"ha":833,"x_min":-56,"x_max":892,"o":"m 207 1110 l 336 1110 l 464 867 l 399 867 l 207 1110 m 651 75 l 767 733 l 621 733 l 629 781 l 890 781 l 882 733 l 818 733 l 688 -10 l 636 -10 l 192 733 l 189 733 l 68 47 l 213 47 l 204 0 l -56 0 l -47 47 l 18 47 l 139 733 l 74 733 l 82 781 l 231 781 l 651 75 z "},"ǹ":{"ha":833,"x_min":-24,"x_max":756,"o":"m 175 938 l 304 938 l 432 694 l 367 694 l 175 938 m 240 522 q 299 551 290 547 q 500 611 421 611 q 657 538 593 611 q 700 411 713 476 l 636 47 l 754 47 l 746 0 l 457 0 l 465 47 l 586 47 l 650 411 q 606 511 660 460 q 490 560 554 560 q 229 461 397 560 l 156 47 l 274 47 l 265 0 l -24 0 l -15 47 l 106 47 l 193 544 l 72 544 l 81 592 l 253 592 q 240 522 246 574 z "},"Ǻ":{"ha":833,"x_min":-29,"x_max":758,"o":"m 757 1353 l 481 1110 l 417 1110 l 628 1353 l 757 1353 m 476 1090 q 572 1032 544 1090 q 581 964 588 1001 q 501 856 568 893 q 432 838 467 838 q 336 896 364 838 q 328 964 321 926 q 407 1072 340 1035 q 476 1090 442 1090 m 468 1043 q 388 996 418 1043 q 375 964 378 981 q 406 893 367 917 q 440 885 421 885 q 521 932 490 885 q 533 964 531 947 q 503 1035 542 1011 q 468 1043 488 1043 m 314 393 l 525 393 l 478 724 l 314 393 m 440 47 l 574 47 l 531 342 l 292 342 l 143 47 l 275 47 l 267 0 l -29 0 l -21 47 l 89 47 l 431 733 l 231 733 l 239 781 l 526 781 l 628 47 l 732 47 l 724 0 l 432 0 l 440 47 z "},"ǻ":{"ha":833,"x_min":36,"x_max":706,"o":"m 679 1269 l 403 1026 l 339 1026 l 550 1269 l 679 1269 m 363 943 q 458 885 431 943 q 467 817 474 854 q 388 708 454 746 q 318 690 353 690 q 222 749 250 690 q 214 817 207 779 q 293 925 226 888 q 363 943 328 943 m 354 896 q 274 849 304 896 q 261 817 264 833 q 292 746 253 769 q 326 738 307 738 q 407 785 376 738 q 419 817 417 800 q 389 888 428 864 q 354 896 374 896 m 575 332 q 324 369 436 369 q 143 296 215 369 q 92 199 101 253 q 163 61 76 110 q 286 32 215 32 q 485 100 397 32 q 543 153 511 121 l 575 332 m 576 47 l 706 47 l 697 0 l 517 0 l 529 75 q 301 -19 426 -12 q 276 -19 289 -19 q 85 50 156 -19 q 40 199 25 110 q 176 379 61 314 q 332 421 251 421 q 585 385 449 421 l 589 408 q 529 514 599 467 q 375 556 465 556 q 143 496 289 556 l 132 543 q 219 575 132 543 q 385 607 324 607 q 594 536 518 607 q 640 408 653 481 l 576 47 z "},"Ǽ":{"ha":833,"x_min":-36,"x_max":854,"o":"m 796 1110 l 519 867 l 456 867 l 667 1110 l 796 1110 m 433 393 l 492 724 l 318 393 l 433 393 m 704 558 l 669 360 l 622 360 l 638 446 l 494 446 l 424 47 l 676 47 l 715 168 l 763 168 l 715 0 l 364 0 l 425 342 l 292 342 l 136 47 l 268 47 l 260 0 l -36 0 l -28 47 l 82 47 l 444 733 l 224 733 l 232 781 l 854 781 l 838 621 l 790 621 l 799 733 l 546 733 l 503 493 l 646 493 l 657 558 l 704 558 z "},"ǽ":{"ha":833,"x_min":4,"x_max":819,"o":"m 532 933 l 256 690 l 192 690 l 403 933 l 532 933 m 761 343 q 738 508 774 468 q 644 542 708 542 q 463 371 513 542 q 454 343 458 357 l 761 343 m 401 332 l 317 360 q 236 369 279 369 q 92 267 140 369 q 71 199 76 235 q 110 64 56 113 q 197 32 143 32 q 319 96 258 32 q 369 153 333 111 l 401 332 m 399 110 q 306 18 331 35 q 188 -19 256 -19 q 19 74 60 -19 q 10 199 -3 125 q 149 401 36 350 q 244 421 193 421 q 379 394 304 421 q 411 385 397 389 l 415 408 q 286 556 440 556 q 131 507 217 556 q 113 497 122 503 l 101 544 q 236 599 144 576 q 296 607 272 607 q 467 492 446 607 q 654 593 536 593 q 819 436 810 593 q 807 296 822 379 l 446 296 q 521 60 411 97 q 572 51 543 51 q 703 108 643 51 q 729 135 661 68 l 754 96 q 564 0 660 1 q 399 110 432 0 z "},"Ǿ":{"ha":833,"x_min":32,"x_max":796,"o":"m 697 1151 l 421 908 l 357 908 l 568 1151 l 697 1151 m 486 783 q 663 711 590 783 l 761 825 l 794 797 l 692 679 q 747 390 776 560 q 589 101 717 218 q 347 -3 476 -3 q 164 74 239 -3 l 67 -39 l 33 -11 l 138 108 q 86 390 57 225 q 243 679 117 563 q 486 783 356 783 m 201 117 q 356 49 264 49 q 582 161 479 49 q 696 390 672 258 q 654 635 721 533 l 201 117 m 476 732 q 250 619 353 732 q 138 390 160 522 q 175 151 113 250 l 625 669 q 476 732 563 732 z "},"ǿ":{"ha":833,"x_min":60,"x_max":767,"o":"m 700 936 l 424 693 l 360 693 l 571 936 l 700 936 m 469 593 q 638 539 565 593 l 736 632 l 767 601 l 669 510 q 729 296 751 422 q 583 74 706 161 q 364 -1 482 -1 q 190 56 264 -1 l 90 -40 l 60 -10 l 160 85 q 104 296 82 174 q 250 518 128 431 q 469 593 351 593 m 232 94 q 374 50 292 50 q 597 146 501 50 q 678 296 663 211 q 629 471 696 399 l 232 94 m 460 542 q 236 446 332 542 q 156 296 171 381 q 200 124 138 196 l 597 500 q 460 542 539 542 z "},"Ȁ":{"ha":833,"x_min":-29,"x_max":733,"o":"m 375 1074 l 486 1074 l 593 867 l 539 867 l 375 1074 m 124 1074 l 233 1074 l 342 867 l 286 867 l 124 1074 m 314 393 l 525 393 l 478 724 l 314 393 m 440 47 l 574 47 l 531 342 l 292 342 l 143 47 l 275 47 l 267 0 l -29 0 l -21 47 l 89 47 l 431 733 l 231 733 l 239 781 l 526 781 l 628 47 l 732 47 l 724 0 l 432 0 l 440 47 z "},"ȁ":{"ha":833,"x_min":-11,"x_max":706,"o":"m 239 897 l 350 897 l 457 690 l 403 690 l 239 897 m -12 897 l 97 897 l 206 690 l 150 690 l -12 897 m 575 332 q 324 369 436 369 q 143 296 215 369 q 92 199 101 253 q 163 61 76 110 q 286 32 215 32 q 485 100 397 32 q 543 153 511 121 l 575 332 m 576 47 l 706 47 l 697 0 l 517 0 l 529 75 q 301 -19 426 -12 q 276 -19 289 -19 q 85 50 156 -19 q 40 199 25 110 q 176 379 61 314 q 332 421 251 421 q 585 385 449 421 l 589 408 q 529 514 599 467 q 375 556 465 556 q 143 496 289 556 l 132 543 q 219 575 132 543 q 385 607 324 607 q 594 536 518 607 q 640 408 653 481 l 576 47 z "},"Ȃ":{"ha":833,"x_min":-29,"x_max":733,"o":"m 529 867 l 496 867 q 394 928 478 928 q 275 867 303 928 l 242 867 q 342 985 265 950 q 408 1000 375 1000 q 518 931 490 1000 q 529 867 531 903 m 314 393 l 525 393 l 478 724 l 314 393 m 440 47 l 574 47 l 531 342 l 292 342 l 143 47 l 275 47 l 267 0 l -29 0 l -21 47 l 89 47 l 431 733 l 231 733 l 239 781 l 526 781 l 628 47 l 732 47 l 724 0 l 432 0 l 440 47 z "},"ȃ":{"ha":833,"x_min":36,"x_max":706,"o":"m 414 690 l 381 690 q 279 751 363 751 q 160 690 188 751 l 126 690 q 226 808 150 774 q 293 824 260 824 q 403 754 375 824 q 414 690 415 726 m 575 332 q 324 369 436 369 q 143 296 215 369 q 92 199 101 253 q 163 61 76 110 q 286 32 215 32 q 485 100 397 32 q 543 153 511 121 l 575 332 m 576 47 l 706 47 l 697 0 l 517 0 l 529 75 q 301 -19 426 -12 q 276 -19 289 -19 q 85 50 156 -19 q 40 199 25 110 q 176 379 61 314 q 332 421 251 421 q 585 385 449 421 l 589 408 q 529 514 599 467 q 375 556 465 556 q 143 496 289 556 l 132 543 q 219 575 132 543 q 385 607 324 607 q 594 536 518 607 q 640 408 653 481 l 576 47 z "},"Ȅ":{"ha":833,"x_min":33,"x_max":783,"o":"m 350 1074 l 461 1074 l 568 867 l 514 867 l 350 1074 m 99 1074 l 208 1074 l 317 867 l 261 867 l 99 1074 m 633 558 l 599 360 l 551 360 l 567 446 l 297 446 l 226 47 l 606 47 l 644 168 l 692 168 l 644 0 l 33 0 l 42 47 l 176 47 l 299 733 l 164 733 l 172 781 l 783 781 l 767 621 l 719 621 l 728 733 l 349 733 l 306 493 l 575 493 l 586 558 l 633 558 z "},"ȅ":{"ha":833,"x_min":65,"x_max":726,"o":"m 317 883 l 428 883 l 535 676 l 481 676 l 317 883 m 65 883 l 175 883 l 283 676 l 228 676 l 65 883 m 672 343 q 579 507 668 450 q 451 542 524 542 q 229 446 324 542 q 161 343 183 400 l 672 343 m 721 296 l 147 296 q 210 110 128 183 q 372 51 275 51 q 600 119 485 51 q 614 128 607 124 l 640 89 q 403 1 539 15 q 363 0 382 0 q 147 94 226 0 q 96 296 75 179 q 242 518 119 431 q 461 593 343 593 q 676 496 601 593 q 721 296 742 413 z "},"Ȇ":{"ha":833,"x_min":33,"x_max":783,"o":"m 524 867 l 490 867 q 389 928 472 928 q 269 867 297 928 l 236 867 q 336 985 260 950 q 403 1000 369 1000 q 513 931 485 1000 q 524 867 525 903 m 633 558 l 599 360 l 551 360 l 567 446 l 297 446 l 226 47 l 606 47 l 644 168 l 692 168 l 644 0 l 33 0 l 42 47 l 176 47 l 299 733 l 164 733 l 172 781 l 783 781 l 767 621 l 719 621 l 728 733 l 349 733 l 306 493 l 575 493 l 586 558 l 633 558 z "},"ȇ":{"ha":833,"x_min":90,"x_max":726,"o":"m 490 676 l 457 676 q 356 738 439 738 q 236 676 264 738 l 203 676 q 303 794 226 760 q 369 810 336 810 q 479 740 451 810 q 490 676 492 713 m 672 343 q 579 507 668 450 q 451 542 524 542 q 229 446 324 542 q 161 343 183 400 l 672 343 m 721 296 l 147 296 q 210 110 128 183 q 372 51 275 51 q 600 119 485 51 q 614 128 607 124 l 640 89 q 403 1 539 15 q 363 0 382 0 q 147 94 226 0 q 96 296 75 179 q 242 518 119 431 q 461 593 343 593 q 676 496 601 593 q 721 296 742 413 z "},"Ȉ":{"ha":833,"x_min":54,"x_max":779,"o":"m 358 1074 l 469 1074 l 576 867 l 522 867 l 358 1074 m 107 1074 l 217 1074 l 325 867 l 269 867 l 107 1074 m 457 733 l 186 733 l 194 781 l 779 781 l 771 733 l 507 733 l 385 47 l 647 47 l 639 0 l 54 0 l 63 47 l 335 47 l 457 733 z "},"ȉ":{"ha":833,"x_min":83,"x_max":650,"o":"m 335 883 l 446 883 l 553 676 l 499 676 l 335 883 m 83 883 l 193 883 l 301 676 l 246 676 l 83 883 m 446 544 l 188 544 l 196 592 l 506 592 l 408 47 l 649 47 l 640 0 l 90 0 l 99 47 l 357 47 l 446 544 z "},"Ȋ":{"ha":833,"x_min":54,"x_max":779,"o":"m 533 867 l 500 867 q 399 928 482 928 q 279 867 307 928 l 246 867 q 346 985 269 950 q 413 1000 379 1000 q 522 931 494 1000 q 533 867 535 903 m 457 733 l 186 733 l 194 781 l 779 781 l 771 733 l 507 733 l 385 47 l 647 47 l 639 0 l 54 0 l 63 47 l 335 47 l 457 733 z "},"ȋ":{"ha":833,"x_min":90,"x_max":650,"o":"m 508 676 l 475 676 q 374 738 457 738 q 254 676 282 738 l 221 676 q 321 794 244 760 q 388 810 354 810 q 497 740 469 810 q 508 676 510 713 m 446 544 l 188 544 l 196 592 l 506 592 l 408 47 l 649 47 l 640 0 l 90 0 l 99 47 l 357 47 l 446 544 z "},"Ȍ":{"ha":833,"x_min":78,"x_max":756,"o":"m 358 1074 l 469 1074 l 576 867 l 522 867 l 358 1074 m 107 1074 l 217 1074 l 325 867 l 269 867 l 107 1074 m 486 783 q 701 665 625 783 q 747 390 775 550 q 590 103 717 219 q 347 -3 478 -3 q 132 115 208 -3 q 86 390 58 231 q 243 678 117 561 q 486 783 356 783 m 476 732 q 250 619 354 732 q 138 390 161 522 q 193 126 110 229 q 357 49 257 49 q 583 161 479 49 q 696 390 672 258 q 640 654 724 551 q 476 732 576 732 z "},"ȍ":{"ha":833,"x_min":74,"x_max":735,"o":"m 325 883 l 436 883 l 543 676 l 489 676 l 325 883 m 74 883 l 183 883 l 292 676 l 236 676 l 74 883 m 469 593 q 683 496 607 593 q 729 296 750 411 q 583 74 706 161 q 364 -1 482 -1 q 150 96 226 -1 q 104 296 83 181 q 250 518 128 431 q 469 593 351 593 m 460 542 q 239 447 335 542 q 156 296 171 381 q 215 107 135 181 q 374 50 278 50 q 600 146 507 50 q 678 296 663 210 q 613 492 700 419 q 460 542 551 542 z "},"Ȏ":{"ha":833,"x_min":78,"x_max":756,"o":"m 532 867 l 499 867 q 397 928 481 928 q 278 867 306 928 l 244 867 q 344 985 268 950 q 411 1000 378 1000 q 521 931 493 1000 q 532 867 533 903 m 486 783 q 701 665 625 783 q 747 390 775 550 q 590 103 717 219 q 347 -3 478 -3 q 132 115 208 -3 q 86 390 58 231 q 243 678 117 561 q 486 783 356 783 m 476 732 q 250 619 354 732 q 138 390 161 522 q 193 126 110 229 q 357 49 257 49 q 583 161 479 49 q 696 390 672 258 q 640 654 724 551 q 476 732 576 732 z "},"ȏ":{"ha":833,"x_min":99,"x_max":735,"o":"m 499 676 l 465 676 q 364 738 447 738 q 244 676 272 738 l 211 676 q 311 794 235 760 q 378 810 344 810 q 488 740 460 810 q 499 676 500 713 m 469 593 q 683 496 607 593 q 729 296 750 411 q 583 74 706 161 q 364 -1 482 -1 q 150 96 226 -1 q 104 296 83 181 q 250 518 128 431 q 469 593 351 593 m 460 542 q 239 447 335 542 q 156 296 171 381 q 215 107 135 181 q 374 50 278 50 q 600 146 507 50 q 678 296 663 210 q 613 492 700 419 q 460 542 551 542 z "},"Ȑ":{"ha":833,"x_min":-57,"x_max":771,"o":"m 197 1074 l 308 1074 l 415 867 l 361 867 l 197 1074 m -54 1074 l 56 1074 l 164 867 l 108 867 l -54 1074 m 199 390 l 499 390 q 650 444 583 390 q 719 561 707 490 q 625 724 742 690 q 560 733 594 733 l 260 733 l 199 390 m 453 343 q 558 138 526 263 q 578 47 567 107 l 675 47 l 667 0 l 536 0 q 482 206 506 153 q 379 343 450 279 l 189 343 l 136 47 l 317 47 l 308 0 l -57 0 l -49 47 l 86 47 l 208 733 l 74 733 l 82 781 l 568 781 q 735 714 679 781 q 767 561 783 656 q 606 369 743 428 q 490 343 546 343 l 453 343 z "},"ȑ":{"ha":833,"x_min":22,"x_max":726,"o":"m 292 901 l 403 901 l 510 694 l 456 694 l 292 901 m 40 901 l 150 901 l 258 694 l 203 694 l 40 901 m 676 504 q 603 547 664 525 q 547 560 571 560 q 303 476 457 560 q 276 461 289 468 l 203 49 l 321 49 l 313 0 l 22 0 l 31 49 l 151 49 l 239 544 l 118 544 l 126 592 l 299 592 l 288 522 q 346 551 340 549 q 556 611 464 611 q 710 554 643 611 q 725 538 718 546 l 676 504 z "},"Ȓ":{"ha":833,"x_min":-57,"x_max":771,"o":"m 371 867 l 338 867 q 236 928 319 928 q 117 867 144 928 l 83 867 q 183 985 107 950 q 250 1000 217 1000 q 360 931 332 1000 q 371 867 372 903 m 199 390 l 499 390 q 650 444 583 390 q 719 561 707 490 q 625 724 742 690 q 560 733 594 733 l 260 733 l 199 390 m 453 343 q 558 138 526 263 q 578 47 567 107 l 675 47 l 667 0 l 536 0 q 482 206 506 153 q 379 343 450 279 l 189 343 l 136 47 l 317 47 l 308 0 l -57 0 l -49 47 l 86 47 l 208 733 l 74 733 l 82 781 l 568 781 q 735 714 679 781 q 767 561 783 656 q 606 369 743 428 q 490 343 546 343 l 453 343 z "},"ȓ":{"ha":833,"x_min":22,"x_max":726,"o":"m 465 694 l 432 694 q 331 756 414 756 q 211 694 239 756 l 178 694 q 278 813 201 778 q 344 828 311 828 q 454 758 426 828 q 465 694 467 731 m 676 504 q 603 547 664 525 q 547 560 571 560 q 303 476 457 560 q 276 461 289 468 l 203 49 l 321 49 l 313 0 l 22 0 l 31 49 l 151 49 l 239 544 l 118 544 l 126 592 l 299 592 l 288 522 q 346 551 340 549 q 556 611 464 611 q 710 554 643 611 q 725 538 718 546 l 676 504 z "},"Ȕ":{"ha":833,"x_min":100,"x_max":865,"o":"m 358 1074 l 469 1074 l 576 867 l 522 867 l 358 1074 m 107 1074 l 217 1074 l 325 867 l 269 867 l 107 1074 m 856 733 l 757 733 l 672 249 q 571 86 657 165 q 347 -10 468 -10 q 154 94 225 -10 q 114 249 100 174 l 199 733 l 100 733 l 108 781 l 392 781 l 383 733 l 244 733 l 160 249 q 199 125 150 194 q 354 38 261 38 q 558 138 465 38 q 625 249 615 197 l 710 733 l 572 733 l 581 781 l 864 781 l 856 733 z "},"ȕ":{"ha":833,"x_min":13,"x_max":758,"o":"m 264 883 l 375 883 l 482 676 l 428 676 l 264 883 m 13 883 l 122 883 l 231 676 l 175 676 l 13 883 m 592 71 q 532 42 540 46 q 331 -18 410 -18 q 174 56 239 -18 q 131 182 118 117 l 194 544 l 76 544 l 85 592 l 254 592 l 181 182 q 225 82 172 133 q 340 33 276 33 q 601 132 433 33 l 675 544 l 557 544 l 565 592 l 735 592 l 639 49 l 758 49 l 750 0 l 579 0 l 592 71 z "},"Ȗ":{"ha":833,"x_min":100,"x_max":865,"o":"m 532 867 l 499 867 q 397 928 481 928 q 278 867 306 928 l 244 867 q 344 985 268 950 q 411 1000 378 1000 q 521 931 493 1000 q 532 867 533 903 m 856 733 l 757 733 l 672 249 q 571 86 657 165 q 347 -10 468 -10 q 154 94 225 -10 q 114 249 100 174 l 199 733 l 100 733 l 108 781 l 392 781 l 383 733 l 244 733 l 160 249 q 199 125 150 194 q 354 38 261 38 q 558 138 465 38 q 625 249 615 197 l 710 733 l 572 733 l 581 781 l 864 781 l 856 733 z "},"ȗ":{"ha":833,"x_min":75,"x_max":758,"o":"m 438 676 l 404 676 q 303 738 386 738 q 183 676 211 738 l 150 676 q 250 794 174 760 q 317 810 283 810 q 426 740 399 810 q 438 676 439 713 m 592 71 q 532 42 540 46 q 331 -18 410 -18 q 174 56 239 -18 q 131 182 118 117 l 194 544 l 76 544 l 85 592 l 254 592 l 181 182 q 225 82 172 133 q 340 33 276 33 q 601 132 433 33 l 675 544 l 557 544 l 565 592 l 735 592 l 639 49 l 758 49 l 750 0 l 579 0 l 592 71 z "}}}
